<?xml version="1.0" encoding="utf-8"?>
<svg xmlns="http://www.w3.org/2000/svg" xmlns:xlink="http://www.w3.org/1999/xlink" width="600" height="400" viewBox="0 0 2400 1600">
<defs>
  <clipPath id="clip010">
    <rect x="0" y="0" width="2400" height="1600"/>
  </clipPath>
</defs>
<path clip-path="url(#clip010)" d="M0 1600 L2400 1600 L2400 0 L0 0  Z" fill="#ffffff" fill-rule="evenodd" fill-opacity="1"/>
<defs>
  <clipPath id="clip011">
    <rect x="480" y="0" width="1681" height="1600"/>
  </clipPath>
</defs>
<path clip-path="url(#clip010)" d="M156.112 1486.45 L2352.76 1486.45 L2352.76 47.2441 L156.112 47.2441  Z" fill="#ffffff" fill-rule="evenodd" fill-opacity="1"/>
<defs>
  <clipPath id="clip012">
    <rect x="156" y="47" width="2198" height="1440"/>
  </clipPath>
</defs>
<polyline clip-path="url(#clip012)" style="stroke:#000000; stroke-linecap:round; stroke-linejoin:round; stroke-width:2; stroke-opacity:0.1; fill:none" points="218.281,1486.45 218.281,47.2441 "/>
<polyline clip-path="url(#clip012)" style="stroke:#000000; stroke-linecap:round; stroke-linejoin:round; stroke-width:2; stroke-opacity:0.1; fill:none" points="736.358,1486.45 736.358,47.2441 "/>
<polyline clip-path="url(#clip012)" style="stroke:#000000; stroke-linecap:round; stroke-linejoin:round; stroke-width:2; stroke-opacity:0.1; fill:none" points="1254.43,1486.45 1254.43,47.2441 "/>
<polyline clip-path="url(#clip012)" style="stroke:#000000; stroke-linecap:round; stroke-linejoin:round; stroke-width:2; stroke-opacity:0.1; fill:none" points="1772.51,1486.45 1772.51,47.2441 "/>
<polyline clip-path="url(#clip012)" style="stroke:#000000; stroke-linecap:round; stroke-linejoin:round; stroke-width:2; stroke-opacity:0.1; fill:none" points="2290.59,1486.45 2290.59,47.2441 "/>
<polyline clip-path="url(#clip012)" style="stroke:#000000; stroke-linecap:round; stroke-linejoin:round; stroke-width:2; stroke-opacity:0.1; fill:none" points="156.112,1445.72 2352.76,1445.72 "/>
<polyline clip-path="url(#clip012)" style="stroke:#000000; stroke-linecap:round; stroke-linejoin:round; stroke-width:2; stroke-opacity:0.1; fill:none" points="156.112,1206.8 2352.76,1206.8 "/>
<polyline clip-path="url(#clip012)" style="stroke:#000000; stroke-linecap:round; stroke-linejoin:round; stroke-width:2; stroke-opacity:0.1; fill:none" points="156.112,967.886 2352.76,967.886 "/>
<polyline clip-path="url(#clip012)" style="stroke:#000000; stroke-linecap:round; stroke-linejoin:round; stroke-width:2; stroke-opacity:0.1; fill:none" points="156.112,728.971 2352.76,728.971 "/>
<polyline clip-path="url(#clip012)" style="stroke:#000000; stroke-linecap:round; stroke-linejoin:round; stroke-width:2; stroke-opacity:0.1; fill:none" points="156.112,490.056 2352.76,490.056 "/>
<polyline clip-path="url(#clip012)" style="stroke:#000000; stroke-linecap:round; stroke-linejoin:round; stroke-width:2; stroke-opacity:0.1; fill:none" points="156.112,251.141 2352.76,251.141 "/>
<polyline clip-path="url(#clip010)" style="stroke:#000000; stroke-linecap:round; stroke-linejoin:round; stroke-width:4; stroke-opacity:1; fill:none" points="156.112,1486.45 2352.76,1486.45 "/>
<polyline clip-path="url(#clip010)" style="stroke:#000000; stroke-linecap:round; stroke-linejoin:round; stroke-width:4; stroke-opacity:1; fill:none" points="218.281,1486.45 218.281,1467.55 "/>
<polyline clip-path="url(#clip010)" style="stroke:#000000; stroke-linecap:round; stroke-linejoin:round; stroke-width:4; stroke-opacity:1; fill:none" points="736.358,1486.45 736.358,1467.55 "/>
<polyline clip-path="url(#clip010)" style="stroke:#000000; stroke-linecap:round; stroke-linejoin:round; stroke-width:4; stroke-opacity:1; fill:none" points="1254.43,1486.45 1254.43,1467.55 "/>
<polyline clip-path="url(#clip010)" style="stroke:#000000; stroke-linecap:round; stroke-linejoin:round; stroke-width:4; stroke-opacity:1; fill:none" points="1772.51,1486.45 1772.51,1467.55 "/>
<polyline clip-path="url(#clip010)" style="stroke:#000000; stroke-linecap:round; stroke-linejoin:round; stroke-width:4; stroke-opacity:1; fill:none" points="2290.59,1486.45 2290.59,1467.55 "/>
<path clip-path="url(#clip010)" d="M218.281 1517.37 Q214.67 1517.37 212.842 1520.93 Q211.036 1524.47 211.036 1531.6 Q211.036 1538.71 212.842 1542.27 Q214.67 1545.82 218.281 1545.82 Q221.916 1545.82 223.721 1542.27 Q225.55 1538.71 225.55 1531.6 Q225.55 1524.47 223.721 1520.93 Q221.916 1517.37 218.281 1517.37 M218.281 1513.66 Q224.091 1513.66 227.147 1518.27 Q230.226 1522.85 230.226 1531.6 Q230.226 1540.33 227.147 1544.94 Q224.091 1549.52 218.281 1549.52 Q212.471 1549.52 209.392 1544.94 Q206.337 1540.33 206.337 1531.6 Q206.337 1522.85 209.392 1518.27 Q212.471 1513.66 218.281 1513.66 Z" fill="#000000" fill-rule="nonzero" fill-opacity="1" /><path clip-path="url(#clip010)" d="M726.74 1544.91 L734.378 1544.91 L734.378 1518.55 L726.068 1520.21 L726.068 1515.95 L734.332 1514.29 L739.008 1514.29 L739.008 1544.91 L746.647 1544.91 L746.647 1548.85 L726.74 1548.85 L726.74 1544.91 Z" fill="#000000" fill-rule="nonzero" fill-opacity="1" /><path clip-path="url(#clip010)" d="M1249.09 1544.91 L1265.41 1544.91 L1265.41 1548.85 L1243.46 1548.85 L1243.46 1544.91 Q1246.12 1542.16 1250.71 1537.53 Q1255.31 1532.88 1256.49 1531.53 Q1258.74 1529.01 1259.62 1527.27 Q1260.52 1525.51 1260.52 1523.82 Q1260.52 1521.07 1258.58 1519.33 Q1256.66 1517.6 1253.55 1517.6 Q1251.36 1517.6 1248.9 1518.36 Q1246.47 1519.13 1243.69 1520.68 L1243.69 1515.95 Q1246.52 1514.82 1248.97 1514.24 Q1251.42 1513.66 1253.46 1513.66 Q1258.83 1513.66 1262.03 1516.35 Q1265.22 1519.03 1265.22 1523.52 Q1265.22 1525.65 1264.41 1527.57 Q1263.62 1529.47 1261.52 1532.07 Q1260.94 1532.74 1257.84 1535.95 Q1254.73 1539.15 1249.09 1544.91 Z" fill="#000000" fill-rule="nonzero" fill-opacity="1" /><path clip-path="url(#clip010)" d="M1776.76 1530.21 Q1780.11 1530.93 1781.99 1533.2 Q1783.89 1535.47 1783.89 1538.8 Q1783.89 1543.92 1780.37 1546.72 Q1776.85 1549.52 1770.37 1549.52 Q1768.19 1549.52 1765.88 1549.08 Q1763.59 1548.66 1761.13 1547.81 L1761.13 1543.29 Q1763.08 1544.43 1765.39 1545.01 Q1767.71 1545.58 1770.23 1545.58 Q1774.63 1545.58 1776.92 1543.85 Q1779.23 1542.11 1779.23 1538.8 Q1779.23 1535.75 1777.08 1534.03 Q1774.95 1532.3 1771.13 1532.3 L1767.11 1532.3 L1767.11 1528.45 L1771.32 1528.45 Q1774.77 1528.45 1776.6 1527.09 Q1778.42 1525.7 1778.42 1523.11 Q1778.42 1520.45 1776.53 1519.03 Q1774.65 1517.6 1771.13 1517.6 Q1769.21 1517.6 1767.01 1518.01 Q1764.81 1518.43 1762.17 1519.31 L1762.17 1515.14 Q1764.84 1514.4 1767.15 1514.03 Q1769.49 1513.66 1771.55 1513.66 Q1776.87 1513.66 1779.98 1516.09 Q1783.08 1518.5 1783.08 1522.62 Q1783.08 1525.49 1781.43 1527.48 Q1779.79 1529.45 1776.76 1530.21 Z" fill="#000000" fill-rule="nonzero" fill-opacity="1" /><path clip-path="url(#clip010)" d="M2293.6 1518.36 L2281.79 1536.81 L2293.6 1536.81 L2293.6 1518.36 M2292.37 1514.29 L2298.25 1514.29 L2298.25 1536.81 L2303.18 1536.81 L2303.18 1540.7 L2298.25 1540.7 L2298.25 1548.85 L2293.6 1548.85 L2293.6 1540.7 L2277.99 1540.7 L2277.99 1536.19 L2292.37 1514.29 Z" fill="#000000" fill-rule="nonzero" fill-opacity="1" /><polyline clip-path="url(#clip010)" style="stroke:#000000; stroke-linecap:round; stroke-linejoin:round; stroke-width:4; stroke-opacity:1; fill:none" points="156.112,1486.45 156.112,47.2441 "/>
<polyline clip-path="url(#clip010)" style="stroke:#000000; stroke-linecap:round; stroke-linejoin:round; stroke-width:4; stroke-opacity:1; fill:none" points="156.112,1445.72 175.01,1445.72 "/>
<polyline clip-path="url(#clip010)" style="stroke:#000000; stroke-linecap:round; stroke-linejoin:round; stroke-width:4; stroke-opacity:1; fill:none" points="156.112,1206.8 175.01,1206.8 "/>
<polyline clip-path="url(#clip010)" style="stroke:#000000; stroke-linecap:round; stroke-linejoin:round; stroke-width:4; stroke-opacity:1; fill:none" points="156.112,967.886 175.01,967.886 "/>
<polyline clip-path="url(#clip010)" style="stroke:#000000; stroke-linecap:round; stroke-linejoin:round; stroke-width:4; stroke-opacity:1; fill:none" points="156.112,728.971 175.01,728.971 "/>
<polyline clip-path="url(#clip010)" style="stroke:#000000; stroke-linecap:round; stroke-linejoin:round; stroke-width:4; stroke-opacity:1; fill:none" points="156.112,490.056 175.01,490.056 "/>
<polyline clip-path="url(#clip010)" style="stroke:#000000; stroke-linecap:round; stroke-linejoin:round; stroke-width:4; stroke-opacity:1; fill:none" points="156.112,251.141 175.01,251.141 "/>
<path clip-path="url(#clip010)" d="M62.9365 1431.51 Q59.3254 1431.51 57.4967 1435.08 Q55.6912 1438.62 55.6912 1445.75 Q55.6912 1452.86 57.4967 1456.42 Q59.3254 1459.96 62.9365 1459.96 Q66.5707 1459.96 68.3763 1456.42 Q70.205 1452.86 70.205 1445.75 Q70.205 1438.62 68.3763 1435.08 Q66.5707 1431.51 62.9365 1431.51 M62.9365 1427.81 Q68.7467 1427.81 71.8022 1432.42 Q74.8809 1437 74.8809 1445.75 Q74.8809 1454.48 71.8022 1459.08 Q68.7467 1463.67 62.9365 1463.67 Q57.1264 1463.67 54.0477 1459.08 Q50.9921 1454.48 50.9921 1445.75 Q50.9921 1437 54.0477 1432.42 Q57.1264 1427.81 62.9365 1427.81 Z" fill="#000000" fill-rule="nonzero" fill-opacity="1" /><path clip-path="url(#clip010)" d="M83.0984 1457.12 L87.9827 1457.12 L87.9827 1463 L83.0984 1463 L83.0984 1457.12 Z" fill="#000000" fill-rule="nonzero" fill-opacity="1" /><path clip-path="url(#clip010)" d="M108.168 1431.51 Q104.557 1431.51 102.728 1435.08 Q100.922 1438.62 100.922 1445.75 Q100.922 1452.86 102.728 1456.42 Q104.557 1459.96 108.168 1459.96 Q111.802 1459.96 113.608 1456.42 Q115.436 1452.86 115.436 1445.75 Q115.436 1438.62 113.608 1435.08 Q111.802 1431.51 108.168 1431.51 M108.168 1427.81 Q113.978 1427.81 117.033 1432.42 Q120.112 1437 120.112 1445.75 Q120.112 1454.48 117.033 1459.08 Q113.978 1463.67 108.168 1463.67 Q102.358 1463.67 99.2789 1459.08 Q96.2234 1454.48 96.2234 1445.75 Q96.2234 1437 99.2789 1432.42 Q102.358 1427.81 108.168 1427.81 Z" fill="#000000" fill-rule="nonzero" fill-opacity="1" /><path clip-path="url(#clip010)" d="M63.9319 1192.6 Q60.3208 1192.6 58.4921 1196.16 Q56.6865 1199.71 56.6865 1206.84 Q56.6865 1213.94 58.4921 1217.51 Q60.3208 1221.05 63.9319 1221.05 Q67.5661 1221.05 69.3717 1217.51 Q71.2004 1213.94 71.2004 1206.84 Q71.2004 1199.71 69.3717 1196.16 Q67.5661 1192.6 63.9319 1192.6 M63.9319 1188.9 Q69.742 1188.9 72.7976 1193.5 Q75.8763 1198.09 75.8763 1206.84 Q75.8763 1215.56 72.7976 1220.17 Q69.742 1224.75 63.9319 1224.75 Q58.1217 1224.75 55.043 1220.17 Q51.9875 1215.56 51.9875 1206.84 Q51.9875 1198.09 55.043 1193.5 Q58.1217 1188.9 63.9319 1188.9 Z" fill="#000000" fill-rule="nonzero" fill-opacity="1" /><path clip-path="url(#clip010)" d="M84.0938 1218.2 L88.978 1218.2 L88.978 1224.08 L84.0938 1224.08 L84.0938 1218.2 Z" fill="#000000" fill-rule="nonzero" fill-opacity="1" /><path clip-path="url(#clip010)" d="M99.2095 1189.52 L117.566 1189.52 L117.566 1193.46 L103.492 1193.46 L103.492 1201.93 Q104.51 1201.58 105.529 1201.42 Q106.547 1201.23 107.566 1201.23 Q113.353 1201.23 116.733 1204.4 Q120.112 1207.58 120.112 1212.99 Q120.112 1218.57 116.64 1221.67 Q113.168 1224.75 106.848 1224.75 Q104.672 1224.75 102.404 1224.38 Q100.159 1224.01 97.7511 1223.27 L97.7511 1218.57 Q99.8345 1219.71 102.057 1220.26 Q104.279 1220.82 106.756 1220.82 Q110.76 1220.82 113.098 1218.71 Q115.436 1216.6 115.436 1212.99 Q115.436 1209.38 113.098 1207.28 Q110.76 1205.17 106.756 1205.17 Q104.881 1205.17 103.006 1205.59 Q101.154 1206 99.2095 1206.88 L99.2095 1189.52 Z" fill="#000000" fill-rule="nonzero" fill-opacity="1" /><path clip-path="url(#clip010)" d="M53.7467 981.231 L61.3856 981.231 L61.3856 954.865 L53.0754 956.532 L53.0754 952.273 L61.3393 950.606 L66.0152 950.606 L66.0152 981.231 L73.654 981.231 L73.654 985.166 L53.7467 985.166 L53.7467 981.231 Z" fill="#000000" fill-rule="nonzero" fill-opacity="1" /><path clip-path="url(#clip010)" d="M83.0984 979.286 L87.9827 979.286 L87.9827 985.166 L83.0984 985.166 L83.0984 979.286 Z" fill="#000000" fill-rule="nonzero" fill-opacity="1" /><path clip-path="url(#clip010)" d="M108.168 953.685 Q104.557 953.685 102.728 957.249 Q100.922 960.791 100.922 967.921 Q100.922 975.027 102.728 978.592 Q104.557 982.134 108.168 982.134 Q111.802 982.134 113.608 978.592 Q115.436 975.027 115.436 967.921 Q115.436 960.791 113.608 957.249 Q111.802 953.685 108.168 953.685 M108.168 949.981 Q113.978 949.981 117.033 954.587 Q120.112 959.171 120.112 967.921 Q120.112 976.647 117.033 981.254 Q113.978 985.837 108.168 985.837 Q102.358 985.837 99.2789 981.254 Q96.2234 976.647 96.2234 967.921 Q96.2234 959.171 99.2789 954.587 Q102.358 949.981 108.168 949.981 Z" fill="#000000" fill-rule="nonzero" fill-opacity="1" /><path clip-path="url(#clip010)" d="M54.7421 742.316 L62.381 742.316 L62.381 715.95 L54.0708 717.617 L54.0708 713.358 L62.3347 711.691 L67.0106 711.691 L67.0106 742.316 L74.6494 742.316 L74.6494 746.251 L54.7421 746.251 L54.7421 742.316 Z" fill="#000000" fill-rule="nonzero" fill-opacity="1" /><path clip-path="url(#clip010)" d="M84.0938 740.371 L88.978 740.371 L88.978 746.251 L84.0938 746.251 L84.0938 740.371 Z" fill="#000000" fill-rule="nonzero" fill-opacity="1" /><path clip-path="url(#clip010)" d="M99.2095 711.691 L117.566 711.691 L117.566 715.626 L103.492 715.626 L103.492 724.098 Q104.51 723.751 105.529 723.589 Q106.547 723.404 107.566 723.404 Q113.353 723.404 116.733 726.575 Q120.112 729.747 120.112 735.163 Q120.112 740.742 116.64 743.844 Q113.168 746.922 106.848 746.922 Q104.672 746.922 102.404 746.552 Q100.159 746.182 97.7511 745.441 L97.7511 740.742 Q99.8345 741.876 102.057 742.432 Q104.279 742.987 106.756 742.987 Q110.76 742.987 113.098 740.881 Q115.436 738.774 115.436 735.163 Q115.436 731.552 113.098 729.446 Q110.76 727.339 106.756 727.339 Q104.881 727.339 103.006 727.756 Q101.154 728.172 99.2095 729.052 L99.2095 711.691 Z" fill="#000000" fill-rule="nonzero" fill-opacity="1" /><path clip-path="url(#clip010)" d="M56.9643 503.401 L73.2837 503.401 L73.2837 507.336 L51.3393 507.336 L51.3393 503.401 Q54.0014 500.646 58.5847 496.017 Q63.1911 491.364 64.3717 490.021 Q66.617 487.498 67.4967 485.762 Q68.3994 484.003 68.3994 482.313 Q68.3994 479.559 66.455 477.822 Q64.5337 476.086 61.4319 476.086 Q59.2328 476.086 56.7791 476.85 Q54.3486 477.614 51.5708 479.165 L51.5708 474.443 Q54.3949 473.309 56.8486 472.73 Q59.3023 472.151 61.3393 472.151 Q66.7096 472.151 69.9041 474.836 Q73.0985 477.522 73.0985 482.012 Q73.0985 484.142 72.2883 486.063 Q71.5013 487.961 69.3948 490.554 Q68.8161 491.225 65.7143 494.443 Q62.6124 497.637 56.9643 503.401 Z" fill="#000000" fill-rule="nonzero" fill-opacity="1" /><path clip-path="url(#clip010)" d="M83.0984 501.457 L87.9827 501.457 L87.9827 507.336 L83.0984 507.336 L83.0984 501.457 Z" fill="#000000" fill-rule="nonzero" fill-opacity="1" /><path clip-path="url(#clip010)" d="M108.168 475.855 Q104.557 475.855 102.728 479.42 Q100.922 482.961 100.922 490.091 Q100.922 497.197 102.728 500.762 Q104.557 504.304 108.168 504.304 Q111.802 504.304 113.608 500.762 Q115.436 497.197 115.436 490.091 Q115.436 482.961 113.608 479.42 Q111.802 475.855 108.168 475.855 M108.168 472.151 Q113.978 472.151 117.033 476.758 Q120.112 481.341 120.112 490.091 Q120.112 498.818 117.033 503.424 Q113.978 508.007 108.168 508.007 Q102.358 508.007 99.2789 503.424 Q96.2234 498.818 96.2234 490.091 Q96.2234 481.341 99.2789 476.758 Q102.358 472.151 108.168 472.151 Z" fill="#000000" fill-rule="nonzero" fill-opacity="1" /><path clip-path="url(#clip010)" d="M57.9597 264.486 L74.279 264.486 L74.279 268.421 L52.3347 268.421 L52.3347 264.486 Q54.9967 261.731 59.58 257.102 Q64.1865 252.449 65.367 251.107 Q67.6124 248.583 68.492 246.847 Q69.3948 245.088 69.3948 243.398 Q69.3948 240.644 67.4504 238.908 Q65.5291 237.171 62.4272 237.171 Q60.2282 237.171 57.7745 237.935 Q55.344 238.699 52.5662 240.25 L52.5662 235.528 Q55.3903 234.394 57.8439 233.815 Q60.2976 233.236 62.3347 233.236 Q67.705 233.236 70.8994 235.921 Q74.0939 238.607 74.0939 243.097 Q74.0939 245.227 73.2837 247.148 Q72.4966 249.046 70.3902 251.639 Q69.8115 252.31 66.7096 255.528 Q63.6078 258.722 57.9597 264.486 Z" fill="#000000" fill-rule="nonzero" fill-opacity="1" /><path clip-path="url(#clip010)" d="M84.0938 262.542 L88.978 262.542 L88.978 268.421 L84.0938 268.421 L84.0938 262.542 Z" fill="#000000" fill-rule="nonzero" fill-opacity="1" /><path clip-path="url(#clip010)" d="M99.2095 233.861 L117.566 233.861 L117.566 237.796 L103.492 237.796 L103.492 246.269 Q104.51 245.921 105.529 245.759 Q106.547 245.574 107.566 245.574 Q113.353 245.574 116.733 248.745 Q120.112 251.917 120.112 257.333 Q120.112 262.912 116.64 266.014 Q113.168 269.093 106.848 269.093 Q104.672 269.093 102.404 268.722 Q100.159 268.352 97.7511 267.611 L97.7511 262.912 Q99.8345 264.046 102.057 264.602 Q104.279 265.157 106.756 265.157 Q110.76 265.157 113.098 263.051 Q115.436 260.944 115.436 257.333 Q115.436 253.722 113.098 251.616 Q110.76 249.509 106.756 249.509 Q104.881 249.509 103.006 249.926 Q101.154 250.343 99.2095 251.222 L99.2095 233.861 Z" fill="#000000" fill-rule="nonzero" fill-opacity="1" /><polyline clip-path="url(#clip012)" style="stroke:#009af9; stroke-linecap:round; stroke-linejoin:round; stroke-width:4; stroke-opacity:1; fill:none" points="218.281,87.9763 239.675,90.663 364.977,107.244 423.268,115.438 501.399,126.885 565.959,136.733 625.993,146.2 701.358,158.491 768.96,169.889 846.339,183.354 904.18,193.699 978.16,207.266 1045.68,219.964 1122.53,234.763 1183.45,246.746 1259.13,261.924 1317.1,273.755 1398.81,290.72 1459.88,303.602 1529.33,318.447 1598.1,333.339 1673.77,349.922 1731.57,362.715 1804.5,378.999 1871.95,394.184 1941.52,409.949 2012.04,426.022 2085.67,442.884 2143.67,456.21 2275.77,486.639 2290.59,490.056 "/>
<polyline clip-path="url(#clip012)" style="stroke:#e26f46; stroke-linecap:round; stroke-linejoin:round; stroke-width:4; stroke-opacity:1; fill:none" points="736.358,1445.72 740.369,1440.4 744.38,1435.12 748.392,1429.89 752.403,1424.69 775.897,1395.01 799.391,1366.56 822.885,1339.24 846.38,1312.96 868.238,1289.38 890.097,1266.58 919.396,1237.15 948.696,1208.93 972.906,1186.45 997.116,1164.68 1019.63,1145.04 1042.14,1125.94 1070.4,1102.68 1098.66,1080.19 1124.02,1060.62 1149.37,1041.59 1207.4,999.91 1250.78,970.32 1306.27,934.236 1356.91,902.873 1414.54,868.833 1460.23,842.994 1517,812.185 1560.47,789.488 1621.76,758.707 1667.56,736.57 1719.64,712.231 1771.22,688.944 1827.97,664.202 1871.32,645.884 1926.02,623.442 1976.61,603.316 2028.79,583.158 2081.68,563.309 2136.9,543.176 2180.4,527.72 2279.47,493.764 2290.59,490.056 "/>
<path clip-path="url(#clip010)" d="M1714.49 1438.47 L2279.53 1438.47 L2279.53 1208.27 L1714.49 1208.27  Z" fill="#ffffff" fill-rule="evenodd" fill-opacity="1"/>
<polyline clip-path="url(#clip010)" style="stroke:#000000; stroke-linecap:round; stroke-linejoin:round; stroke-width:4; stroke-opacity:1; fill:none" points="1714.49,1438.47 2279.53,1438.47 2279.53,1208.27 1714.49,1208.27 1714.49,1438.47 "/>
<polyline clip-path="url(#clip010)" style="stroke:#009af9; stroke-linecap:round; stroke-linejoin:round; stroke-width:4; stroke-opacity:1; fill:none" points="1738.89,1285.01 1885.34,1285.01 "/>
<path clip-path="url(#clip010)" d="M1909.74 1291.56 Q1909.74 1290.7 1909.82 1290.44 Q1909.91 1290.18 1910.28 1289.78 L1919.49 1279.52 Q1924.52 1273.86 1924.52 1268.91 Q1924.52 1265.71 1922.84 1263.41 Q1921.18 1261.11 1918.11 1261.11 Q1916 1261.11 1914.22 1262.4 Q1912.44 1263.69 1911.62 1265.99 Q1911.76 1265.94 1912.25 1265.94 Q1913.45 1265.94 1914.1 1266.69 Q1914.78 1267.44 1914.78 1268.45 Q1914.78 1269.73 1913.94 1270.37 Q1913.12 1270.98 1912.3 1270.98 Q1911.97 1270.98 1911.53 1270.91 Q1911.1 1270.83 1910.42 1270.18 Q1909.74 1269.5 1909.74 1268.31 Q1909.74 1264.96 1912.27 1262.29 Q1914.83 1259.62 1918.72 1259.62 Q1923.12 1259.62 1926 1262.24 Q1928.9 1264.84 1928.9 1268.91 Q1928.9 1270.34 1928.46 1271.65 Q1928.04 1272.94 1927.45 1273.95 Q1926.89 1274.96 1925.34 1276.57 Q1923.8 1278.19 1922.56 1279.34 Q1921.32 1280.48 1918.53 1282.92 L1913.45 1287.86 L1922.09 1287.86 Q1926.3 1287.86 1926.63 1287.49 Q1927.1 1286.81 1927.69 1283.23 L1928.9 1283.23 L1927.55 1291.56 L1909.74 1291.56 Z" fill="#000000" fill-rule="nonzero" fill-opacity="1" /><path clip-path="url(#clip010)" d="M1978.47 1278.89 Q1978.75 1279.17 1978.75 1279.57 Q1978.75 1279.97 1978.47 1280.25 Q1978.19 1280.53 1977.79 1280.53 L1947.76 1280.53 Q1947.36 1280.53 1947.08 1280.25 Q1946.8 1279.97 1946.8 1279.57 Q1946.8 1279.17 1947.08 1278.89 Q1947.36 1278.61 1947.76 1278.61 L1977.79 1278.61 Q1978.19 1278.61 1978.47 1278.89 Z" fill="#000000" fill-rule="nonzero" fill-opacity="1" /><path clip-path="url(#clip010)" d="M1997.05 1290.93 L1997.05 1284.61 Q1997.05 1284.07 1997.07 1283.88 Q1997.1 1283.69 1997.24 1283.55 Q1997.38 1283.41 1997.66 1283.41 Q1997.99 1283.41 1998.11 1283.55 Q1998.25 1283.69 1998.34 1284.23 Q1999.07 1287.54 2000.61 1289.29 Q2002.18 1291.03 2005.01 1291.03 Q2007.71 1291.03 2009.07 1289.83 Q2010.43 1288.64 2010.43 1286.67 Q2010.43 1283.16 2005.44 1282.27 Q2002.56 1281.68 2001.36 1281.3 Q2000.17 1280.91 1999.11 1280.04 Q1997.05 1278.35 1997.05 1275.96 Q1997.05 1273.58 1998.85 1271.82 Q2000.68 1270.06 2004.71 1270.06 Q2007.4 1270.06 2009.23 1271.42 Q2009.77 1271 2010.05 1270.65 Q2010.68 1270.06 2011.01 1270.06 Q2011.39 1270.06 2011.46 1270.32 Q2011.53 1270.55 2011.53 1271.23 L2011.53 1276.06 Q2011.53 1276.6 2011.5 1276.78 Q2011.48 1276.97 2011.34 1277.11 Q2011.2 1277.23 2010.89 1277.23 Q2010.36 1277.23 2010.33 1276.78 Q2009.96 1270.98 2004.71 1270.98 Q2001.88 1270.98 2000.61 1272.08 Q1999.35 1273.15 1999.35 1274.63 Q1999.35 1275.45 1999.72 1276.08 Q2000.12 1276.69 2000.61 1277.07 Q2001.13 1277.42 2002.06 1277.77 Q2003 1278.1 2003.56 1278.21 Q2004.15 1278.33 2005.25 1278.56 Q2009.09 1279.29 2010.71 1280.86 Q2012.72 1282.87 2012.72 1285.43 Q2012.72 1288.26 2010.8 1290.18 Q2008.88 1292.1 2005.01 1292.1 Q2001.9 1292.1 1999.72 1290.02 Q1999.44 1290.3 1999.23 1290.56 Q1999.02 1290.79 1998.93 1290.88 Q1998.85 1290.98 1998.83 1291.05 Q1998.81 1291.1 1998.76 1291.14 Q1997.8 1292.1 1997.57 1292.1 Q1997.19 1292.1 1997.12 1291.84 Q1997.05 1291.61 1997.05 1290.93 Z" fill="#000000" fill-rule="nonzero" fill-opacity="1" /><path clip-path="url(#clip010)" d="M2015.55 1281 Q2015.55 1276.48 2018.46 1273.27 Q2021.36 1270.06 2025.53 1270.06 Q2029.75 1270.06 2031.93 1272.8 Q2034.13 1275.54 2034.13 1279.48 Q2034.13 1280.2 2033.94 1280.34 Q2033.75 1280.48 2032.93 1280.48 L2019.54 1280.48 Q2019.54 1285.38 2020.99 1287.68 Q2023 1290.88 2026.4 1290.88 Q2026.87 1290.88 2027.43 1290.79 Q2027.99 1290.7 2029.14 1290.3 Q2030.29 1289.88 2031.29 1288.78 Q2032.3 1287.68 2032.89 1285.94 Q2033.03 1285.26 2033.49 1285.29 Q2034.13 1285.29 2034.13 1285.85 Q2034.13 1286.27 2033.66 1287.23 Q2033.21 1288.17 2032.35 1289.29 Q2031.48 1290.42 2029.79 1291.26 Q2028.13 1292.1 2026.12 1292.1 Q2021.9 1292.1 2018.72 1288.92 Q2015.55 1285.71 2015.55 1281 M2019.58 1279.48 L2030.97 1279.48 Q2030.97 1278.47 2030.78 1277.35 Q2030.61 1276.22 2030.1 1274.68 Q2029.61 1273.11 2028.44 1272.12 Q2027.26 1271.14 2025.53 1271.14 Q2024.76 1271.14 2023.92 1271.47 Q2023.1 1271.8 2022.09 1272.59 Q2021.08 1273.39 2020.38 1275.19 Q2019.68 1277 2019.58 1279.48 Z" fill="#000000" fill-rule="nonzero" fill-opacity="1" /><path clip-path="url(#clip010)" d="M2035.68 1291.56 L2035.68 1290.09 Q2038.23 1290.09 2038.81 1289.78 Q2039.4 1289.46 2039.4 1287.91 L2039.4 1275.05 Q2039.4 1273.27 2038.77 1272.83 Q2038.16 1272.38 2035.68 1272.38 L2035.68 1270.88 L2042.42 1270.37 L2042.42 1275.4 Q2044.67 1270.37 2049.52 1270.37 Q2053.13 1270.37 2054.55 1272.15 Q2055.61 1273.34 2055.82 1274.68 Q2056.05 1276.01 2056.05 1279.48 L2056.05 1288.64 Q2056.1 1289.64 2056.87 1289.88 Q2057.65 1290.09 2059.8 1290.09 L2059.8 1291.56 Q2054.91 1291.42 2054.41 1291.42 Q2054.04 1291.42 2049 1291.56 L2049 1290.09 Q2051.56 1290.09 2052.14 1289.78 Q2052.75 1289.46 2052.75 1287.91 L2052.75 1276.74 Q2052.75 1274.3 2052 1272.87 Q2051.25 1271.42 2049.19 1271.42 Q2046.71 1271.42 2044.72 1273.51 Q2042.73 1275.59 2042.73 1279.1 L2042.73 1287.91 Q2042.73 1289.46 2043.31 1289.78 Q2043.92 1290.09 2046.45 1290.09 L2046.45 1291.56 Q2041.56 1291.42 2041.09 1291.42 Q2040.71 1291.42 2035.68 1291.56 Z" fill="#000000" fill-rule="nonzero" fill-opacity="1" /><path clip-path="url(#clip010)" d="M2062.02 1284.81 Q2062.02 1271.72 2066.9 1261.17 Q2068.99 1256.74 2071.9 1253.03 Q2074.81 1249.33 2076.74 1247.7 Q2078.67 1246.07 2079.2 1246.07 Q2079.96 1246.07 2080 1246.83 Q2080 1247.21 2078.97 1248.15 Q2066.49 1260.86 2066.53 1284.81 Q2066.53 1308.84 2078.67 1321.06 Q2080 1322.38 2080 1322.8 Q2080 1323.56 2079.2 1323.56 Q2078.67 1323.56 2076.82 1322.01 Q2074.96 1320.45 2072.09 1316.9 Q2069.21 1313.34 2067.13 1308.99 Q2062.02 1298.43 2062.02 1284.81 Z" fill="#000000" fill-rule="nonzero" fill-opacity="1" /><path clip-path="url(#clip010)" d="M2131.02 1249.59 Q2131.02 1250.91 2130.2 1251.66 Q2129.38 1252.38 2128.45 1252.38 Q2127.56 1252.38 2127.09 1251.87 Q2126.62 1251.35 2126.62 1250.7 Q2126.62 1249.81 2127.28 1249.03 Q2127.93 1248.26 2128.92 1248.1 Q2127.96 1247.49 2126.53 1247.49 Q2125.59 1247.49 2124.77 1247.98 Q2123.97 1248.47 2123.48 1249.1 Q2123.01 1249.73 2122.59 1250.65 Q2122.19 1251.54 2122.03 1252.08 Q2121.89 1252.59 2121.77 1253.15 L2120.13 1259.71 Q2119.34 1262.83 2119.34 1263.93 Q2119.34 1265.29 2119.99 1266.2 Q2120.65 1267.09 2121.96 1267.09 Q2122.47 1267.09 2123.06 1266.95 Q2123.65 1266.79 2124.4 1266.36 Q2125.17 1265.92 2125.85 1265.26 Q2126.55 1264.58 2127.23 1263.44 Q2127.91 1262.29 2128.35 1260.81 Q2128.49 1260.3 2128.96 1260.3 Q2129.55 1260.3 2129.55 1260.77 Q2129.55 1261.17 2129.22 1262.01 Q2128.92 1262.83 2128.24 1263.91 Q2127.58 1264.96 2126.71 1265.92 Q2125.85 1266.86 2124.56 1267.51 Q2123.27 1268.17 2121.87 1268.17 Q2119.85 1268.17 2118.52 1267.09 Q2117.18 1266.01 2116.69 1264.51 Q2116.57 1264.73 2116.41 1265.01 Q2116.24 1265.29 2115.75 1265.92 Q2115.28 1266.53 2114.75 1267 Q2114.21 1267.44 2113.36 1267.79 Q2112.54 1268.17 2111.65 1268.17 Q2110.53 1268.17 2109.52 1267.84 Q2108.54 1267.51 2107.84 1266.76 Q2107.13 1266.01 2107.13 1264.98 Q2107.13 1263.84 2107.91 1263.04 Q2108.7 1262.22 2109.78 1262.22 Q2110.46 1262.22 2111 1262.62 Q2111.56 1263.02 2111.56 1263.88 Q2111.56 1264.84 2110.9 1265.57 Q2110.25 1266.29 2109.31 1266.48 Q2110.27 1267.09 2111.7 1267.09 Q2113.25 1267.09 2114.46 1265.73 Q2115.68 1264.37 2116.27 1262.1 Q2117.72 1256.64 2118.28 1254.21 Q2118.84 1251.75 2118.84 1250.7 Q2118.84 1249.71 2118.59 1249.03 Q2118.33 1248.35 2117.88 1248.05 Q2117.46 1247.72 2117.06 1247.6 Q2116.69 1247.49 2116.27 1247.49 Q2115.57 1247.49 2114.77 1247.77 Q2114 1248.05 2113.06 1248.7 Q2112.15 1249.34 2111.28 1250.65 Q2110.41 1251.96 2109.83 1253.76 Q2109.71 1254.3 2109.19 1254.3 Q2108.63 1254.28 2108.63 1253.81 Q2108.63 1253.41 2108.94 1252.59 Q2109.26 1251.75 2109.92 1250.7 Q2110.6 1249.64 2111.47 1248.7 Q2112.36 1247.74 2113.64 1247.09 Q2114.96 1246.43 2116.36 1246.43 Q2116.99 1246.43 2117.6 1246.57 Q2118.24 1246.69 2118.98 1247.04 Q2119.76 1247.39 2120.44 1248.17 Q2121.12 1248.94 2121.54 1250.06 Q2121.82 1249.52 2122.19 1249.01 Q2122.59 1248.49 2123.2 1247.86 Q2123.83 1247.21 2124.7 1246.83 Q2125.59 1246.43 2126.57 1246.43 Q2127.53 1246.43 2128.47 1246.69 Q2129.41 1246.92 2130.2 1247.7 Q2131.02 1248.45 2131.02 1249.59 Z" fill="#000000" fill-rule="nonzero" fill-opacity="1" /><path clip-path="url(#clip010)" d="M2107.13 1280.96 L2135.91 1280.96 L2135.91 1278.4 L2107.13 1278.4  Z" fill="#000000" fill-rule="evenodd" fill-opacity="1"/>
<path clip-path="url(#clip010)" d="M2108.13 1315.46 L2108.13 1313.98 L2122.87 1291.47 Q2123.24 1290.89 2123.83 1290.91 Q2124.36 1290.91 2124.48 1291.12 Q2124.6 1291.33 2124.6 1292.15 L2124.6 1313.98 L2129.4 1313.98 L2129.4 1315.46 L2124.6 1315.46 L2124.6 1319.63 Q2124.6 1321.01 2125.16 1321.45 Q2125.75 1321.9 2128.23 1321.9 L2129.24 1321.9 L2129.24 1323.37 Q2127.27 1323.23 2122.73 1323.23 Q2118.2 1323.23 2116.24 1323.37 L2116.24 1321.9 L2117.24 1321.9 Q2119.73 1321.9 2120.31 1321.48 Q2120.9 1321.03 2120.9 1319.63 L2120.9 1315.46 L2108.13 1315.46 M2109.49 1313.98 L2121.18 1313.98 L2121.18 1296.09 L2109.49 1313.98 Z" fill="#000000" fill-rule="nonzero" fill-opacity="1" /><path clip-path="url(#clip010)" d="M2186 1278.89 Q2186.28 1279.17 2186.28 1279.57 Q2186.28 1279.97 2186 1280.25 Q2185.72 1280.53 2185.32 1280.53 L2155.29 1280.53 Q2154.9 1280.53 2154.62 1280.25 Q2154.33 1279.97 2154.33 1279.57 Q2154.33 1279.17 2154.62 1278.89 Q2154.9 1278.61 2155.29 1278.61 L2185.32 1278.61 Q2185.72 1278.61 2186 1278.89 Z" fill="#000000" fill-rule="nonzero" fill-opacity="1" /><path clip-path="url(#clip010)" d="M2204.59 1264.18 L2204.59 1262.68 Q2210.35 1262.68 2213.32 1259.62 Q2214.14 1259.62 2214.28 1259.8 Q2214.42 1259.99 2214.42 1260.86 L2214.42 1287.77 Q2214.42 1289.2 2215.13 1289.64 Q2215.83 1290.09 2218.9 1290.09 L2220.42 1290.09 L2220.42 1291.56 Q2218.73 1291.42 2212.64 1291.42 Q2206.55 1291.42 2204.89 1291.56 L2204.89 1290.09 L2206.41 1290.09 Q2209.43 1290.09 2210.16 1289.67 Q2210.89 1289.22 2210.89 1287.77 L2210.89 1262.92 Q2208.38 1264.18 2204.59 1264.18 Z" fill="#000000" fill-rule="nonzero" fill-opacity="1" /><path clip-path="url(#clip010)" d="M2225.38 1322.8 Q2225.38 1322.42 2226.36 1321.48 Q2238.85 1308.76 2238.85 1284.81 Q2238.85 1260.79 2226.85 1248.64 Q2225.38 1247.24 2225.38 1246.83 Q2225.38 1246.07 2226.13 1246.07 Q2226.66 1246.07 2228.52 1247.62 Q2230.41 1249.17 2233.25 1252.73 Q2236.12 1256.29 2238.24 1260.64 Q2243.35 1271.19 2243.35 1284.81 Q2243.35 1297.9 2238.47 1308.46 Q2236.39 1312.89 2233.47 1316.6 Q2230.56 1320.3 2228.63 1321.93 Q2226.7 1323.56 2226.13 1323.56 Q2225.38 1323.56 2225.38 1322.8 Z" fill="#000000" fill-rule="nonzero" fill-opacity="1" /><polyline clip-path="url(#clip010)" style="stroke:#e26f46; stroke-linecap:round; stroke-linejoin:round; stroke-width:4; stroke-opacity:1; fill:none" points="1738.89,1361.74 1885.34,1361.74 "/>
<path clip-path="url(#clip010)" d="M1909.74 1372.91 L1909.74 1371.43 Q1912.3 1371.43 1912.88 1371.13 Q1913.47 1370.8 1913.47 1369.25 L1913.47 1344.31 Q1913.47 1342.53 1912.84 1342.08 Q1912.23 1341.64 1909.74 1341.64 L1909.74 1340.14 L1916.63 1339.62 L1916.63 1369.25 Q1916.63 1370.8 1917.24 1371.13 Q1917.85 1371.43 1920.38 1371.43 L1920.38 1372.91 Q1919.79 1372.91 1918.58 1372.86 Q1917.36 1372.81 1916.47 1372.79 Q1915.58 1372.77 1915.06 1372.77 Q1914.5 1372.77 1909.74 1372.91 Z" fill="#000000" fill-rule="nonzero" fill-opacity="1" /><path clip-path="url(#clip010)" d="M1927.59 1370.33 Q1924.43 1367.19 1924.43 1362.65 Q1924.43 1358.08 1927.52 1354.76 Q1930.64 1351.41 1935.09 1351.41 Q1939.45 1351.41 1942.56 1354.73 Q1945.7 1358.03 1945.7 1362.65 Q1945.7 1367.17 1942.54 1370.31 Q1939.4 1373.45 1935.04 1373.45 Q1930.78 1373.45 1927.59 1370.33 M1928.41 1362.25 Q1928.41 1366.91 1929.63 1369.02 Q1931.51 1372.23 1935.09 1372.23 Q1936.87 1372.23 1938.34 1371.27 Q1939.84 1370.31 1940.66 1368.69 Q1941.72 1366.58 1941.72 1362.25 Q1941.72 1357.64 1940.45 1355.6 Q1938.58 1352.48 1935.04 1352.48 Q1933.5 1352.48 1931.97 1353.3 Q1930.47 1354.1 1929.56 1355.69 Q1928.41 1357.8 1928.41 1362.25 Z" fill="#000000" fill-rule="nonzero" fill-opacity="1" /><path clip-path="url(#clip010)" d="M1946.45 1376.7 Q1946.45 1375.16 1947.62 1373.82 Q1948.82 1372.49 1950.88 1371.9 Q1948.77 1370.57 1948.77 1367.64 Q1948.77 1365.39 1950.25 1363.66 Q1948 1361.78 1948 1358.71 Q1948 1355.88 1950.25 1353.8 Q1952.5 1351.71 1955.78 1351.71 Q1958.66 1351.71 1960.86 1353.44 Q1963.15 1351.2 1965.94 1351.17 Q1967.18 1351.17 1967.77 1351.94 Q1968.38 1352.72 1968.38 1353.54 Q1968.38 1354.26 1967.91 1354.62 Q1967.46 1354.97 1967 1354.97 Q1966.41 1354.97 1965.99 1354.59 Q1965.59 1354.19 1965.59 1353.58 Q1965.59 1352.58 1966.36 1352.27 Q1966.22 1352.23 1965.89 1352.23 Q1963.55 1352.23 1961.56 1354.1 Q1963.53 1355.93 1963.53 1358.76 Q1963.53 1361.59 1961.28 1363.68 Q1959.03 1365.76 1955.78 1365.76 Q1953.08 1365.76 1951.02 1364.27 Q1950.2 1365.23 1950.2 1366.54 Q1950.2 1367.73 1950.93 1368.67 Q1951.65 1369.61 1952.75 1369.75 Q1953.08 1369.79 1956.34 1369.79 Q1958.26 1369.79 1959.31 1369.84 Q1960.37 1369.89 1961.87 1370.21 Q1963.39 1370.52 1964.58 1371.13 Q1967.7 1372.86 1967.72 1376.61 Q1967.72 1379.35 1964.56 1381.06 Q1961.42 1382.79 1957.06 1382.79 Q1952.66 1382.79 1949.55 1381.04 Q1946.45 1379.3 1946.45 1376.7 M1948.96 1376.7 Q1948.96 1378.67 1951.28 1380.17 Q1953.6 1381.69 1957.11 1381.69 Q1960.55 1381.69 1962.87 1380.19 Q1965.21 1378.72 1965.21 1376.7 Q1965.21 1375.27 1964.4 1374.36 Q1963.58 1373.45 1961.89 1373.07 Q1960.23 1372.72 1959.05 1372.65 Q1957.88 1372.58 1955.73 1372.58 L1952.89 1372.58 Q1951.26 1372.67 1950.11 1373.87 Q1948.96 1375.06 1948.96 1376.7 M1951.58 1358.76 Q1951.58 1364.66 1955.78 1364.66 Q1957.88 1364.66 1959.17 1362.74 Q1959.94 1361.45 1959.94 1358.71 Q1959.94 1352.81 1955.78 1352.81 Q1953.67 1352.81 1952.36 1354.73 Q1951.58 1356.02 1951.58 1358.76 Z" fill="#000000" fill-rule="nonzero" fill-opacity="1" /><path clip-path="url(#clip010)" d="M1973.28 1386.2 Q1973.28 1385.59 1973.33 1385.41 Q1973.39 1385.23 1973.65 1384.95 L1980.1 1377.77 Q1983.62 1373.8 1983.62 1370.34 Q1983.62 1368.1 1982.44 1366.49 Q1981.28 1364.88 1979.13 1364.88 Q1977.65 1364.88 1976.41 1365.78 Q1975.16 1366.69 1974.59 1368.29 Q1974.69 1368.26 1975.03 1368.26 Q1975.87 1368.26 1976.33 1368.78 Q1976.8 1369.31 1976.8 1370.01 Q1976.8 1370.92 1976.21 1371.36 Q1975.64 1371.79 1975.06 1371.79 Q1974.83 1371.79 1974.52 1371.74 Q1974.23 1371.69 1973.75 1371.23 Q1973.28 1370.75 1973.28 1369.92 Q1973.28 1367.57 1975.05 1365.7 Q1976.83 1363.83 1979.56 1363.83 Q1982.64 1363.83 1984.66 1365.67 Q1986.69 1367.49 1986.69 1370.34 Q1986.69 1371.34 1986.38 1372.26 Q1986.08 1373.16 1985.67 1373.87 Q1985.28 1374.57 1984.2 1375.7 Q1983.11 1376.84 1982.25 1377.64 Q1981.38 1378.44 1979.43 1380.15 L1975.87 1383.61 L1981.92 1383.61 Q1984.87 1383.61 1985.1 1383.34 Q1985.43 1382.87 1985.84 1380.36 L1986.69 1380.36 L1985.74 1386.2 L1973.28 1386.2 Z" fill="#000000" fill-rule="nonzero" fill-opacity="1" /><path clip-path="url(#clip010)" d="M1991.67 1360.92 Q1991.67 1352.81 1994.7 1346.28 Q1995.98 1343.54 1997.79 1341.24 Q1999.59 1338.95 2000.79 1337.94 Q2001.98 1336.93 2002.31 1336.93 Q2002.78 1336.93 2002.8 1337.4 Q2002.8 1337.63 2002.17 1338.22 Q1994.44 1346.09 1994.46 1360.92 Q1994.46 1375.79 2001.98 1383.35 Q2002.8 1384.17 2002.8 1384.43 Q2002.8 1384.9 2002.31 1384.9 Q2001.98 1384.9 2000.83 1383.94 Q1999.69 1382.98 1997.91 1380.78 Q1996.13 1378.58 1994.84 1375.88 Q1991.67 1369.35 1991.67 1360.92 Z" fill="#000000" fill-rule="nonzero" fill-opacity="1" /><path clip-path="url(#clip010)" d="M2030.33 1354.87 Q2030.33 1356.18 2029.51 1356.93 Q2028.69 1357.66 2027.76 1357.66 Q2026.87 1357.66 2026.4 1357.14 Q2025.93 1356.63 2025.93 1355.97 Q2025.93 1355.08 2026.59 1354.31 Q2027.24 1353.54 2028.23 1353.37 Q2027.26 1352.76 2025.84 1352.76 Q2024.9 1352.76 2024.08 1353.26 Q2023.28 1353.75 2022.79 1354.38 Q2022.32 1355.01 2021.9 1355.93 Q2021.5 1356.82 2021.34 1357.36 Q2021.2 1357.87 2021.08 1358.43 L2019.44 1364.99 Q2018.65 1368.11 2018.65 1369.21 Q2018.65 1370.57 2019.3 1371.48 Q2019.96 1372.37 2021.27 1372.37 Q2021.78 1372.37 2022.37 1372.23 Q2022.96 1372.06 2023.7 1371.64 Q2024.48 1371.2 2025.16 1370.54 Q2025.86 1369.86 2026.54 1368.72 Q2027.22 1367.57 2027.66 1366.09 Q2027.8 1365.58 2028.27 1365.58 Q2028.86 1365.58 2028.86 1366.05 Q2028.86 1366.44 2028.53 1367.29 Q2028.23 1368.11 2027.55 1369.18 Q2026.89 1370.24 2026.02 1371.2 Q2025.16 1372.14 2023.87 1372.79 Q2022.58 1373.45 2021.18 1373.45 Q2019.16 1373.45 2017.83 1372.37 Q2016.49 1371.29 2016 1369.79 Q2015.88 1370 2015.72 1370.28 Q2015.55 1370.57 2015.06 1371.2 Q2014.59 1371.81 2014.05 1372.28 Q2013.52 1372.72 2012.67 1373.07 Q2011.85 1373.45 2010.96 1373.45 Q2009.84 1373.45 2008.83 1373.12 Q2007.85 1372.79 2007.15 1372.04 Q2006.44 1371.29 2006.44 1370.26 Q2006.44 1369.11 2007.22 1368.32 Q2008.01 1367.5 2009.09 1367.5 Q2009.77 1367.5 2010.31 1367.9 Q2010.87 1368.29 2010.87 1369.16 Q2010.87 1370.12 2010.21 1370.85 Q2009.56 1371.57 2008.62 1371.76 Q2009.58 1372.37 2011.01 1372.37 Q2012.56 1372.37 2013.77 1371.01 Q2014.99 1369.65 2015.58 1367.38 Q2017.03 1361.92 2017.59 1359.49 Q2018.15 1357.03 2018.15 1355.97 Q2018.15 1354.99 2017.9 1354.31 Q2017.64 1353.63 2017.19 1353.33 Q2016.77 1353 2016.37 1352.88 Q2016 1352.76 2015.58 1352.76 Q2014.87 1352.76 2014.08 1353.05 Q2013.31 1353.33 2012.37 1353.98 Q2011.45 1354.62 2010.59 1355.93 Q2009.72 1357.24 2009.14 1359.04 Q2009.02 1359.58 2008.5 1359.58 Q2007.94 1359.56 2007.94 1359.09 Q2007.94 1358.69 2008.25 1357.87 Q2008.57 1357.03 2009.23 1355.97 Q2009.91 1354.92 2010.78 1353.98 Q2011.67 1353.02 2012.95 1352.37 Q2014.27 1351.71 2015.67 1351.71 Q2016.3 1351.71 2016.91 1351.85 Q2017.54 1351.97 2018.29 1352.32 Q2019.07 1352.67 2019.75 1353.44 Q2020.43 1354.22 2020.85 1355.34 Q2021.13 1354.8 2021.5 1354.29 Q2021.9 1353.77 2022.51 1353.14 Q2023.14 1352.48 2024.01 1352.11 Q2024.9 1351.71 2025.88 1351.71 Q2026.84 1351.71 2027.78 1351.97 Q2028.72 1352.2 2029.51 1352.98 Q2030.33 1353.73 2030.33 1354.87 Z" fill="#000000" fill-rule="nonzero" fill-opacity="1" /><path clip-path="url(#clip010)" d="M2034.95 1384.43 Q2034.95 1384.2 2035.55 1383.61 Q2043.28 1375.74 2043.28 1360.92 Q2043.28 1346.04 2035.86 1338.52 Q2034.95 1337.66 2034.95 1337.4 Q2034.95 1336.93 2035.41 1336.93 Q2035.74 1336.93 2036.89 1337.89 Q2038.06 1338.85 2039.82 1341.05 Q2041.6 1343.26 2042.91 1345.95 Q2046.07 1352.48 2046.07 1360.92 Q2046.07 1369.02 2043.05 1375.55 Q2041.76 1378.3 2039.96 1380.59 Q2038.15 1382.89 2036.96 1383.89 Q2035.77 1384.9 2035.41 1384.9 Q2034.95 1384.9 2034.95 1384.43 Z" fill="#000000" fill-rule="nonzero" fill-opacity="1" /></svg>
