<?xml version="1.0" encoding="UTF-8"?>
<svg xmlns="http://www.w3.org/2000/svg" xmlns:xlink="http://www.w3.org/1999/xlink" width="600" height="400" viewBox="0 0 600 400">
<rect x="-60" y="-40" width="720" height="480" fill="rgb(100%, 100%, 100%)" fill-opacity="1"/>
<path fill-rule="evenodd" fill="rgb(100%, 100%, 100%)" fill-opacity="1" d="M 48.480469 371.609375 L 588.191406 371.609375 L 588.191406 11.808594 L 48.480469 11.808594 "/>
<path fill="none" stroke-width="0.5" stroke-linecap="round" stroke-linejoin="round" stroke="rgb(0%, 0%, 0%)" stroke-opacity="0.0980392" stroke-miterlimit="10" d="M 97.859375 28.390625 L 97.859375 388.191406 " transform="matrix(1, 0, 0, -1, 0, 400)"/>
<path fill="none" stroke-width="0.5" stroke-linecap="round" stroke-linejoin="round" stroke="rgb(0%, 0%, 0%)" stroke-opacity="0.0980392" stroke-miterlimit="10" d="M 208.101562 28.390625 L 208.101562 388.191406 " transform="matrix(1, 0, 0, -1, 0, 400)"/>
<path fill="none" stroke-width="0.5" stroke-linecap="round" stroke-linejoin="round" stroke="rgb(0%, 0%, 0%)" stroke-opacity="0.0980392" stroke-miterlimit="10" d="M 318.339844 28.390625 L 318.339844 388.191406 " transform="matrix(1, 0, 0, -1, 0, 400)"/>
<path fill="none" stroke-width="0.5" stroke-linecap="round" stroke-linejoin="round" stroke="rgb(0%, 0%, 0%)" stroke-opacity="0.0980392" stroke-miterlimit="10" d="M 428.578125 28.390625 L 428.578125 388.191406 " transform="matrix(1, 0, 0, -1, 0, 400)"/>
<path fill="none" stroke-width="0.5" stroke-linecap="round" stroke-linejoin="round" stroke="rgb(0%, 0%, 0%)" stroke-opacity="0.0980392" stroke-miterlimit="10" d="M 538.808594 28.390625 L 538.808594 388.191406 " transform="matrix(1, 0, 0, -1, 0, 400)"/>
<path fill="none" stroke-width="0.5" stroke-linecap="round" stroke-linejoin="round" stroke="rgb(0%, 0%, 0%)" stroke-opacity="0.0980392" stroke-miterlimit="10" d="M 48.480469 42.929688 L 588.191406 42.929688 " transform="matrix(1, 0, 0, -1, 0, 400)"/>
<path fill="none" stroke-width="0.5" stroke-linecap="round" stroke-linejoin="round" stroke="rgb(0%, 0%, 0%)" stroke-opacity="0.0980392" stroke-miterlimit="10" d="M 48.480469 98.050781 L 588.191406 98.050781 " transform="matrix(1, 0, 0, -1, 0, 400)"/>
<path fill="none" stroke-width="0.5" stroke-linecap="round" stroke-linejoin="round" stroke="rgb(0%, 0%, 0%)" stroke-opacity="0.0980392" stroke-miterlimit="10" d="M 48.480469 153.171875 L 588.191406 153.171875 " transform="matrix(1, 0, 0, -1, 0, 400)"/>
<path fill="none" stroke-width="0.5" stroke-linecap="round" stroke-linejoin="round" stroke="rgb(0%, 0%, 0%)" stroke-opacity="0.0980392" stroke-miterlimit="10" d="M 48.480469 208.289062 L 588.191406 208.289062 " transform="matrix(1, 0, 0, -1, 0, 400)"/>
<path fill="none" stroke-width="0.5" stroke-linecap="round" stroke-linejoin="round" stroke="rgb(0%, 0%, 0%)" stroke-opacity="0.0980392" stroke-miterlimit="10" d="M 48.480469 263.410156 L 588.191406 263.410156 " transform="matrix(1, 0, 0, -1, 0, 400)"/>
<path fill="none" stroke-width="0.5" stroke-linecap="round" stroke-linejoin="round" stroke="rgb(0%, 0%, 0%)" stroke-opacity="0.0980392" stroke-miterlimit="10" d="M 48.480469 318.519531 L 588.191406 318.519531 " transform="matrix(1, 0, 0, -1, 0, 400)"/>
<path fill="none" stroke-width="0.5" stroke-linecap="round" stroke-linejoin="round" stroke="rgb(0%, 0%, 0%)" stroke-opacity="0.0980392" stroke-miterlimit="10" d="M 48.480469 373.640625 L 588.191406 373.640625 " transform="matrix(1, 0, 0, -1, 0, 400)"/>
<path fill="none" stroke-width="1" stroke-linecap="round" stroke-linejoin="round" stroke="rgb(0%, 0%, 0%)" stroke-opacity="1" stroke-miterlimit="10" d="M 48.480469 28.390625 L 588.191406 28.390625 " transform="matrix(1, 0, 0, -1, 0, 400)"/>
<path fill="none" stroke-width="1" stroke-linecap="round" stroke-linejoin="round" stroke="rgb(0%, 0%, 0%)" stroke-opacity="1" stroke-miterlimit="10" d="M 97.859375 28.390625 L 97.859375 33.109375 " transform="matrix(1, 0, 0, -1, 0, 400)"/>
<path fill="none" stroke-width="1" stroke-linecap="round" stroke-linejoin="round" stroke="rgb(0%, 0%, 0%)" stroke-opacity="1" stroke-miterlimit="10" d="M 208.101562 28.390625 L 208.101562 33.109375 " transform="matrix(1, 0, 0, -1, 0, 400)"/>
<path fill="none" stroke-width="1" stroke-linecap="round" stroke-linejoin="round" stroke="rgb(0%, 0%, 0%)" stroke-opacity="1" stroke-miterlimit="10" d="M 318.339844 28.390625 L 318.339844 33.109375 " transform="matrix(1, 0, 0, -1, 0, 400)"/>
<path fill="none" stroke-width="1" stroke-linecap="round" stroke-linejoin="round" stroke="rgb(0%, 0%, 0%)" stroke-opacity="1" stroke-miterlimit="10" d="M 428.578125 28.390625 L 428.578125 33.109375 " transform="matrix(1, 0, 0, -1, 0, 400)"/>
<path fill="none" stroke-width="1" stroke-linecap="round" stroke-linejoin="round" stroke="rgb(0%, 0%, 0%)" stroke-opacity="1" stroke-miterlimit="10" d="M 538.808594 28.390625 L 538.808594 33.109375 " transform="matrix(1, 0, 0, -1, 0, 400)"/>
<path fill-rule="nonzero" fill="rgb(0%, 0%, 0%)" fill-opacity="1" d="M 90.351562 383 L 97.769531 383 L 97.769531 383.988281 L 90.351562 383.988281 Z M 90.351562 383 "/>
<path fill-rule="nonzero" fill="rgb(0%, 0%, 0%)" fill-opacity="1" d="M 101.300781 386.230469 L 105.378906 386.230469 L 105.378906 387.210938 L 99.890625 387.210938 L 99.890625 386.230469 C 99.890625 386.230469 100.558594 385.539062 101.699219 384.378906 C 101.699219 384.378906 102.859375 383.21875 103.148438 382.878906 C 103.148438 382.878906 103.710938 382.25 103.929688 381.820312 C 103.929688 381.820312 104.160156 381.378906 104.160156 380.960938 C 104.160156 380.960938 104.160156 380.269531 103.671875 379.828125 C 103.671875 379.828125 103.191406 379.398438 102.421875 379.398438 C 102.421875 379.398438 101.871094 379.398438 101.25 379.589844 C 101.25 379.589844 100.648438 379.78125 99.949219 380.171875 L 99.949219 378.988281 C 99.949219 378.988281 100.660156 378.710938 101.269531 378.558594 C 101.269531 378.558594 101.878906 378.421875 102.390625 378.421875 C 102.390625 378.421875 103.738281 378.421875 104.53125 379.089844 C 104.53125 379.089844 105.328125 379.761719 105.328125 380.878906 C 105.328125 380.878906 105.328125 381.410156 105.128906 381.890625 C 105.128906 381.890625 104.929688 382.371094 104.410156 383.019531 C 104.410156 383.019531 104.261719 383.179688 103.488281 383.988281 C 103.488281 383.988281 102.710938 384.789062 101.300781 386.230469 Z M 101.300781 386.230469 "/>
<path fill-rule="nonzero" fill="rgb(0%, 0%, 0%)" fill-opacity="1" d="M 200.539062 383 L 207.960938 383 L 207.960938 383.988281 L 200.539062 383.988281 Z M 200.539062 383 "/>
<path fill-rule="nonzero" fill="rgb(0%, 0%, 0%)" fill-opacity="1" d="M 210.691406 386.230469 L 212.601562 386.230469 L 212.601562 379.640625 L 210.519531 380.050781 L 210.519531 378.988281 L 212.578125 378.570312 L 213.75 378.570312 L 213.75 386.230469 L 215.660156 386.230469 L 215.660156 387.210938 L 210.691406 387.210938 Z M 210.691406 386.230469 "/>
<path fill-rule="nonzero" fill="rgb(0%, 0%, 0%)" fill-opacity="1" d="M 318.339844 379.339844 C 318.339844 379.339844 317.441406 379.339844 316.980469 380.230469 C 316.980469 380.230469 316.53125 381.121094 316.53125 382.898438 C 316.53125 382.898438 316.53125 384.679688 316.980469 385.570312 C 316.980469 385.570312 317.441406 386.449219 318.339844 386.449219 C 318.339844 386.449219 319.25 386.449219 319.699219 385.570312 C 319.699219 385.570312 320.160156 384.679688 320.160156 382.898438 C 320.160156 382.898438 320.160156 381.121094 319.699219 380.230469 C 319.699219 380.230469 319.25 379.339844 318.339844 379.339844 M 318.339844 378.421875 C 318.339844 378.421875 319.789062 378.421875 320.558594 379.570312 C 320.558594 379.570312 321.328125 380.710938 321.328125 382.898438 C 321.328125 382.898438 321.328125 385.078125 320.558594 386.230469 C 320.558594 386.230469 319.789062 387.378906 318.339844 387.378906 C 318.339844 387.378906 316.890625 387.378906 316.121094 386.230469 C 316.121094 386.230469 315.351562 385.078125 315.351562 382.898438 C 315.351562 382.898438 315.351562 380.710938 316.121094 379.570312 C 316.121094 379.570312 316.890625 378.421875 318.339844 378.421875 Z M 318.339844 378.421875 "/>
<path fill-rule="nonzero" fill="rgb(0%, 0%, 0%)" fill-opacity="1" d="M 426.171875 386.230469 L 428.078125 386.230469 L 428.078125 379.640625 L 426 380.050781 L 426 378.988281 L 428.070312 378.570312 L 429.238281 378.570312 L 429.238281 386.230469 L 431.148438 386.230469 L 431.148438 387.210938 L 426.171875 387.210938 Z M 426.171875 386.230469 "/>
<path fill-rule="nonzero" fill="rgb(0%, 0%, 0%)" fill-opacity="1" d="M 537.480469 386.230469 L 541.558594 386.230469 L 541.558594 387.210938 L 536.070312 387.210938 L 536.070312 386.230469 C 536.070312 386.230469 536.738281 385.539062 537.878906 384.378906 C 537.878906 384.378906 539.03125 383.21875 539.328125 382.878906 C 539.328125 382.878906 539.890625 382.25 540.109375 381.820312 C 540.109375 381.820312 540.339844 381.378906 540.339844 380.960938 C 540.339844 380.960938 540.339844 380.269531 539.851562 379.828125 C 539.851562 379.828125 539.371094 379.398438 538.589844 379.398438 C 538.589844 379.398438 538.039062 379.398438 537.429688 379.589844 C 537.429688 379.589844 536.820312 379.78125 536.128906 380.171875 L 536.128906 378.988281 C 536.128906 378.988281 536.828125 378.710938 537.449219 378.558594 C 537.449219 378.558594 538.058594 378.421875 538.570312 378.421875 C 538.570312 378.421875 539.910156 378.421875 540.710938 379.089844 C 540.710938 379.089844 541.511719 379.761719 541.511719 380.878906 C 541.511719 380.878906 541.511719 381.410156 541.308594 381.890625 C 541.308594 381.890625 541.109375 382.371094 540.578125 383.019531 C 540.578125 383.019531 540.441406 383.179688 539.660156 383.988281 C 539.660156 383.988281 538.890625 384.789062 537.480469 386.230469 Z M 537.480469 386.230469 "/>
<path fill="none" stroke-width="1" stroke-linecap="round" stroke-linejoin="round" stroke="rgb(0%, 0%, 0%)" stroke-opacity="1" stroke-miterlimit="10" d="M 48.480469 28.390625 L 48.480469 388.191406 " transform="matrix(1, 0, 0, -1, 0, 400)"/>
<path fill="none" stroke-width="1" stroke-linecap="round" stroke-linejoin="round" stroke="rgb(0%, 0%, 0%)" stroke-opacity="1" stroke-miterlimit="10" d="M 48.480469 42.929688 L 53.210938 42.929688 " transform="matrix(1, 0, 0, -1, 0, 400)"/>
<path fill="none" stroke-width="1" stroke-linecap="round" stroke-linejoin="round" stroke="rgb(0%, 0%, 0%)" stroke-opacity="1" stroke-miterlimit="10" d="M 48.480469 98.050781 L 53.210938 98.050781 " transform="matrix(1, 0, 0, -1, 0, 400)"/>
<path fill="none" stroke-width="1" stroke-linecap="round" stroke-linejoin="round" stroke="rgb(0%, 0%, 0%)" stroke-opacity="1" stroke-miterlimit="10" d="M 48.480469 153.171875 L 53.210938 153.171875 " transform="matrix(1, 0, 0, -1, 0, 400)"/>
<path fill="none" stroke-width="1" stroke-linecap="round" stroke-linejoin="round" stroke="rgb(0%, 0%, 0%)" stroke-opacity="1" stroke-miterlimit="10" d="M 48.480469 208.289062 L 53.210938 208.289062 " transform="matrix(1, 0, 0, -1, 0, 400)"/>
<path fill="none" stroke-width="1" stroke-linecap="round" stroke-linejoin="round" stroke="rgb(0%, 0%, 0%)" stroke-opacity="1" stroke-miterlimit="10" d="M 48.480469 263.410156 L 53.210938 263.410156 " transform="matrix(1, 0, 0, -1, 0, 400)"/>
<path fill="none" stroke-width="1" stroke-linecap="round" stroke-linejoin="round" stroke="rgb(0%, 0%, 0%)" stroke-opacity="1" stroke-miterlimit="10" d="M 48.480469 318.519531 L 53.210938 318.519531 " transform="matrix(1, 0, 0, -1, 0, 400)"/>
<path fill="none" stroke-width="1" stroke-linecap="round" stroke-linejoin="round" stroke="rgb(0%, 0%, 0%)" stroke-opacity="1" stroke-miterlimit="10" d="M 48.480469 373.640625 L 53.210938 373.640625 " transform="matrix(1, 0, 0, -1, 0, 400)"/>
<path fill-rule="nonzero" fill="rgb(0%, 0%, 0%)" fill-opacity="1" d="M 13 357.179688 L 20.421875 357.179688 L 20.421875 358.160156 L 13 358.160156 Z M 13 357.179688 "/>
<path fill-rule="nonzero" fill="rgb(0%, 0%, 0%)" fill-opacity="1" d="M 23.140625 360.398438 L 25.050781 360.398438 L 25.050781 353.808594 L 22.96875 354.230469 L 22.96875 353.160156 L 25.039062 352.75 L 26.210938 352.75 L 26.210938 360.398438 L 28.121094 360.398438 L 28.121094 361.390625 L 23.140625 361.390625 Z M 23.140625 360.398438 "/>
<path fill-rule="nonzero" fill="rgb(0%, 0%, 0%)" fill-opacity="1" d="M 30.480469 359.921875 L 31.699219 359.921875 L 31.699219 361.390625 L 30.480469 361.390625 Z M 30.480469 359.921875 "/>
<path fill-rule="nonzero" fill="rgb(0%, 0%, 0%)" fill-opacity="1" d="M 34.261719 352.75 L 38.851562 352.75 L 38.851562 353.730469 L 35.328125 353.730469 L 35.328125 355.851562 C 35.328125 355.851562 35.578125 355.761719 35.839844 355.71875 C 35.839844 355.71875 36.089844 355.679688 36.351562 355.679688 C 36.351562 355.679688 37.789062 355.679688 38.640625 356.46875 C 38.640625 356.46875 39.480469 357.261719 39.480469 358.621094 C 39.480469 358.621094 39.480469 360.011719 38.621094 360.789062 C 38.621094 360.789062 37.75 361.558594 36.171875 361.558594 C 36.171875 361.558594 35.621094 361.558594 35.058594 361.460938 C 35.058594 361.460938 34.5 361.371094 33.890625 361.191406 L 33.890625 360.011719 C 33.890625 360.011719 34.410156 360.289062 34.96875 360.429688 C 34.96875 360.429688 35.53125 360.570312 36.140625 360.570312 C 36.140625 360.570312 37.148438 360.570312 37.730469 360.050781 C 37.730469 360.050781 38.320312 359.519531 38.320312 358.621094 C 38.320312 358.621094 38.320312 357.710938 37.730469 357.191406 C 37.730469 357.191406 37.148438 356.660156 36.140625 356.660156 C 36.140625 356.660156 35.679688 356.660156 35.210938 356.761719 C 35.210938 356.761719 34.738281 356.871094 34.261719 357.089844 Z M 34.261719 352.75 "/>
<path fill-rule="nonzero" fill="rgb(0%, 0%, 0%)" fill-opacity="1" d="M 12.75 302.058594 L 20.171875 302.058594 L 20.171875 303.050781 L 12.75 303.050781 Z M 12.75 302.058594 "/>
<path fill-rule="nonzero" fill="rgb(0%, 0%, 0%)" fill-opacity="1" d="M 22.890625 305.289062 L 24.800781 305.289062 L 24.800781 298.691406 L 22.71875 299.109375 L 22.71875 298.050781 L 24.789062 297.628906 L 25.960938 297.628906 L 25.960938 305.289062 L 27.871094 305.289062 L 27.871094 306.269531 L 22.890625 306.269531 Z M 22.890625 305.289062 "/>
<path fill-rule="nonzero" fill="rgb(0%, 0%, 0%)" fill-opacity="1" d="M 30.230469 304.800781 L 31.449219 304.800781 L 31.449219 306.269531 L 30.230469 306.269531 Z M 30.230469 304.800781 "/>
<path fill-rule="nonzero" fill="rgb(0%, 0%, 0%)" fill-opacity="1" d="M 36.5 298.398438 C 36.5 298.398438 35.601562 298.398438 35.140625 299.289062 C 35.140625 299.289062 34.691406 300.179688 34.691406 301.960938 C 34.691406 301.960938 34.691406 303.738281 35.140625 304.628906 C 35.140625 304.628906 35.601562 305.511719 36.5 305.511719 C 36.5 305.511719 37.410156 305.511719 37.859375 304.628906 C 37.859375 304.628906 38.320312 303.738281 38.320312 301.960938 C 38.320312 301.960938 38.320312 300.179688 37.859375 299.289062 C 37.859375 299.289062 37.410156 298.398438 36.5 298.398438 M 36.5 297.46875 C 36.5 297.46875 37.949219 297.46875 38.710938 298.628906 C 38.710938 298.628906 39.480469 299.769531 39.480469 301.960938 C 39.480469 301.960938 39.480469 304.140625 38.710938 305.289062 C 38.710938 305.289062 37.949219 306.441406 36.5 306.441406 C 36.5 306.441406 35.050781 306.441406 34.28125 305.289062 C 34.28125 305.289062 33.511719 304.140625 33.511719 301.960938 C 33.511719 301.960938 33.511719 299.769531 34.28125 298.628906 C 34.28125 298.628906 35.050781 297.46875 36.5 297.46875 Z M 36.5 297.46875 "/>
<path fill-rule="nonzero" fill="rgb(0%, 0%, 0%)" fill-opacity="1" d="M 13 246.941406 L 20.421875 246.941406 L 20.421875 247.929688 L 13 247.929688 Z M 13 246.941406 "/>
<path fill-rule="nonzero" fill="rgb(0%, 0%, 0%)" fill-opacity="1" d="M 25.441406 243.28125 C 25.441406 243.28125 24.539062 243.28125 24.078125 244.171875 C 24.078125 244.171875 23.628906 245.058594 23.628906 246.839844 C 23.628906 246.839844 23.628906 248.621094 24.078125 249.511719 C 24.078125 249.511719 24.539062 250.390625 25.441406 250.390625 C 25.441406 250.390625 26.351562 250.390625 26.800781 249.511719 C 26.800781 249.511719 27.261719 248.621094 27.261719 246.839844 C 27.261719 246.839844 27.261719 245.058594 26.800781 244.171875 C 26.800781 244.171875 26.351562 243.28125 25.441406 243.28125 M 25.441406 242.359375 C 25.441406 242.359375 26.890625 242.359375 27.660156 243.511719 C 27.660156 243.511719 28.429688 244.648438 28.429688 246.839844 C 28.429688 246.839844 28.429688 249.019531 27.660156 250.171875 C 27.660156 250.171875 26.890625 251.320312 25.441406 251.320312 C 25.441406 251.320312 23.988281 251.320312 23.21875 250.171875 C 23.21875 250.171875 22.449219 249.019531 22.449219 246.839844 C 22.449219 246.839844 22.449219 244.648438 23.21875 243.511719 C 23.21875 243.511719 23.988281 242.359375 25.441406 242.359375 Z M 25.441406 242.359375 "/>
<path fill-rule="nonzero" fill="rgb(0%, 0%, 0%)" fill-opacity="1" d="M 30.480469 249.679688 L 31.699219 249.679688 L 31.699219 251.148438 L 30.480469 251.148438 Z M 30.480469 249.679688 "/>
<path fill-rule="nonzero" fill="rgb(0%, 0%, 0%)" fill-opacity="1" d="M 34.261719 242.511719 L 38.851562 242.511719 L 38.851562 243.5 L 35.328125 243.5 L 35.328125 245.609375 C 35.328125 245.609375 35.578125 245.53125 35.839844 245.488281 C 35.839844 245.488281 36.089844 245.441406 36.351562 245.441406 C 36.351562 245.441406 37.789062 245.441406 38.640625 246.230469 C 38.640625 246.230469 39.480469 247.03125 39.480469 248.378906 C 39.480469 248.378906 39.480469 249.769531 38.621094 250.550781 C 38.621094 250.550781 37.75 251.320312 36.171875 251.320312 C 36.171875 251.320312 35.621094 251.320312 35.058594 251.230469 C 35.058594 251.230469 34.5 251.128906 33.890625 250.949219 L 33.890625 249.769531 C 33.890625 249.769531 34.410156 250.058594 34.96875 250.199219 C 34.96875 250.199219 35.53125 250.339844 36.140625 250.339844 C 36.140625 250.339844 37.148438 250.339844 37.730469 249.808594 C 37.730469 249.808594 38.320312 249.28125 38.320312 248.378906 C 38.320312 248.378906 38.320312 247.480469 37.730469 246.949219 C 37.730469 246.949219 37.148438 246.421875 36.140625 246.421875 C 36.140625 246.421875 35.679688 246.421875 35.210938 246.53125 C 35.210938 246.53125 34.738281 246.628906 34.261719 246.851562 Z M 34.261719 242.511719 "/>
<path fill-rule="nonzero" fill="rgb(0%, 0%, 0%)" fill-opacity="1" d="M 25.191406 188.160156 C 25.191406 188.160156 24.289062 188.160156 23.828125 189.050781 C 23.828125 189.050781 23.378906 189.941406 23.378906 191.71875 C 23.378906 191.71875 23.378906 193.5 23.828125 194.390625 C 23.828125 194.390625 24.289062 195.269531 25.191406 195.269531 C 25.191406 195.269531 26.101562 195.269531 26.550781 194.390625 C 26.550781 194.390625 27.011719 193.5 27.011719 191.71875 C 27.011719 191.71875 27.011719 189.941406 26.550781 189.050781 C 26.550781 189.050781 26.101562 188.160156 25.191406 188.160156 M 25.191406 187.238281 C 25.191406 187.238281 26.640625 187.238281 27.410156 188.390625 C 27.410156 188.390625 28.179688 189.53125 28.179688 191.71875 C 28.179688 191.71875 28.179688 193.898438 27.410156 195.050781 C 27.410156 195.050781 26.640625 196.199219 25.191406 196.199219 C 25.191406 196.199219 23.738281 196.199219 22.96875 195.050781 C 22.96875 195.050781 22.199219 193.898438 22.199219 191.71875 C 22.199219 191.71875 22.199219 189.53125 22.96875 188.390625 C 22.96875 188.390625 23.738281 187.238281 25.191406 187.238281 Z M 25.191406 187.238281 "/>
<path fill-rule="nonzero" fill="rgb(0%, 0%, 0%)" fill-opacity="1" d="M 30.230469 194.558594 L 31.449219 194.558594 L 31.449219 196.03125 L 30.230469 196.03125 Z M 30.230469 194.558594 "/>
<path fill-rule="nonzero" fill="rgb(0%, 0%, 0%)" fill-opacity="1" d="M 36.5 188.160156 C 36.5 188.160156 35.601562 188.160156 35.140625 189.050781 C 35.140625 189.050781 34.691406 189.941406 34.691406 191.71875 C 34.691406 191.71875 34.691406 193.5 35.140625 194.390625 C 35.140625 194.390625 35.601562 195.269531 36.5 195.269531 C 36.5 195.269531 37.410156 195.269531 37.859375 194.390625 C 37.859375 194.390625 38.320312 193.5 38.320312 191.71875 C 38.320312 191.71875 38.320312 189.941406 37.859375 189.050781 C 37.859375 189.050781 37.410156 188.160156 36.5 188.160156 M 36.5 187.238281 C 36.5 187.238281 37.949219 187.238281 38.710938 188.390625 C 38.710938 188.390625 39.480469 189.53125 39.480469 191.71875 C 39.480469 191.71875 39.480469 193.898438 38.710938 195.050781 C 38.710938 195.050781 37.949219 196.199219 36.5 196.199219 C 36.5 196.199219 35.050781 196.199219 34.28125 195.050781 C 34.28125 195.050781 33.511719 193.898438 33.511719 191.71875 C 33.511719 191.71875 33.511719 189.53125 34.28125 188.390625 C 34.28125 188.390625 35.050781 187.238281 36.5 187.238281 Z M 36.5 187.238281 "/>
<path fill-rule="nonzero" fill="rgb(0%, 0%, 0%)" fill-opacity="1" d="M 25.441406 133.039062 C 25.441406 133.039062 24.539062 133.039062 24.078125 133.941406 C 24.078125 133.941406 23.628906 134.820312 23.628906 136.601562 C 23.628906 136.601562 23.628906 138.378906 24.078125 139.269531 C 24.078125 139.269531 24.539062 140.160156 25.441406 140.160156 C 25.441406 140.160156 26.351562 140.160156 26.800781 139.269531 C 26.800781 139.269531 27.261719 138.378906 27.261719 136.601562 C 27.261719 136.601562 27.261719 134.820312 26.800781 133.941406 C 26.800781 133.941406 26.351562 133.039062 25.441406 133.039062 M 25.441406 132.121094 C 25.441406 132.121094 26.890625 132.121094 27.660156 133.269531 C 27.660156 133.269531 28.429688 134.421875 28.429688 136.601562 C 28.429688 136.601562 28.429688 138.78125 27.660156 139.941406 C 27.660156 139.941406 26.890625 141.078125 25.441406 141.078125 C 25.441406 141.078125 23.988281 141.078125 23.21875 139.941406 C 23.21875 139.941406 22.449219 138.78125 22.449219 136.601562 C 22.449219 136.601562 22.449219 134.421875 23.21875 133.269531 C 23.21875 133.269531 23.988281 132.121094 25.441406 132.121094 Z M 25.441406 132.121094 "/>
<path fill-rule="nonzero" fill="rgb(0%, 0%, 0%)" fill-opacity="1" d="M 30.480469 139.441406 L 31.699219 139.441406 L 31.699219 140.910156 L 30.480469 140.910156 Z M 30.480469 139.441406 "/>
<path fill-rule="nonzero" fill="rgb(0%, 0%, 0%)" fill-opacity="1" d="M 34.261719 132.269531 L 38.851562 132.269531 L 38.851562 133.261719 L 35.328125 133.261719 L 35.328125 135.378906 C 35.328125 135.378906 35.578125 135.289062 35.839844 135.25 C 35.839844 135.25 36.089844 135.199219 36.351562 135.199219 C 36.351562 135.199219 37.789062 135.199219 38.640625 136 C 38.640625 136 39.480469 136.789062 39.480469 138.140625 C 39.480469 138.140625 39.480469 139.539062 38.621094 140.308594 C 38.621094 140.308594 37.75 141.078125 36.171875 141.078125 C 36.171875 141.078125 35.621094 141.078125 35.058594 140.988281 C 35.058594 140.988281 34.5 140.898438 33.890625 140.710938 L 33.890625 139.539062 C 33.890625 139.539062 34.410156 139.820312 34.96875 139.960938 C 34.96875 139.960938 35.53125 140.101562 36.140625 140.101562 C 36.140625 140.101562 37.148438 140.101562 37.730469 139.570312 C 37.730469 139.570312 38.320312 139.050781 38.320312 138.140625 C 38.320312 138.140625 38.320312 137.238281 37.730469 136.710938 C 37.730469 136.710938 37.148438 136.191406 36.140625 136.191406 C 36.140625 136.191406 35.679688 136.191406 35.210938 136.289062 C 35.210938 136.289062 34.738281 136.390625 34.261719 136.609375 Z M 34.261719 132.269531 "/>
<path fill-rule="nonzero" fill="rgb(0%, 0%, 0%)" fill-opacity="1" d="M 22.890625 84.808594 L 24.800781 84.808594 L 24.800781 78.21875 L 22.71875 78.640625 L 22.71875 77.570312 L 24.789062 77.160156 L 25.960938 77.160156 L 25.960938 84.808594 L 27.871094 84.808594 L 27.871094 85.800781 L 22.890625 85.800781 Z M 22.890625 84.808594 "/>
<path fill-rule="nonzero" fill="rgb(0%, 0%, 0%)" fill-opacity="1" d="M 30.230469 84.328125 L 31.449219 84.328125 L 31.449219 85.800781 L 30.230469 85.800781 Z M 30.230469 84.328125 "/>
<path fill-rule="nonzero" fill="rgb(0%, 0%, 0%)" fill-opacity="1" d="M 36.5 77.929688 C 36.5 77.929688 35.601562 77.929688 35.140625 78.820312 C 35.140625 78.820312 34.691406 79.699219 34.691406 81.480469 C 34.691406 81.480469 34.691406 83.261719 35.140625 84.148438 C 35.140625 84.148438 35.601562 85.039062 36.5 85.039062 C 36.5 85.039062 37.410156 85.039062 37.859375 84.148438 C 37.859375 84.148438 38.320312 83.261719 38.320312 81.480469 C 38.320312 81.480469 38.320312 79.699219 37.859375 78.820312 C 37.859375 78.820312 37.410156 77.929688 36.5 77.929688 M 36.5 77 C 36.5 77 37.949219 77 38.710938 78.148438 C 38.710938 78.148438 39.480469 79.300781 39.480469 81.480469 C 39.480469 81.480469 39.480469 83.671875 38.710938 84.820312 C 38.710938 84.820312 37.949219 85.960938 36.5 85.960938 C 36.5 85.960938 35.050781 85.960938 34.28125 84.820312 C 34.28125 84.820312 33.511719 83.671875 33.511719 81.480469 C 33.511719 81.480469 33.511719 79.300781 34.28125 78.148438 C 34.28125 78.148438 35.050781 77 36.5 77 Z M 36.5 77 "/>
<path fill-rule="nonzero" fill="rgb(0%, 0%, 0%)" fill-opacity="1" d="M 23.140625 29.691406 L 25.050781 29.691406 L 25.050781 23.101562 L 22.96875 23.519531 L 22.96875 22.449219 L 25.039062 22.039062 L 26.210938 22.039062 L 26.210938 29.691406 L 28.121094 29.691406 L 28.121094 30.679688 L 23.140625 30.679688 Z M 23.140625 29.691406 "/>
<path fill-rule="nonzero" fill="rgb(0%, 0%, 0%)" fill-opacity="1" d="M 30.480469 29.210938 L 31.699219 29.210938 L 31.699219 30.679688 L 30.480469 30.679688 Z M 30.480469 29.210938 "/>
<path fill-rule="nonzero" fill="rgb(0%, 0%, 0%)" fill-opacity="1" d="M 34.261719 22.039062 L 38.851562 22.039062 L 38.851562 23.019531 L 35.328125 23.019531 L 35.328125 25.140625 C 35.328125 25.140625 35.578125 25.050781 35.839844 25.011719 C 35.839844 25.011719 36.089844 24.96875 36.351562 24.96875 C 36.351562 24.96875 37.789062 24.96875 38.640625 25.761719 C 38.640625 25.761719 39.480469 26.550781 39.480469 27.910156 C 39.480469 27.910156 39.480469 29.300781 38.621094 30.078125 C 38.621094 30.078125 37.75 30.851562 36.171875 30.851562 C 36.171875 30.851562 35.621094 30.851562 35.058594 30.75 C 35.058594 30.75 34.5 30.660156 33.890625 30.46875 L 33.890625 29.300781 C 33.890625 29.300781 34.410156 29.578125 34.96875 29.71875 C 34.96875 29.71875 35.53125 29.859375 36.140625 29.859375 C 36.140625 29.859375 37.148438 29.859375 37.730469 29.328125 C 37.730469 29.328125 38.320312 28.808594 38.320312 27.910156 C 38.320312 27.910156 38.320312 27 37.730469 26.480469 C 37.730469 26.480469 37.148438 25.949219 36.140625 25.949219 C 36.140625 25.949219 35.679688 25.949219 35.210938 26.050781 C 35.210938 26.050781 34.738281 26.160156 34.261719 26.378906 Z M 34.261719 22.039062 "/>
<path fill-rule="evenodd" fill="rgb(0%, 60.559082%, 97.869873%)" fill-opacity="0.298039" stroke-width="1" stroke-linecap="round" stroke-linejoin="round" stroke="rgb(100%, 100%, 100%)" stroke-opacity="1" stroke-miterlimit="10" d="M 318.339844 208.289062 L 322.75 208.328125 L 327.148438 208.460938 L 331.550781 208.679688 L 335.941406 208.988281 L 340.320312 209.390625 L 344.679688 209.871094 L 349.03125 210.441406 L 353.351562 211.089844 L 357.648438 211.828125 L 361.921875 212.660156 L 366.160156 213.570312 L 370.371094 214.558594 L 374.539062 215.628906 L 378.671875 216.789062 L 382.761719 218.019531 L 386.808594 219.339844 L 390.800781 220.730469 L 394.75 222.191406 L 398.648438 223.730469 L 402.480469 225.339844 L 406.261719 227.03125 L 409.980469 228.78125 L 413.640625 230.601562 L 417.230469 232.488281 L 420.75 234.441406 L 424.210938 236.449219 L 424.578125 237.691406 L 424.28125 238.75 L 423.96875 239.808594 L 423.648438 240.859375 L 423.320312 241.921875 L 422.980469 242.960938 L 422.628906 244.011719 L 422.269531 245.050781 L 421.890625 246.089844 L 421.511719 247.121094 L 421.121094 248.148438 L 420.710938 249.179688 L 420.300781 250.199219 L 419.871094 251.21875 L 419.441406 252.230469 L 419 253.238281 L 418.078125 255.238281 L 417.601562 256.238281 L 417.121094 257.230469 L 416.121094 259.191406 L 415.601562 260.171875 L 415.078125 261.140625 L 414.550781 262.101562 L 414 263.058594 L 413.449219 264.019531 L 412.890625 264.960938 L 412.320312 265.910156 L 411.738281 266.839844 L 411.148438 267.769531 L 410.550781 268.699219 L 409.941406 269.621094 L 409.320312 270.53125 L 408.691406 271.441406 L 408.058594 272.339844 L 406.761719 274.121094 L 406.101562 275 L 405.429688 275.878906 L 404.75 276.738281 L 404.058594 277.601562 L 403.359375 278.460938 L 402.648438 279.300781 L 401.941406 280.140625 L 401.21875 280.980469 L 400.480469 281.800781 L 399.75 282.621094 L 399 283.429688 L 398.238281 284.230469 L 397.480469 285.03125 L 396.710938 285.808594 L 395.929688 286.589844 L 395.140625 287.371094 L 394.351562 288.128906 L 393.550781 288.890625 L 392.738281 289.628906 L 391.921875 290.371094 L 391.089844 291.109375 L 390.261719 291.828125 L 389.421875 292.539062 L 388.578125 293.25 L 387.71875 293.949219 L 386.859375 294.640625 L 386 295.320312 L 385.121094 295.988281 L 384.238281 296.660156 L 383.359375 297.308594 L 382.460938 297.960938 L 381.558594 298.589844 L 380.660156 299.21875 L 379.738281 299.839844 L 378.820312 300.449219 L 377.898438 301.050781 L 376.96875 301.640625 L 376.03125 302.21875 L 375.089844 302.789062 L 374.140625 303.359375 L 373.191406 303.910156 L 371.269531 304.988281 L 370.300781 305.511719 L 369.320312 306.03125 L 367.359375 307.03125 L 366.371094 307.511719 L 365.371094 307.988281 L 363.371094 308.910156 L 362.359375 309.351562 L 361.351562 309.789062 L 360.328125 310.210938 L 359.308594 310.628906 L 358.28125 311.03125 L 357.25 311.429688 L 356.21875 311.808594 L 354.140625 312.550781 L 353.101562 312.898438 L 352.050781 313.238281 L 351 313.570312 L 349.949219 313.898438 L 348.890625 314.210938 L 347.828125 314.511719 L 346.660156 314.429688 L 344.648438 310.980469 L 342.691406 307.460938 L 340.800781 303.878906 L 338.980469 300.230469 L 337.21875 296.511719 L 335.53125 292.738281 L 333.910156 288.898438 L 332.359375 285.011719 L 330.890625 281.070312 L 329.5 277.078125 L 328.179688 273.03125 L 326.941406 268.949219 L 325.78125 264.820312 L 324.699219 260.648438 L 323.699219 256.449219 L 322.78125 252.210938 L 321.949219 247.941406 L 321.199219 243.640625 L 320.539062 239.320312 L 319.960938 234.980469 L 319.46875 230.621094 L 319.070312 226.238281 L 318.761719 221.851562 L 318.53125 217.449219 L 318.390625 213.050781 L 318.339844 208.640625 L 318.300781 212.351562 L 318.179688 216.75 L 317.960938 221.148438 L 317.660156 225.539062 L 317.269531 229.921875 L 316.800781 234.289062 L 316.238281 238.628906 L 315.589844 242.960938 L 314.851562 247.261719 L 314.03125 251.53125 L 313.128906 255.769531 L 312.148438 259.980469 L 311.078125 264.160156 L 309.929688 268.289062 L 308.699219 272.390625 L 307.398438 276.429688 L 306.011719 280.441406 L 304.550781 284.390625 L 303.019531 288.289062 L 301.410156 292.128906 L 299.730469 295.910156 L 297.988281 299.640625 L 296.171875 303.300781 L 294.289062 306.898438 L 292.351562 310.421875 L 290.339844 313.878906 L 289.019531 314.550781 L 287.960938 314.261719 L 286.898438 313.949219 L 285.851562 313.628906 L 284.789062 313.300781 L 283.75 312.960938 L 282.699219 312.601562 L 281.660156 312.238281 L 280.621094 311.871094 L 279.589844 311.488281 L 278.558594 311.101562 L 277.53125 310.691406 L 276.511719 310.28125 L 275.488281 309.859375 L 274.480469 309.421875 L 273.46875 308.980469 L 272.460938 308.53125 L 271.460938 308.058594 L 270.46875 307.589844 L 269.480469 307.101562 L 268.488281 306.609375 L 267.511719 306.109375 L 266.539062 305.589844 L 265.570312 305.070312 L 264.601562 304.539062 L 263.640625 304 L 262.691406 303.441406 L 261.738281 302.878906 L 260.789062 302.308594 L 259.859375 301.730469 L 258.929688 301.140625 L 258 300.539062 L 257.078125 299.941406 L 256.171875 299.320312 L 255.261719 298.691406 L 254.359375 298.058594 L 253.460938 297.410156 L 252.578125 296.761719 L 251.691406 296.101562 L 250.820312 295.429688 L 249.949219 294.75 L 249.089844 294.058594 L 248.238281 293.359375 L 247.390625 292.660156 L 246.550781 291.941406 L 245.71875 291.21875 L 244.890625 290.488281 L 244.070312 289.75 L 243.261719 289.011719 L 241.660156 287.488281 L 240.871094 286.71875 L 240.089844 285.941406 L 239.320312 285.148438 L 238.558594 284.359375 L 237.800781 283.558594 L 237.050781 282.75 L 236.308594 281.929688 L 235.578125 281.109375 L 234.851562 280.28125 L 234.140625 279.441406 L 233.429688 278.589844 L 232.730469 277.738281 L 232.039062 276.878906 L 231.359375 276.011719 L 230.691406 275.140625 L 230.019531 274.261719 L 229.371094 273.371094 L 228.71875 272.480469 L 228.078125 271.578125 L 227.460938 270.679688 L 226.839844 269.761719 L 226.230469 268.851562 L 225.628906 267.921875 L 225.03125 266.988281 L 224.449219 266.058594 L 223.878906 265.109375 L 223.308594 264.171875 L 222.761719 263.210938 L 222.21875 262.261719 L 221.679688 261.289062 L 220.640625 259.351562 L 220.128906 258.371094 L 219.640625 257.378906 L 219.148438 256.390625 L 218.679688 255.398438 L 218.210938 254.398438 L 217.75 253.398438 L 217.308594 252.390625 L 216.871094 251.378906 L 216.449219 250.359375 L 216.03125 249.339844 L 215.628906 248.308594 L 215.230469 247.289062 L 214.851562 246.25 L 214.46875 245.21875 L 214.109375 244.171875 L 213.75 243.128906 L 213.410156 242.078125 L 213.078125 241.03125 L 212.761719 239.980469 L 212.441406 238.921875 L 212.140625 237.859375 L 211.929688 236.78125 L 215.371094 234.75 L 218.878906 232.789062 L 222.460938 230.898438 L 226.109375 229.070312 L 229.820312 227.300781 L 233.589844 225.609375 L 237.421875 223.980469 L 241.300781 222.429688 L 245.238281 220.949219 L 249.230469 219.550781 L 253.269531 218.230469 L 257.351562 216.980469 L 261.480469 215.808594 L 265.640625 214.730469 L 269.839844 213.71875 L 274.078125 212.800781 L 278.351562 211.960938 L 282.640625 211.210938 L 286.960938 210.539062 L 291.300781 209.949219 L 295.660156 209.460938 L 300.039062 209.050781 L 304.421875 208.730469 L 308.820312 208.488281 L 313.230469 208.351562 L 317.640625 208.289062 L 314.628906 208.261719 L 310.230469 208.140625 L 305.820312 207.929688 L 301.429688 207.640625 L 297.050781 207.261719 L 292.691406 206.789062 L 288.339844 206.230469 L 284.011719 205.589844 L 279.710938 204.859375 L 275.429688 204.050781 L 271.191406 203.160156 L 266.980469 202.179688 L 262.800781 201.121094 L 258.660156 199.96875 L 254.558594 198.75 L 250.511719 197.449219 L 246.511719 196.070312 L 242.550781 194.621094 L 238.648438 193.089844 L 234.800781 191.488281 L 231.011719 189.820312 L 227.28125 188.078125 L 223.621094 186.269531 L 220.011719 184.390625 L 216.480469 182.449219 L 213.019531 180.449219 L 212.050781 179.050781 L 212.351562 177.988281 L 212.648438 176.929688 L 212.96875 175.878906 L 213.300781 174.828125 L 213.640625 173.78125 L 213.988281 172.730469 L 214.351562 171.691406 L 214.730469 170.648438 L 215.109375 169.621094 L 215.5 168.589844 L 215.898438 167.558594 L 216.308594 166.539062 L 216.738281 165.519531 L 217.171875 164.511719 L 217.609375 163.5 L 218.058594 162.488281 L 218.53125 161.488281 L 219 160.5 L 219.480469 159.511719 L 219.980469 158.519531 L 220.480469 157.539062 L 220.988281 156.558594 L 221.511719 155.589844 L 222.039062 154.628906 L 222.589844 153.671875 L 223.140625 152.710938 L 223.699219 151.761719 L 224.269531 150.820312 L 224.851562 149.878906 L 226.03125 148.019531 L 226.640625 147.101562 L 227.261719 146.191406 L 227.878906 145.28125 L 228.519531 144.378906 L 229.160156 143.480469 L 229.808594 142.601562 L 230.46875 141.710938 L 231.148438 140.839844 L 231.820312 139.96875 L 232.511719 139.109375 L 233.210938 138.25 L 233.910156 137.398438 L 234.628906 136.558594 L 235.351562 135.730469 L 236.078125 134.898438 L 236.808594 134.089844 L 237.558594 133.269531 L 238.308594 132.46875 L 239.078125 131.671875 L 239.851562 130.878906 L 240.621094 130.101562 L 241.410156 129.328125 L 242.199219 128.570312 L 243 127.808594 L 243.808594 127.058594 L 244.628906 126.320312 L 245.449219 125.578125 L 246.28125 124.859375 L 247.121094 124.140625 L 247.96875 123.441406 L 248.820312 122.738281 L 249.679688 122.039062 L 250.539062 121.359375 L 251.421875 120.691406 L 252.289062 120.019531 L 253.179688 119.371094 L 254.070312 118.71875 L 254.96875 118.078125 L 255.878906 117.449219 L 256.789062 116.828125 L 257.710938 116.21875 L 258.628906 115.621094 L 259.558594 115.03125 L 260.5 114.449219 L 261.441406 113.871094 L 262.378906 113.308594 L 263.339844 112.75 L 264.289062 112.210938 L 265.261719 111.671875 L 266.230469 111.148438 L 267.199219 110.628906 L 268.179688 110.121094 L 269.160156 109.628906 L 270.148438 109.140625 L 271.148438 108.660156 L 273.148438 107.738281 L 274.160156 107.289062 L 275.171875 106.859375 L 276.179688 106.429688 L 277.210938 106.011719 L 278.230469 105.609375 L 279.261719 105.210938 L 280.289062 104.820312 L 281.328125 104.449219 L 282.371094 104.078125 L 283.410156 103.730469 L 285.511719 103.050781 L 286.558594 102.730469 L 287.621094 102.421875 L 288.679688 102.109375 L 289.738281 101.820312 L 291.710938 105.039062 L 293.679688 108.550781 L 295.578125 112.121094 L 297.421875 115.761719 L 299.191406 119.46875 L 300.890625 123.230469 L 302.519531 127.058594 L 304.070312 130.941406 L 305.558594 134.871094 L 306.960938 138.859375 L 308.300781 142.890625 L 309.550781 146.96875 L 310.71875 151.101562 L 311.820312 155.261719 L 312.828125 159.460938 L 313.761719 163.691406 L 314.601562 167.949219 L 315.359375 172.238281 L 316.039062 176.558594 L 316.628906 180.898438 L 317.128906 185.261719 L 317.550781 189.640625 L 317.878906 194.019531 L 318.121094 198.421875 L 318.269531 202.828125 L 318.339844 207.230469 L 318.359375 204.929688 L 318.480469 200.519531 L 318.671875 196.121094 L 318.960938 191.730469 L 319.339844 187.351562 L 319.800781 182.980469 L 320.351562 178.628906 L 320.980469 174.300781 L 321.699219 170 L 322.511719 165.71875 L 323.398438 161.46875 L 324.371094 157.261719 L 325.421875 153.078125 L 326.558594 148.941406 L 327.769531 144.839844 L 329.070312 140.78125 L 330.441406 136.769531 L 331.890625 132.808594 L 333.410156 128.910156 L 335 125.050781 L 336.671875 121.261719 L 338.410156 117.53125 L 340.210938 113.851562 L 342.078125 110.25 L 344.019531 106.710938 L 346.019531 103.238281 L 347.488281 101.96875 L 348.550781 102.269531 L 349.609375 102.578125 L 350.660156 102.898438 L 351.71875 103.21875 L 352.769531 103.558594 L 353.808594 103.910156 L 354.851562 104.269531 L 355.890625 104.640625 L 356.929688 105.019531 L 357.960938 105.421875 L 358.980469 105.820312 L 360.011719 106.230469 L 361.019531 106.648438 L 362.039062 107.078125 L 363.050781 107.519531 L 365.050781 108.441406 L 366.050781 108.910156 L 367.039062 109.390625 L 368.03125 109.878906 L 369.011719 110.390625 L 369.988281 110.898438 L 370.960938 111.421875 L 371.921875 111.949219 L 372.878906 112.488281 L 373.839844 113.039062 L 374.789062 113.601562 L 375.730469 114.171875 L 376.671875 114.75 L 378.53125 115.929688 L 379.449219 116.539062 L 380.371094 117.160156 L 381.269531 117.78125 L 382.179688 118.410156 L 383.070312 119.058594 L 383.960938 119.710938 L 384.839844 120.371094 L 385.71875 121.039062 L 386.589844 121.71875 L 387.449219 122.398438 L 388.308594 123.101562 L 389.148438 123.800781 L 390 124.519531 L 390.828125 125.238281 L 391.660156 125.96875 L 392.480469 126.699219 L 393.289062 127.449219 L 394.089844 128.199219 L 394.890625 128.960938 L 395.679688 129.730469 L 396.460938 130.511719 L 398 132.089844 L 398.761719 132.890625 L 399.511719 133.699219 L 400.25 134.511719 L 400.980469 135.328125 L 401.710938 136.171875 L 402.429688 137 L 403.128906 137.851562 L 403.839844 138.699219 L 404.53125 139.558594 L 405.210938 140.421875 L 405.878906 141.289062 L 406.550781 142.171875 L 407.210938 143.058594 L 407.851562 143.949219 L 408.488281 144.851562 L 409.121094 145.75 L 409.738281 146.660156 L 410.359375 147.578125 L 410.960938 148.5 L 411.550781 149.429688 L 412.128906 150.371094 L 412.710938 151.308594 L 413.269531 152.261719 L 413.828125 153.210938 L 414.378906 154.171875 L 414.910156 155.128906 L 415.441406 156.101562 L 415.960938 157.070312 L 416.960938 159.03125 L 417.449219 160.019531 L 417.929688 161.019531 L 418.390625 162.011719 L 418.851562 163.019531 L 419.300781 164.019531 L 419.738281 165.039062 L 420.160156 166.050781 L 420.578125 167.070312 L 420.988281 168.101562 L 421.390625 169.128906 L 422.148438 171.191406 L 422.511719 172.230469 L 422.871094 173.28125 L 423.210938 174.320312 L 423.550781 175.371094 L 424.191406 177.488281 L 424.488281 178.550781 L 424.78125 179.609375 L 421.859375 181.5 L 418.359375 183.46875 L 414.789062 185.378906 L 411.160156 187.21875 L 407.460938 189 L 403.691406 190.699219 L 399.871094 192.339844 L 396 193.898438 L 392.070312 195.390625 L 388.089844 196.800781 L 384.058594 198.140625 L 379.980469 199.398438 L 375.859375 200.578125 L 371.699219 201.679688 L 367.511719 202.699219 L 363.28125 203.628906 L 359.011719 204.488281 L 354.71875 205.25 L 350.410156 205.941406 L 346.070312 206.53125 L 341.710938 207.039062 L 337.339844 207.46875 L 332.949219 207.800781 L 328.558594 208.050781 L 324.148438 208.210938 L 319.738281 208.28125 L 318.339844 208.289062 " transform="matrix(1, 0, 0, -1, 0, 400)"/>
<path fill="none" stroke-width="1" stroke-linecap="round" stroke-linejoin="round" stroke="rgb(88.88855%, 43.559265%, 27.809143%)" stroke-opacity="1" stroke-miterlimit="10" d="M 318.339844 208.289062 L 322.75 208.328125 L 327.148438 208.460938 L 331.550781 208.679688 L 335.941406 208.988281 L 340.320312 209.390625 L 344.679688 209.871094 L 349.03125 210.441406 L 353.351562 211.089844 L 357.648438 211.828125 L 361.921875 212.660156 L 366.160156 213.570312 L 370.371094 214.558594 L 374.539062 215.628906 L 378.671875 216.789062 L 382.761719 218.019531 L 386.808594 219.339844 L 390.800781 220.730469 L 394.75 222.191406 L 398.648438 223.730469 L 402.480469 225.339844 L 406.261719 227.03125 L 409.980469 228.78125 L 413.640625 230.601562 L 417.230469 232.488281 L 420.75 234.441406 L 424.210938 236.449219 L 427.589844 238.519531 L 430.890625 240.648438 L 434.121094 242.839844 L 437.269531 245.078125 L 440.339844 247.371094 L 443.320312 249.699219 L 446.21875 252.089844 L 449.039062 254.519531 L 451.761719 256.988281 L 454.398438 259.5 L 456.941406 262.050781 L 459.390625 264.628906 L 461.75 267.238281 L 464.011719 269.878906 L 466.179688 272.539062 L 468.238281 275.230469 L 470.210938 277.941406 L 472.078125 280.671875 L 473.851562 283.410156 L 475.519531 286.160156 L 477.078125 288.921875 L 478.539062 291.691406 L 479.898438 294.460938 L 481.148438 297.230469 L 482.300781 300 L 483.339844 302.761719 L 484.28125 305.519531 L 485.121094 308.261719 L 485.851562 310.988281 L 486.480469 313.699219 L 487 316.390625 L 487.410156 319.058594 L 487.730469 321.699219 L 487.941406 324.320312 L 488.039062 326.898438 L 488.050781 329.449219 L 487.949219 331.960938 L 487.761719 334.429688 L 487.460938 336.851562 L 487.058594 339.230469 L 486.570312 341.570312 L 485.980469 343.851562 L 485.289062 346.078125 L 484.511719 348.25 L 483.640625 350.371094 L 482.679688 352.421875 L 481.621094 354.410156 L 480.480469 356.339844 L 479.25 358.191406 L 477.941406 359.980469 L 476.539062 361.691406 L 475.070312 363.328125 L 473.511719 364.898438 L 471.878906 366.378906 L 470.171875 367.78125 L 468.390625 369.101562 L 466.539062 370.339844 L 464.621094 371.480469 L 462.640625 372.539062 L 460.589844 373.519531 L 458.480469 374.398438 L 456.308594 375.179688 L 454.078125 375.878906 L 451.800781 376.46875 L 449.46875 376.980469 L 447.101562 377.378906 L 444.671875 377.679688 L 442.210938 377.890625 L 439.699219 377.988281 L 437.148438 378 L 434.570312 377.898438 L 431.960938 377.699219 L 429.320312 377.390625 L 426.660156 376.980469 L 423.96875 376.46875 L 421.261719 375.851562 L 418.53125 375.128906 L 415.789062 374.300781 L 413.03125 373.371094 L 410.269531 372.328125 L 407.5 371.191406 L 404.730469 369.949219 L 401.960938 368.601562 L 399.191406 367.148438 L 396.429688 365.589844 L 393.679688 363.929688 L 390.941406 362.171875 L 388.210938 360.308594 L 385.5 358.351562 L 382.808594 356.289062 L 380.140625 354.140625 L 377.5 351.878906 L 374.878906 349.53125 L 372.300781 347.089844 L 369.75 344.550781 L 367.238281 341.921875 L 364.769531 339.199219 L 362.328125 336.398438 L 359.949219 333.5 L 357.601562 330.519531 L 355.308594 327.460938 L 353.070312 324.320312 L 350.878906 321.101562 L 348.738281 317.800781 L 346.660156 314.429688 L 344.648438 310.980469 L 342.691406 307.460938 L 340.800781 303.878906 L 338.980469 300.230469 L 337.21875 296.511719 L 335.53125 292.738281 L 333.910156 288.898438 L 332.359375 285.011719 L 330.890625 281.070312 L 329.5 277.078125 L 328.179688 273.03125 L 326.941406 268.949219 L 325.78125 264.820312 L 324.699219 260.648438 L 323.699219 256.449219 L 322.78125 252.210938 L 321.949219 247.941406 L 321.199219 243.640625 L 320.539062 239.320312 L 319.960938 234.980469 L 319.46875 230.621094 L 319.070312 226.238281 L 318.761719 221.851562 L 318.53125 217.449219 L 318.390625 213.050781 L 318.339844 208.640625 L 318.378906 204.230469 L 318.5 199.820312 L 318.710938 195.421875 L 319.019531 191.03125 L 319.398438 186.648438 L 319.878906 182.289062 L 320.441406 177.941406 L 321.089844 173.621094 L 321.820312 169.320312 L 322.640625 165.039062 L 323.550781 160.800781 L 324.53125 156.589844 L 325.601562 152.421875 L 326.75 148.28125 L 327.96875 144.191406 L 329.28125 140.140625 L 330.660156 136.140625 L 332.121094 132.191406 L 333.660156 128.289062 L 335.269531 124.449219 L 336.941406 120.660156 L 338.691406 116.941406 L 340.511719 113.269531 L 342.390625 109.679688 L 344.328125 106.148438 L 346.339844 102.691406 L 348.410156 99.308594 L 350.53125 96 L 352.710938 92.761719 L 354.949219 89.609375 L 357.230469 86.53125 L 359.570312 83.539062 L 361.949219 80.628906 L 364.378906 77.808594 L 366.839844 75.078125 L 369.351562 72.441406 L 371.890625 69.878906 L 374.46875 67.421875 L 377.078125 65.058594 L 379.71875 62.789062 L 382.378906 60.621094 L 385.070312 58.539062 L 387.78125 56.570312 L 390.5 54.691406 L 393.238281 52.910156 L 395.988281 51.238281 L 398.75 49.671875 L 401.519531 48.199219 L 404.289062 46.828125 L 407.058594 45.570312 L 409.828125 44.410156 L 412.589844 43.359375 L 415.351562 42.410156 L 418.089844 41.570312 L 420.820312 40.828125 L 423.539062 40.199219 L 426.230469 39.671875 L 428.898438 39.238281 L 431.539062 38.921875 L 434.160156 38.699219 L 436.75 38.589844 L 439.300781 38.570312 L 441.808594 38.660156 L 444.28125 38.851562 L 446.710938 39.140625 L 449.101562 39.53125 L 451.441406 40.011719 L 453.71875 40.601562 L 455.960938 41.28125 L 458.128906 42.050781 L 460.25 42.910156 L 462.308594 43.871094 L 464.308594 44.921875 L 466.238281 46.050781 L 468.101562 47.269531 L 469.890625 48.578125 L 471.609375 49.96875 L 473.261719 51.441406 L 474.828125 52.988281 L 476.308594 54.609375 L 477.71875 56.320312 L 479.050781 58.089844 L 480.289062 59.941406 L 481.449219 61.851562 L 482.519531 63.828125 L 483.488281 65.871094 L 484.378906 67.980469 L 485.179688 70.140625 L 485.878906 72.359375 L 486.480469 74.640625 L 486.988281 76.960938 L 487.398438 79.339844 L 487.71875 81.761719 L 487.929688 84.21875 L 488.039062 86.730469 L 488.050781 89.269531 L 487.960938 91.851562 L 487.769531 94.449219 L 487.46875 97.089844 L 487.070312 99.761719 L 486.570312 102.441406 L 485.960938 105.148438 L 485.238281 107.878906 L 484.421875 110.621094 L 483.5 113.371094 L 482.46875 116.128906 L 481.339844 118.898438 L 480.101562 121.671875 L 478.761719 124.441406 L 477.320312 127.210938 L 475.769531 129.980469 L 474.121094 132.730469 L 472.371094 135.46875 L 470.519531 138.199219 L 468.570312 140.910156 L 466.511719 143.609375 L 464.359375 146.269531 L 462.121094 148.921875 L 459.78125 151.53125 L 457.339844 154.121094 L 454.808594 156.671875 L 452.191406 159.191406 L 449.480469 161.660156 L 446.679688 164.101562 L 443.789062 166.488281 L 440.820312 168.839844 L 437.761719 171.140625 L 434.628906 173.378906 L 431.410156 175.578125 L 428.121094 177.71875 L 424.75 179.800781 L 421.308594 181.820312 L 417.800781 183.78125 L 414.21875 185.679688 L 410.570312 187.511719 L 406.859375 189.269531 L 403.089844 190.96875 L 399.261719 192.589844 L 395.378906 194.140625 L 391.441406 195.621094 L 387.449219 197.019531 L 383.410156 198.351562 L 379.328125 199.589844 L 375.199219 200.761719 L 371.039062 201.851562 L 366.828125 202.851562 L 362.601562 203.78125 L 358.328125 204.609375 L 354.039062 205.371094 L 349.71875 206.039062 L 345.378906 206.621094 L 341.019531 207.121094 L 336.640625 207.53125 L 332.25 207.851562 L 327.859375 208.078125 L 323.449219 208.230469 L 319.039062 208.289062 L 314.628906 208.261719 L 310.230469 208.140625 L 305.820312 207.929688 L 301.429688 207.640625 L 297.050781 207.261719 L 292.691406 206.789062 L 288.339844 206.230469 L 284.011719 205.589844 L 279.710938 204.859375 L 275.429688 204.050781 L 271.191406 203.160156 L 266.980469 202.179688 L 262.800781 201.121094 L 258.660156 199.96875 L 254.558594 198.75 L 250.511719 197.449219 L 246.511719 196.070312 L 242.550781 194.621094 L 238.648438 193.089844 L 234.800781 191.488281 L 231.011719 189.820312 L 227.28125 188.078125 L 223.621094 186.269531 L 220.011719 184.390625 L 216.480469 182.449219 L 213.019531 180.449219 L 209.628906 178.390625 L 206.308594 176.269531 L 203.070312 174.089844 L 199.910156 171.859375 L 196.828125 169.578125 L 193.828125 167.25 L 190.910156 164.871094 L 188.078125 162.441406 L 185.339844 159.980469 L 182.691406 157.480469 L 180.140625 154.941406 L 177.671875 152.359375 L 175.300781 149.761719 L 173.019531 147.121094 L 170.839844 144.460938 L 168.761719 141.769531 L 166.769531 139.070312 L 164.890625 136.339844 L 163.101562 133.601562 L 161.421875 130.851562 L 159.839844 128.089844 L 158.359375 125.328125 L 156.988281 122.558594 L 155.71875 119.78125 L 154.550781 117.019531 L 153.488281 114.25 L 152.539062 111.5 L 151.679688 108.75 L 150.941406 106.019531 L 150.289062 103.300781 L 149.761719 100.609375 L 149.320312 97.941406 L 148.988281 95.289062 L 148.769531 92.671875 L 148.640625 90.089844 L 148.621094 87.53125 L 148.699219 85.019531 L 148.878906 82.539062 L 149.171875 80.109375 L 149.550781 77.71875 L 150.019531 75.371094 L 150.601562 73.078125 L 151.269531 70.851562 L 152.03125 68.660156 L 152.890625 66.539062 L 153.839844 64.46875 L 154.878906 62.46875 L 156.011719 60.539062 L 157.21875 58.671875 L 158.519531 56.871094 L 159.910156 55.148438 L 161.371094 53.5 L 162.910156 51.921875 L 164.53125 50.429688 L 166.230469 49.011719 L 168 47.679688 L 169.839844 46.429688 L 171.75 45.269531 L 173.71875 44.191406 L 175.761719 43.210938 L 177.859375 42.308594 L 180.019531 41.511719 L 182.238281 40.800781 L 184.511719 40.191406 L 186.828125 39.671875 L 189.199219 39.25 L 191.621094 38.929688 L 194.078125 38.710938 L 196.578125 38.589844 L 199.121094 38.570312 L 201.691406 38.648438 L 204.300781 38.839844 L 206.929688 39.128906 L 209.589844 39.519531 L 212.28125 40.019531 L 214.988281 40.621094 L 217.710938 41.320312 L 220.449219 42.128906 L 223.199219 43.050781 L 225.96875 44.070312 L 228.730469 45.191406 L 231.5 46.421875 L 234.28125 47.75 L 237.039062 49.191406 L 239.808594 50.730469 L 242.558594 52.371094 L 245.308594 54.109375 L 248.039062 55.960938 L 250.75 57.898438 L 253.441406 59.949219 L 256.109375 62.089844 L 258.761719 64.328125 L 261.378906 66.660156 L 263.96875 69.089844 L 266.519531 71.609375 L 269.039062 74.230469 L 271.519531 76.929688 L 273.960938 79.71875 L 276.359375 82.601562 L 278.710938 85.570312 L 281.011719 88.621094 L 283.261719 91.75 L 285.460938 94.960938 L 287.601562 98.238281 L 289.691406 101.609375 L 291.710938 105.039062 L 293.679688 108.550781 L 295.578125 112.121094 L 297.421875 115.761719 L 299.191406 119.46875 L 300.890625 123.230469 L 302.519531 127.058594 L 304.070312 130.941406 L 305.558594 134.871094 L 306.960938 138.859375 L 308.300781 142.890625 L 309.550781 146.96875 L 310.71875 151.101562 L 311.820312 155.261719 L 312.828125 159.460938 L 313.761719 163.691406 L 314.601562 167.949219 L 315.359375 172.238281 L 316.039062 176.558594 L 316.628906 180.898438 L 317.128906 185.261719 L 317.550781 189.640625 L 317.878906 194.019531 L 318.121094 198.421875 L 318.269531 202.828125 L 318.339844 207.230469 L 318.308594 211.640625 L 318.199219 216.050781 L 318 220.449219 L 317.71875 224.839844 L 317.339844 229.230469 L 316.878906 233.589844 L 316.328125 237.941406 L 315.699219 242.269531 L 314.980469 246.570312 L 314.171875 250.851562 L 313.28125 255.101562 L 312.308594 259.320312 L 311.261719 263.5 L 310.121094 267.640625 L 308.898438 271.738281 L 307.609375 275.789062 L 306.238281 279.800781 L 304.789062 283.761719 L 303.269531 287.671875 L 301.671875 291.519531 L 300.011719 295.320312 L 298.269531 299.050781 L 296.46875 302.71875 L 294.589844 306.328125 L 292.660156 309.871094 L 290.660156 313.339844 L 288.601562 316.730469 L 286.488281 320.058594 L 284.320312 323.300781 L 282.089844 326.46875 L 279.808594 329.558594 L 277.480469 332.558594 L 275.109375 335.480469 L 272.691406 338.320312 L 270.230469 341.070312 L 267.730469 343.71875 L 265.191406 346.289062 L 262.621094 348.761719 L 260.019531 351.140625 L 257.378906 353.429688 L 254.71875 355.621094 L 252.039062 357.710938 L 249.339844 359.699219 L 246.609375 361.589844 L 243.878906 363.378906 L 241.121094 365.070312 L 238.359375 366.660156 L 235.601562 368.148438 L 232.828125 369.53125 L 230.058594 370.808594 L 227.289062 371.980469 L 224.519531 373.050781 L 221.769531 374.019531 L 219.019531 374.878906 L 216.289062 375.628906 L 213.570312 376.28125 L 210.878906 376.828125 L 208.199219 377.269531 L 205.550781 377.609375 L 202.929688 377.851562 L 200.339844 377.980469 L 197.789062 378.011719 L 195.269531 377.929688 L 192.789062 377.761719 L 190.351562 377.488281 L 187.960938 377.109375 L 185.609375 376.640625 L 183.320312 376.078125 L 181.070312 375.410156 L 178.890625 374.660156 L 176.761719 373.808594 L 174.691406 372.859375 L 172.679688 371.828125 L 170.738281 370.710938 L 168.871094 369.5 L 167.070312 368.210938 L 165.328125 366.828125 L 163.679688 365.378906 L 162.101562 363.839844 L 160.601562 362.21875 L 159.171875 360.53125 L 157.828125 358.769531 L 156.578125 356.941406 L 155.410156 355.03125 L 154.328125 353.058594 L 153.328125 351.03125 L 152.429688 348.929688 L 151.621094 346.78125 L 150.910156 344.570312 L 150.289062 342.300781 L 149.761719 339.980469 L 149.328125 337.621094 L 149.011719 335.199219 L 148.78125 332.75 L 148.648438 330.25 L 148.621094 327.710938 L 148.699219 325.140625 L 148.871094 322.539062 L 149.148438 319.898438 L 149.539062 317.238281 L 150.019531 314.558594 L 150.621094 311.851562 L 151.308594 309.128906 L 152.121094 306.390625 L 153.019531 303.640625 L 154.03125 300.878906 L 155.148438 298.109375 L 156.371094 295.339844 L 157.691406 292.570312 L 159.121094 289.800781 L 160.648438 287.039062 L 162.289062 284.28125 L 164.019531 281.539062 L 165.859375 278.808594 L 167.800781 276.089844 L 169.828125 273.398438 L 171.96875 270.71875 L 174.199219 268.078125 L 176.519531 265.449219 L 178.949219 262.859375 L 181.460938 260.308594 L 184.070312 257.789062 L 186.761719 255.300781 L 189.550781 252.859375 L 192.421875 250.460938 L 195.378906 248.109375 L 198.421875 245.800781 L 201.550781 243.539062 L 204.75 241.339844 L 208.03125 239.191406 L 211.390625 237.101562 L 214.820312 235.070312 L 218.320312 233.101562 L 221.890625 231.199219 L 225.519531 229.351562 L 229.21875 227.578125 L 232.980469 225.871094 L 236.800781 224.238281 L 240.679688 222.671875 L 244.609375 221.191406 L 248.589844 219.769531 L 252.621094 218.429688 L 256.699219 217.171875 L 260.820312 215.988281 L 264.980469 214.890625 L 269.171875 213.878906 L 273.398438 212.941406 L 277.660156 212.089844 L 281.949219 211.320312 L 286.269531 210.640625 L 290.609375 210.039062 L 294.960938 209.53125 L 299.339844 209.109375 L 303.71875 208.769531 L 308.121094 208.519531 L 312.53125 208.359375 L 316.929688 208.289062 " transform="matrix(1, 0, 0, -1, 0, 400)"/>
<path fill="none" stroke-width="1" stroke-linecap="round" stroke-linejoin="round" stroke="rgb(27.449036%, 50.979614%, 70.588684%)" stroke-opacity="1" stroke-miterlimit="10" d="M 428.578125 208.289062 L 428.570312 209.390625 L 428.550781 210.488281 L 428.53125 211.589844 L 428.488281 212.699219 L 428.441406 213.800781 L 428.378906 214.898438 L 428.308594 216 L 428.21875 217.101562 L 428.128906 218.199219 L 428.03125 219.289062 L 427.910156 220.390625 L 427.78125 221.480469 L 427.648438 222.578125 L 427.5 223.671875 L 427.339844 224.761719 L 427.171875 225.851562 L 426.988281 226.941406 L 426.800781 228.019531 L 426.589844 229.109375 L 426.378906 230.191406 L 426.148438 231.269531 L 425.921875 232.339844 L 425.671875 233.421875 L 425.421875 234.488281 L 425.148438 235.558594 L 424.871094 236.628906 L 424.578125 237.691406 L 424.28125 238.75 L 423.96875 239.808594 L 423.648438 240.859375 L 423.320312 241.921875 L 422.980469 242.960938 L 422.628906 244.011719 L 422.269531 245.050781 L 421.890625 246.089844 L 421.511719 247.121094 L 421.121094 248.148438 L 420.710938 249.179688 L 420.300781 250.199219 L 419.871094 251.21875 L 419.441406 252.230469 L 419 253.238281 L 418.078125 255.238281 L 417.601562 256.238281 L 417.121094 257.230469 L 416.121094 259.191406 L 415.601562 260.171875 L 415.078125 261.140625 L 414.550781 262.101562 L 414 263.058594 L 413.449219 264.019531 L 412.890625 264.960938 L 412.320312 265.910156 L 411.738281 266.839844 L 411.148438 267.769531 L 410.550781 268.699219 L 409.941406 269.621094 L 409.320312 270.53125 L 408.691406 271.441406 L 408.058594 272.339844 L 406.761719 274.121094 L 406.101562 275 L 405.429688 275.878906 L 404.75 276.738281 L 404.058594 277.601562 L 403.359375 278.460938 L 402.648438 279.300781 L 401.941406 280.140625 L 401.21875 280.980469 L 400.480469 281.800781 L 399.75 282.621094 L 399 283.429688 L 398.238281 284.230469 L 397.480469 285.03125 L 396.710938 285.808594 L 395.929688 286.589844 L 395.140625 287.371094 L 394.351562 288.128906 L 393.550781 288.890625 L 392.738281 289.628906 L 391.921875 290.371094 L 391.089844 291.109375 L 390.261719 291.828125 L 389.421875 292.539062 L 388.578125 293.25 L 387.71875 293.949219 L 386.859375 294.640625 L 386 295.320312 L 385.121094 295.988281 L 384.238281 296.660156 L 383.359375 297.308594 L 382.460938 297.960938 L 381.558594 298.589844 L 380.660156 299.21875 L 379.738281 299.839844 L 378.820312 300.449219 L 377.898438 301.050781 L 376.96875 301.640625 L 376.03125 302.21875 L 375.089844 302.789062 L 374.140625 303.359375 L 373.191406 303.910156 L 371.269531 304.988281 L 370.300781 305.511719 L 369.320312 306.03125 L 367.359375 307.03125 L 366.371094 307.511719 L 365.371094 307.988281 L 363.371094 308.910156 L 362.359375 309.351562 L 361.351562 309.789062 L 360.328125 310.210938 L 359.308594 310.628906 L 358.28125 311.03125 L 357.25 311.429688 L 356.21875 311.808594 L 354.140625 312.550781 L 353.101562 312.898438 L 352.050781 313.238281 L 351 313.570312 L 349.949219 313.898438 L 348.890625 314.210938 L 347.828125 314.511719 L 346.761719 314.800781 L 345.699219 315.078125 L 343.558594 315.601562 L 342.480469 315.851562 L 341.398438 316.078125 L 340.328125 316.308594 L 339.238281 316.519531 L 338.160156 316.730469 L 337.078125 316.921875 L 335.988281 317.101562 L 334.898438 317.269531 L 333.808594 317.429688 L 332.71875 317.578125 L 331.621094 317.71875 L 330.53125 317.851562 L 328.328125 318.070312 L 327.238281 318.160156 L 326.140625 318.25 L 325.039062 318.320312 L 323.941406 318.378906 L 322.839844 318.429688 L 321.730469 318.46875 L 320.628906 318.5 L 319.53125 318.519531 L 317.320312 318.519531 L 316.21875 318.5 L 315.121094 318.480469 L 314.019531 318.441406 L 312.921875 318.390625 L 311.820312 318.328125 L 310.71875 318.261719 L 309.621094 318.179688 L 308.519531 318.089844 L 307.421875 317.980469 L 306.320312 317.871094 L 305.230469 317.738281 L 304.140625 317.609375 L 303.039062 317.460938 L 301.949219 317.300781 L 300.859375 317.128906 L 299.78125 316.949219 L 298.691406 316.761719 L 297.609375 316.558594 L 296.519531 316.339844 L 295.441406 316.121094 L 294.371094 315.890625 L 293.289062 315.640625 L 292.21875 315.390625 L 291.148438 315.121094 L 290.078125 314.839844 L 287.960938 314.261719 L 286.898438 313.949219 L 285.851562 313.628906 L 284.789062 313.300781 L 283.75 312.960938 L 282.699219 312.601562 L 281.660156 312.238281 L 280.621094 311.871094 L 279.589844 311.488281 L 278.558594 311.101562 L 277.53125 310.691406 L 276.511719 310.28125 L 275.488281 309.859375 L 274.480469 309.421875 L 273.46875 308.980469 L 272.460938 308.53125 L 271.460938 308.058594 L 270.46875 307.589844 L 269.480469 307.101562 L 268.488281 306.609375 L 267.511719 306.109375 L 266.539062 305.589844 L 265.570312 305.070312 L 264.601562 304.539062 L 263.640625 304 L 262.691406 303.441406 L 261.738281 302.878906 L 260.789062 302.308594 L 259.859375 301.730469 L 258.929688 301.140625 L 258 300.539062 L 257.078125 299.941406 L 256.171875 299.320312 L 255.261719 298.691406 L 254.359375 298.058594 L 253.460938 297.410156 L 252.578125 296.761719 L 251.691406 296.101562 L 250.820312 295.429688 L 249.949219 294.75 L 249.089844 294.058594 L 248.238281 293.359375 L 247.390625 292.660156 L 246.550781 291.941406 L 245.71875 291.21875 L 244.890625 290.488281 L 244.070312 289.75 L 243.261719 289.011719 L 241.660156 287.488281 L 240.871094 286.71875 L 240.089844 285.941406 L 239.320312 285.148438 L 238.558594 284.359375 L 237.800781 283.558594 L 237.050781 282.75 L 236.308594 281.929688 L 235.578125 281.109375 L 234.851562 280.28125 L 234.140625 279.441406 L 233.429688 278.589844 L 232.730469 277.738281 L 232.039062 276.878906 L 231.359375 276.011719 L 230.691406 275.140625 L 230.019531 274.261719 L 229.371094 273.371094 L 228.71875 272.480469 L 228.078125 271.578125 L 227.460938 270.679688 L 226.839844 269.761719 L 226.230469 268.851562 L 225.628906 267.921875 L 225.03125 266.988281 L 224.449219 266.058594 L 223.878906 265.109375 L 223.308594 264.171875 L 222.761719 263.210938 L 222.21875 262.261719 L 221.679688 261.289062 L 220.640625 259.351562 L 220.128906 258.371094 L 219.640625 257.378906 L 219.148438 256.390625 L 218.679688 255.398438 L 218.210938 254.398438 L 217.75 253.398438 L 217.308594 252.390625 L 216.871094 251.378906 L 216.449219 250.359375 L 216.03125 249.339844 L 215.628906 248.308594 L 215.230469 247.289062 L 214.851562 246.25 L 214.46875 245.21875 L 214.109375 244.171875 L 213.75 243.128906 L 213.410156 242.078125 L 213.078125 241.03125 L 212.761719 239.980469 L 212.441406 238.921875 L 212.140625 237.859375 L 211.851562 236.800781 L 211.570312 235.730469 L 211.300781 234.660156 L 210.800781 232.519531 L 210.558594 231.441406 L 210.328125 230.359375 L 210.121094 229.28125 L 209.910156 228.199219 L 209.71875 227.109375 L 209.539062 226.019531 L 209.371094 224.929688 L 209.210938 223.839844 L 209.058594 222.75 L 208.921875 221.660156 L 208.789062 220.558594 L 208.671875 219.46875 L 208.558594 218.371094 L 208.46875 217.269531 L 208.378906 216.171875 L 208.308594 215.070312 L 208.25 213.96875 L 208.199219 212.871094 L 208.160156 211.769531 L 208.128906 210.671875 L 208.109375 209.570312 L 208.101562 208.460938 L 208.109375 207.359375 L 208.121094 206.261719 L 208.148438 205.160156 L 208.179688 204.050781 L 208.230469 202.949219 L 208.289062 201.851562 L 208.359375 200.75 L 208.441406 199.648438 L 208.53125 198.550781 L 208.640625 197.460938 L 208.75 196.359375 L 208.871094 195.261719 L 209.011719 194.171875 L 209.160156 193.078125 L 209.308594 191.988281 L 209.480469 190.898438 L 209.660156 189.808594 L 209.851562 188.71875 L 210.050781 187.640625 L 210.261719 186.558594 L 210.488281 185.480469 L 210.71875 184.398438 L 210.96875 183.328125 L 211.21875 182.25 L 211.488281 181.179688 L 211.761719 180.121094 L 212.050781 179.050781 L 212.351562 177.988281 L 212.648438 176.929688 L 212.96875 175.878906 L 213.300781 174.828125 L 213.640625 173.78125 L 213.988281 172.730469 L 214.351562 171.691406 L 214.730469 170.648438 L 215.109375 169.621094 L 215.5 168.589844 L 215.898438 167.558594 L 216.308594 166.539062 L 216.738281 165.519531 L 217.171875 164.511719 L 217.609375 163.5 L 218.058594 162.488281 L 218.53125 161.488281 L 219 160.5 L 219.480469 159.511719 L 219.980469 158.519531 L 220.480469 157.539062 L 220.988281 156.558594 L 221.511719 155.589844 L 222.039062 154.628906 L 222.589844 153.671875 L 223.140625 152.710938 L 223.699219 151.761719 L 224.269531 150.820312 L 224.851562 149.878906 L 226.03125 148.019531 L 226.640625 147.101562 L 227.261719 146.191406 L 227.878906 145.28125 L 228.519531 144.378906 L 229.160156 143.480469 L 229.808594 142.601562 L 230.46875 141.710938 L 231.148438 140.839844 L 231.820312 139.96875 L 232.511719 139.109375 L 233.210938 138.25 L 233.910156 137.398438 L 234.628906 136.558594 L 235.351562 135.730469 L 236.078125 134.898438 L 236.808594 134.089844 L 237.558594 133.269531 L 238.308594 132.46875 L 239.078125 131.671875 L 239.851562 130.878906 L 240.621094 130.101562 L 241.410156 129.328125 L 242.199219 128.570312 L 243 127.808594 L 243.808594 127.058594 L 244.628906 126.320312 L 245.449219 125.578125 L 246.28125 124.859375 L 247.121094 124.140625 L 247.96875 123.441406 L 248.820312 122.738281 L 249.679688 122.039062 L 250.539062 121.359375 L 251.421875 120.691406 L 252.289062 120.019531 L 253.179688 119.371094 L 254.070312 118.71875 L 254.96875 118.078125 L 255.878906 117.449219 L 256.789062 116.828125 L 257.710938 116.21875 L 258.628906 115.621094 L 259.558594 115.03125 L 260.5 114.449219 L 261.441406 113.871094 L 262.378906 113.308594 L 263.339844 112.75 L 264.289062 112.210938 L 265.261719 111.671875 L 266.230469 111.148438 L 267.199219 110.628906 L 268.179688 110.121094 L 269.160156 109.628906 L 270.148438 109.140625 L 271.148438 108.660156 L 273.148438 107.738281 L 274.160156 107.289062 L 275.171875 106.859375 L 276.179688 106.429688 L 277.210938 106.011719 L 278.230469 105.609375 L 279.261719 105.210938 L 280.289062 104.820312 L 281.328125 104.449219 L 282.371094 104.078125 L 283.410156 103.730469 L 285.511719 103.050781 L 286.558594 102.730469 L 287.621094 102.421875 L 288.679688 102.109375 L 289.738281 101.820312 L 290.808594 101.539062 L 291.878906 101.269531 L 292.949219 101.011719 L 294.03125 100.761719 L 295.101562 100.53125 L 296.179688 100.300781 L 297.261719 100.078125 L 298.339844 99.878906 L 299.429688 99.679688 L 300.519531 99.5 L 301.609375 99.328125 L 302.699219 99.171875 L 303.789062 99.011719 L 304.878906 98.871094 L 305.980469 98.75 L 307.070312 98.628906 L 308.171875 98.519531 L 309.269531 98.421875 L 310.371094 98.339844 L 311.46875 98.261719 L 312.570312 98.199219 L 313.671875 98.148438 L 314.769531 98.109375 L 315.871094 98.078125 L 316.96875 98.058594 L 318.078125 98.050781 L 319.179688 98.050781 L 320.28125 98.070312 L 321.378906 98.089844 L 322.480469 98.128906 L 323.589844 98.179688 L 324.691406 98.230469 L 325.789062 98.300781 L 326.890625 98.378906 L 327.980469 98.46875 L 329.078125 98.570312 L 330.179688 98.691406 L 331.269531 98.808594 L 332.371094 98.949219 L 333.460938 99.089844 L 334.550781 99.25 L 335.640625 99.421875 L 337.820312 99.78125 L 338.898438 99.980469 L 339.980469 100.199219 L 341.058594 100.421875 L 342.140625 100.648438 L 343.210938 100.890625 L 344.289062 101.148438 L 345.359375 101.410156 L 346.421875 101.691406 L 347.488281 101.96875 L 348.550781 102.269531 L 349.609375 102.578125 L 350.660156 102.898438 L 351.71875 103.21875 L 352.769531 103.558594 L 353.808594 103.910156 L 354.851562 104.269531 L 355.890625 104.640625 L 356.929688 105.019531 L 357.960938 105.421875 L 358.980469 105.820312 L 360.011719 106.230469 L 361.019531 106.648438 L 362.039062 107.078125 L 363.050781 107.519531 L 365.050781 108.441406 L 366.050781 108.910156 L 367.039062 109.390625 L 368.03125 109.878906 L 369.011719 110.390625 L 369.988281 110.898438 L 370.960938 111.421875 L 371.921875 111.949219 L 372.878906 112.488281 L 373.839844 113.039062 L 374.789062 113.601562 L 375.730469 114.171875 L 376.671875 114.75 L 378.53125 115.929688 L 379.449219 116.539062 L 380.371094 117.160156 L 381.269531 117.78125 L 382.179688 118.410156 L 383.070312 119.058594 L 383.960938 119.710938 L 384.839844 120.371094 L 385.71875 121.039062 L 386.589844 121.71875 L 387.449219 122.398438 L 388.308594 123.101562 L 389.148438 123.800781 L 390 124.519531 L 390.828125 125.238281 L 391.660156 125.96875 L 392.480469 126.699219 L 393.289062 127.449219 L 394.089844 128.199219 L 394.890625 128.960938 L 395.679688 129.730469 L 396.460938 130.511719 L 398 132.089844 L 398.761719 132.890625 L 399.511719 133.699219 L 400.25 134.511719 L 400.980469 135.328125 L 401.710938 136.171875 L 402.429688 137 L 403.128906 137.851562 L 403.839844 138.699219 L 404.53125 139.558594 L 405.210938 140.421875 L 405.878906 141.289062 L 406.550781 142.171875 L 407.210938 143.058594 L 407.851562 143.949219 L 408.488281 144.851562 L 409.121094 145.75 L 409.738281 146.660156 L 410.359375 147.578125 L 410.960938 148.5 L 411.550781 149.429688 L 412.128906 150.371094 L 412.710938 151.308594 L 413.269531 152.261719 L 413.828125 153.210938 L 414.378906 154.171875 L 414.910156 155.128906 L 415.441406 156.101562 L 415.960938 157.070312 L 416.960938 159.03125 L 417.449219 160.019531 L 417.929688 161.019531 L 418.390625 162.011719 L 418.851562 163.019531 L 419.300781 164.019531 L 419.738281 165.039062 L 420.160156 166.050781 L 420.578125 167.070312 L 420.988281 168.101562 L 421.390625 169.128906 L 422.148438 171.191406 L 422.511719 172.230469 L 422.871094 173.28125 L 423.210938 174.320312 L 423.550781 175.371094 L 424.191406 177.488281 L 424.488281 178.550781 L 424.78125 179.609375 L 425.058594 180.671875 L 425.328125 181.738281 L 425.589844 182.808594 L 425.839844 183.890625 L 426.078125 184.960938 L 426.308594 186.039062 L 426.53125 187.121094 L 426.730469 188.210938 L 426.929688 189.289062 L 427.289062 191.46875 L 427.449219 192.558594 L 427.601562 193.648438 L 427.738281 194.738281 L 427.871094 195.839844 L 427.988281 196.929688 L 428.101562 198.03125 L 428.191406 199.128906 L 428.28125 200.230469 L 428.359375 201.328125 L 428.421875 202.429688 L 428.46875 203.53125 L 428.519531 204.628906 L 428.550781 205.730469 L 428.570312 206.828125 L 428.578125 207.941406 " transform="matrix(1, 0, 0, -1, 0, 400)"/>
<path fill-rule="evenodd" fill="rgb(100%, 100%, 100%)" fill-opacity="1" d="M 452.101562 216.660156 L 570.199219 216.660156 L 570.199219 177.78125 L 452.101562 177.78125 "/>
<path fill="none" stroke-width="1" stroke-linecap="round" stroke-linejoin="round" stroke="rgb(0%, 0%, 0%)" stroke-opacity="1" stroke-miterlimit="10" d="M 452.101562 183.339844 L 570.199219 183.339844 L 570.199219 222.21875 L 452.101562 222.21875 L 452.101562 183.339844 " transform="matrix(1, 0, 0, -1, 0, 400)"/>
<path fill="none" stroke-width="1" stroke-linecap="round" stroke-linejoin="round" stroke="rgb(88.88855%, 43.559265%, 27.809143%)" stroke-opacity="1" stroke-miterlimit="10" d="M 458.089844 209.261719 L 494.070312 209.261719 " transform="matrix(1, 0, 0, -1, 0, 400)"/>
<path fill-rule="nonzero" fill="rgb(0%, 0%, 0%)" fill-opacity="1" d="M 504.949219 189.191406 C 504.949219 189.191406 504.949219 189.5 504.75 189.699219 C 504.75 189.699219 504.550781 189.898438 504.289062 189.898438 C 504.289062 189.898438 504.070312 189.898438 503.949219 189.769531 C 503.949219 189.769531 503.828125 189.640625 503.828125 189.480469 C 503.828125 189.480469 503.828125 189.25 504.019531 189.050781 C 504.019531 189.050781 504.199219 188.859375 504.460938 188.820312 C 504.460938 188.820312 504.269531 188.679688 503.960938 188.679688 C 503.960938 188.679688 503.449219 188.679688 503 189.070312 C 503 189.070312 502.800781 189.25 502.578125 189.589844 C 502.578125 189.589844 502.359375 189.910156 502.320312 190.050781 L 501.941406 191.621094 C 501.941406 191.621094 501.910156 191.789062 501.691406 192.640625 C 501.691406 192.640625 501.480469 193.46875 501.460938 193.511719 C 501.460938 193.511719 501.398438 193.671875 501.28125 193.761719 C 501.28125 193.761719 501.148438 193.851562 501.019531 193.851562 C 501.019531 193.851562 500.871094 193.851562 500.769531 193.761719 C 500.769531 193.761719 500.671875 193.671875 500.671875 193.519531 C 500.671875 193.519531 500.671875 193.5 500.691406 193.410156 C 500.691406 193.410156 500.710938 193.320312 500.738281 193.199219 C 500.738281 193.199219 500.769531 193.078125 500.78125 193.011719 L 501.46875 190.238281 C 501.46875 190.238281 501.601562 189.730469 501.628906 189.570312 C 501.628906 189.570312 501.671875 189.410156 501.671875 189.230469 C 501.671875 189.230469 501.671875 188.910156 501.570312 188.789062 C 501.570312 188.789062 501.46875 188.679688 501.289062 188.679688 C 501.289062 188.679688 500.988281 188.679688 500.789062 189.039062 C 500.789062 189.039062 500.589844 189.398438 500.421875 190.109375 C 500.421875 190.109375 500.371094 190.300781 500.328125 190.339844 C 500.328125 190.339844 500.300781 190.378906 500.21875 190.378906 C 500.21875 190.378906 500.070312 190.378906 500.070312 190.261719 C 500.070312 190.261719 500.070312 190.230469 500.121094 190.039062 C 500.121094 190.039062 500.160156 189.851562 500.25 189.570312 C 500.25 189.570312 500.339844 189.28125 500.441406 189.101562 C 500.441406 189.101562 500.5 188.980469 500.550781 188.890625 C 500.550781 188.890625 500.609375 188.808594 500.710938 188.679688 C 500.710938 188.679688 500.820312 188.550781 500.980469 188.480469 C 500.980469 188.480469 501.128906 188.410156 501.328125 188.410156 C 501.328125 188.410156 501.75 188.410156 502.050781 188.671875 C 502.050781 188.671875 502.351562 188.929688 502.421875 189.328125 C 502.421875 189.328125 502.570312 189.121094 502.75 188.941406 C 502.75 188.941406 502.929688 188.75 503.269531 188.578125 C 503.269531 188.578125 503.601562 188.410156 503.960938 188.410156 C 503.960938 188.410156 504.398438 188.410156 504.679688 188.640625 C 504.679688 188.640625 504.949219 188.871094 504.949219 189.191406 Z M 504.949219 189.191406 "/>
<path fill-rule="nonzero" fill="rgb(0%, 0%, 0%)" fill-opacity="1" d="M 508.75 191.890625 C 508.75 191.890625 508.761719 191.75 508.988281 191.75 L 516.339844 191.75 C 516.339844 191.75 516.679688 191.75 516.691406 191.878906 C 516.691406 191.878906 516.691406 192.03125 516.359375 192.019531 L 509.070312 192.019531 C 509.070312 192.019531 508.75 192.03125 508.75 191.890625 M 508.75 189.550781 C 508.75 189.550781 508.75 189.398438 509 189.410156 L 516.320312 189.410156 C 516.320312 189.410156 516.679688 189.410156 516.691406 189.550781 C 516.691406 189.550781 516.691406 189.679688 516.378906 189.679688 L 508.988281 189.679688 C 508.988281 189.679688 508.75 189.679688 508.75 189.550781 Z M 508.75 189.550781 "/>
<path fill-rule="nonzero" fill="rgb(0%, 0%, 0%)" fill-opacity="1" d="M 521.308594 193.710938 C 521.308594 193.710938 521.308594 193.5 521.328125 193.429688 C 521.328125 193.429688 521.351562 193.371094 521.441406 193.269531 L 523.75 190.699219 C 523.75 190.699219 525 189.289062 525 188.050781 C 525 188.050781 525 187.25 524.578125 186.679688 C 524.578125 186.679688 524.171875 186.101562 523.398438 186.101562 C 523.398438 186.101562 522.871094 186.101562 522.429688 186.421875 C 522.429688 186.421875 521.980469 186.75 521.78125 187.320312 C 521.78125 187.320312 521.808594 187.308594 521.941406 187.308594 C 521.941406 187.308594 522.238281 187.308594 522.398438 187.488281 C 522.398438 187.488281 522.570312 187.679688 522.570312 187.929688 C 522.570312 187.929688 522.570312 188.261719 522.359375 188.410156 C 522.359375 188.410156 522.148438 188.570312 521.949219 188.570312 C 521.949219 188.570312 521.871094 188.570312 521.75 188.550781 C 521.75 188.550781 521.648438 188.53125 521.480469 188.371094 C 521.480469 188.371094 521.308594 188.199219 521.308594 187.898438 C 521.308594 187.898438 521.308594 187.058594 521.941406 186.390625 C 521.941406 186.390625 522.578125 185.730469 523.550781 185.730469 C 523.550781 185.730469 524.648438 185.730469 525.371094 186.378906 C 525.371094 186.378906 526.101562 187.03125 526.101562 188.050781 C 526.101562 188.050781 526.101562 188.410156 525.988281 188.738281 C 525.988281 188.738281 525.878906 189.058594 525.738281 189.308594 C 525.738281 189.308594 525.601562 189.558594 525.210938 189.96875 C 525.210938 189.96875 524.820312 190.371094 524.511719 190.660156 C 524.511719 190.660156 524.199219 190.941406 523.511719 191.550781 L 522.238281 192.789062 L 524.398438 192.789062 C 524.398438 192.789062 525.449219 192.789062 525.53125 192.691406 C 525.53125 192.691406 525.648438 192.519531 525.800781 191.628906 L 526.101562 191.628906 L 525.761719 193.710938 Z M 521.308594 193.710938 "/>
<path fill-rule="nonzero" fill="rgb(0%, 0%, 0%)" fill-opacity="1" d="M 527.25 193.558594 L 527.25 191.96875 C 527.25 191.96875 527.25 191.839844 527.25 191.789062 C 527.25 191.789062 527.261719 191.75 527.289062 191.710938 C 527.289062 191.710938 527.328125 191.679688 527.398438 191.679688 C 527.398438 191.679688 527.480469 191.679688 527.511719 191.710938 C 527.511719 191.710938 527.550781 191.75 527.570312 191.878906 C 527.570312 191.878906 527.75 192.710938 528.140625 193.148438 C 528.140625 193.148438 528.53125 193.578125 529.238281 193.578125 C 529.238281 193.578125 529.910156 193.578125 530.25 193.28125 C 530.25 193.28125 530.589844 192.980469 530.589844 192.488281 C 530.589844 192.488281 530.589844 191.609375 529.339844 191.390625 C 529.339844 191.390625 528.621094 191.238281 528.320312 191.148438 C 528.320312 191.148438 528.03125 191.050781 527.761719 190.828125 C 527.761719 190.828125 527.25 190.410156 527.25 189.808594 C 527.25 189.808594 527.25 189.21875 527.699219 188.78125 C 527.699219 188.78125 528.148438 188.339844 529.160156 188.339844 C 529.160156 188.339844 529.839844 188.339844 530.289062 188.679688 C 530.289062 188.679688 530.429688 188.570312 530.5 188.480469 C 530.5 188.480469 530.660156 188.339844 530.738281 188.339844 C 530.738281 188.339844 530.828125 188.339844 530.851562 188.398438 C 530.851562 188.398438 530.871094 188.460938 530.871094 188.628906 L 530.871094 189.839844 C 530.871094 189.839844 530.871094 189.96875 530.859375 190.019531 C 530.859375 190.019531 530.851562 190.070312 530.820312 190.101562 C 530.820312 190.101562 530.78125 190.128906 530.710938 190.128906 C 530.710938 190.128906 530.570312 190.128906 530.570312 190.019531 C 530.570312 190.019531 530.46875 188.570312 529.160156 188.570312 C 529.160156 188.570312 528.449219 188.570312 528.140625 188.839844 C 528.140625 188.839844 527.820312 189.109375 527.820312 189.480469 C 527.820312 189.480469 527.820312 189.679688 527.910156 189.839844 C 527.910156 189.839844 528.011719 190 528.140625 190.089844 C 528.140625 190.089844 528.269531 190.179688 528.5 190.261719 C 528.5 190.261719 528.730469 190.351562 528.878906 190.378906 C 528.878906 190.378906 529.019531 190.410156 529.300781 190.460938 C 529.300781 190.460938 530.261719 190.648438 530.660156 191.039062 C 530.660156 191.039062 531.160156 191.539062 531.160156 192.179688 C 531.160156 192.179688 531.160156 192.890625 530.679688 193.371094 C 530.679688 193.371094 530.199219 193.851562 529.238281 193.851562 C 529.238281 193.851562 528.460938 193.851562 527.910156 193.328125 C 527.910156 193.328125 527.839844 193.398438 527.789062 193.460938 C 527.789062 193.460938 527.738281 193.519531 527.71875 193.539062 C 527.71875 193.539062 527.699219 193.570312 527.691406 193.578125 C 527.691406 193.578125 527.691406 193.601562 527.671875 193.609375 C 527.671875 193.609375 527.429688 193.851562 527.378906 193.851562 C 527.378906 193.851562 527.28125 193.851562 527.261719 193.78125 C 527.261719 193.78125 527.25 193.730469 527.25 193.558594 Z M 527.25 193.558594 "/>
<path fill-rule="nonzero" fill="rgb(0%, 0%, 0%)" fill-opacity="1" d="M 531.871094 191.070312 C 531.871094 191.070312 531.871094 189.941406 532.601562 189.140625 C 532.601562 189.140625 533.328125 188.339844 534.371094 188.339844 C 534.371094 188.339844 535.421875 188.339844 535.96875 189.019531 C 535.96875 189.019531 536.519531 189.710938 536.519531 190.691406 C 536.519531 190.691406 536.519531 190.871094 536.46875 190.910156 C 536.46875 190.910156 536.421875 190.941406 536.21875 190.941406 L 532.871094 190.941406 C 532.871094 190.941406 532.871094 192.171875 533.230469 192.738281 C 533.230469 192.738281 533.730469 193.539062 534.578125 193.539062 C 534.578125 193.539062 534.699219 193.539062 534.839844 193.519531 C 534.839844 193.519531 534.980469 193.5 535.269531 193.398438 C 535.269531 193.398438 535.558594 193.289062 535.808594 193.019531 C 535.808594 193.019531 536.058594 192.738281 536.210938 192.308594 C 536.210938 192.308594 536.238281 192.140625 536.359375 192.140625 C 536.359375 192.140625 536.519531 192.140625 536.519531 192.28125 C 536.519531 192.28125 536.519531 192.390625 536.398438 192.628906 C 536.398438 192.628906 536.289062 192.859375 536.070312 193.148438 C 536.070312 193.148438 535.851562 193.429688 535.429688 193.640625 C 535.429688 193.640625 535.019531 193.851562 534.511719 193.851562 C 534.511719 193.851562 533.460938 193.851562 532.660156 193.050781 C 532.660156 193.050781 531.871094 192.25 531.871094 191.070312 M 532.878906 190.691406 L 535.730469 190.691406 C 535.730469 190.691406 535.730469 190.441406 535.679688 190.160156 C 535.679688 190.160156 535.640625 189.878906 535.511719 189.488281 C 535.511719 189.488281 535.390625 189.101562 535.089844 188.851562 C 535.089844 188.851562 534.800781 188.609375 534.371094 188.609375 C 534.371094 188.609375 534.171875 188.609375 533.960938 188.691406 C 533.960938 188.691406 533.761719 188.769531 533.511719 188.96875 C 533.511719 188.96875 533.25 189.171875 533.078125 189.621094 C 533.078125 189.621094 532.898438 190.070312 532.878906 190.691406 Z M 532.878906 190.691406 "/>
<path fill-rule="nonzero" fill="rgb(0%, 0%, 0%)" fill-opacity="1" d="M 536.898438 193.710938 L 536.898438 193.339844 C 536.898438 193.339844 537.539062 193.339844 537.691406 193.269531 C 537.691406 193.269531 537.828125 193.191406 537.828125 192.800781 L 537.828125 189.589844 C 537.828125 189.589844 537.828125 189.140625 537.679688 189.03125 C 537.679688 189.03125 537.519531 188.921875 536.898438 188.921875 L 536.898438 188.539062 L 538.589844 188.410156 L 538.589844 189.671875 C 538.589844 189.671875 539.148438 188.410156 540.359375 188.410156 C 540.359375 188.410156 541.269531 188.410156 541.621094 188.859375 C 541.621094 188.859375 541.890625 189.160156 541.941406 189.488281 C 541.941406 189.488281 542 189.828125 542 190.691406 L 542 192.980469 C 542 192.980469 542.011719 193.230469 542.199219 193.289062 C 542.199219 193.289062 542.398438 193.339844 542.929688 193.339844 L 542.929688 193.710938 C 542.929688 193.710938 541.710938 193.679688 541.589844 193.679688 C 541.589844 193.679688 541.488281 193.679688 540.238281 193.710938 L 540.238281 193.339844 C 540.238281 193.339844 540.871094 193.339844 541.019531 193.269531 C 541.019531 193.269531 541.171875 193.191406 541.171875 192.800781 L 541.171875 190.011719 C 541.171875 190.011719 541.171875 189.398438 540.980469 189.039062 C 540.980469 189.039062 540.800781 188.679688 540.28125 188.679688 C 540.28125 188.679688 539.660156 188.679688 539.160156 189.199219 C 539.160156 189.199219 538.671875 189.71875 538.671875 190.601562 L 538.671875 192.800781 C 538.671875 192.800781 538.671875 193.191406 538.808594 193.269531 C 538.808594 193.269531 538.960938 193.339844 539.601562 193.339844 L 539.601562 193.710938 C 539.601562 193.710938 538.371094 193.679688 538.261719 193.679688 C 538.261719 193.679688 538.160156 193.679688 536.898438 193.710938 Z M 536.898438 193.710938 "/>
<path fill-rule="nonzero" fill="rgb(0%, 0%, 0%)" fill-opacity="1" d="M 543.488281 190.71875 C 543.488281 190.71875 543.488281 188.691406 544.25 187.058594 C 544.25 187.058594 544.570312 186.371094 545.019531 185.800781 C 545.019531 185.800781 545.46875 185.21875 545.769531 184.96875 C 545.769531 184.96875 546.070312 184.71875 546.148438 184.71875 C 546.148438 184.71875 546.269531 184.71875 546.269531 184.839844 C 546.269531 184.839844 546.269531 184.898438 546.109375 185.039062 C 546.109375 185.039062 544.179688 187.011719 544.191406 190.71875 C 544.191406 190.71875 544.191406 194.429688 546.070312 196.328125 C 546.070312 196.328125 546.269531 196.53125 546.269531 196.589844 C 546.269531 196.589844 546.269531 196.710938 546.148438 196.710938 C 546.148438 196.710938 546.070312 196.710938 545.78125 196.46875 C 545.78125 196.46875 545.488281 196.230469 545.050781 195.679688 C 545.050781 195.679688 544.601562 195.128906 544.28125 194.460938 C 544.28125 194.460938 543.488281 192.820312 543.488281 190.71875 Z M 543.488281 190.71875 "/>
<path fill-rule="nonzero" fill="rgb(0%, 0%, 0%)" fill-opacity="1" d="M 547.421875 193.710938 C 547.421875 193.710938 547.421875 193.5 547.441406 193.429688 C 547.441406 193.429688 547.460938 193.371094 547.558594 193.269531 L 549.859375 190.699219 C 549.859375 190.699219 551.121094 189.289062 551.121094 188.050781 C 551.121094 188.050781 551.121094 187.25 550.699219 186.679688 C 550.699219 186.679688 550.28125 186.101562 549.511719 186.101562 C 549.511719 186.101562 548.988281 186.101562 548.539062 186.421875 C 548.539062 186.421875 548.101562 186.75 547.890625 187.320312 C 547.890625 187.320312 547.929688 187.308594 548.050781 187.308594 C 548.050781 187.308594 548.351562 187.308594 548.511719 187.488281 C 548.511719 187.488281 548.679688 187.679688 548.679688 187.929688 C 548.679688 187.929688 548.679688 188.261719 548.46875 188.410156 C 548.46875 188.410156 548.269531 188.570312 548.058594 188.570312 C 548.058594 188.570312 547.980469 188.570312 547.871094 188.550781 C 547.871094 188.550781 547.761719 188.53125 547.589844 188.371094 C 547.589844 188.371094 547.421875 188.199219 547.421875 187.898438 C 547.421875 187.898438 547.421875 187.058594 548.050781 186.390625 C 548.050781 186.390625 548.691406 185.730469 549.660156 185.730469 C 549.660156 185.730469 550.769531 185.730469 551.488281 186.378906 C 551.488281 186.378906 552.210938 187.03125 552.210938 188.050781 C 552.210938 188.050781 552.210938 188.410156 552.101562 188.738281 C 552.101562 188.738281 552 189.058594 551.851562 189.308594 C 551.851562 189.308594 551.710938 189.558594 551.320312 189.96875 C 551.320312 189.96875 550.941406 190.371094 550.628906 190.660156 C 550.628906 190.660156 550.308594 190.941406 549.621094 191.550781 L 548.351562 192.789062 L 550.511719 192.789062 C 550.511719 192.789062 551.558594 192.789062 551.640625 192.691406 C 551.640625 192.691406 551.761719 192.519531 551.910156 191.628906 L 552.210938 191.628906 L 551.871094 193.710938 Z M 547.421875 193.710938 "/>
<path fill-rule="nonzero" fill="rgb(0%, 0%, 0%)" fill-opacity="1" d="M 558.359375 187.71875 C 558.359375 187.71875 558.359375 188.699219 558.050781 189.808594 C 558.050781 189.808594 557.738281 190.910156 557.238281 191.800781 C 557.238281 191.800781 556.75 192.679688 556.109375 193.269531 C 556.109375 193.269531 555.460938 193.851562 554.851562 193.851562 C 554.851562 193.851562 554.460938 193.851562 554.160156 193.628906 C 554.160156 193.628906 553.878906 193.410156 553.71875 193.039062 C 553.71875 193.039062 553.558594 192.671875 553.480469 192.261719 C 553.480469 192.261719 553.410156 191.839844 553.410156 191.390625 C 553.410156 191.390625 553.410156 190.71875 553.550781 189.980469 C 553.550781 189.980469 553.699219 189.25 553.949219 188.578125 C 553.949219 188.578125 554.191406 187.898438 554.539062 187.300781 C 554.539062 187.300781 554.878906 186.679688 555.261719 186.238281 C 555.261719 186.238281 555.648438 185.789062 556.078125 185.519531 C 556.078125 185.519531 556.519531 185.261719 556.921875 185.261719 C 556.921875 185.261719 557.210938 185.261719 557.449219 185.390625 C 557.449219 185.390625 557.691406 185.511719 557.839844 185.730469 C 557.839844 185.730469 557.988281 185.941406 558.101562 186.191406 C 558.101562 186.191406 558.210938 186.441406 558.261719 186.730469 C 558.261719 186.730469 558.308594 187.019531 558.339844 187.261719 C 558.339844 187.261719 558.359375 187.488281 558.359375 187.71875 M 557.570312 186.96875 C 557.570312 186.96875 557.570312 186.679688 557.550781 186.449219 C 557.550781 186.449219 557.519531 186.21875 557.460938 186 C 557.460938 186 557.398438 185.769531 557.25 185.640625 C 557.25 185.640625 557.121094 185.519531 556.910156 185.519531 C 556.910156 185.519531 556.289062 185.519531 555.601562 186.78125 C 555.601562 186.78125 555.378906 187.171875 555.179688 187.710938 C 555.179688 187.710938 554.980469 188.238281 554.910156 188.488281 C 554.910156 188.488281 554.839844 188.738281 554.679688 189.359375 L 557.179688 189.359375 C 557.179688 189.359375 557.570312 187.761719 557.570312 186.96875 M 557.078125 189.738281 L 554.578125 189.738281 C 554.578125 189.738281 554.199219 191.210938 554.199219 192.121094 C 554.199219 192.121094 554.199219 192.921875 554.359375 193.25 C 554.359375 193.25 554.53125 193.578125 554.851562 193.578125 C 554.851562 193.578125 555.210938 193.578125 555.550781 193.21875 C 555.550781 193.21875 555.890625 192.851562 556.238281 192.179688 C 556.238281 192.179688 556.691406 191.308594 557.078125 189.738281 Z M 557.078125 189.738281 "/>
<path fill-rule="nonzero" fill="rgb(0%, 0%, 0%)" fill-opacity="1" d="M 559.601562 196.589844 C 559.601562 196.589844 559.601562 196.539062 559.75 196.390625 C 559.75 196.390625 561.679688 194.421875 561.679688 190.71875 C 561.679688 190.71875 561.679688 187 559.828125 185.121094 C 559.828125 185.121094 559.601562 184.898438 559.601562 184.839844 C 559.601562 184.839844 559.601562 184.71875 559.71875 184.71875 C 559.71875 184.71875 559.800781 184.71875 560.078125 184.960938 C 560.078125 184.960938 560.378906 185.199219 560.820312 185.75 C 560.820312 185.75 561.261719 186.300781 561.589844 186.96875 C 561.589844 186.96875 562.378906 188.609375 562.378906 190.71875 C 562.378906 190.71875 562.378906 192.738281 561.621094 194.378906 C 561.621094 194.378906 561.300781 195.058594 560.851562 195.628906 C 560.851562 195.628906 560.398438 196.210938 560.101562 196.460938 C 560.101562 196.460938 559.800781 196.710938 559.71875 196.710938 C 559.71875 196.710938 559.601562 196.710938 559.601562 196.589844 Z M 559.601562 196.589844 "/>
<path fill="none" stroke-width="1" stroke-linecap="round" stroke-linejoin="round" stroke="rgb(27.449036%, 50.979614%, 70.588684%)" stroke-opacity="1" stroke-miterlimit="10" d="M 458.089844 196.300781 L 494.070312 196.300781 " transform="matrix(1, 0, 0, -1, 0, 400)"/>
<path fill-rule="nonzero" fill="rgb(0%, 0%, 0%)" fill-opacity="1" d="M 504.949219 203.070312 C 504.949219 203.070312 504.949219 203.378906 504.75 203.578125 C 504.75 203.578125 504.550781 203.78125 504.289062 203.78125 C 504.289062 203.78125 504.070312 203.78125 503.949219 203.648438 C 503.949219 203.648438 503.828125 203.519531 503.828125 203.359375 C 503.828125 203.359375 503.828125 203.128906 504.019531 202.929688 C 504.019531 202.929688 504.199219 202.738281 504.460938 202.699219 C 504.460938 202.699219 504.269531 202.558594 503.960938 202.558594 C 503.960938 202.558594 503.449219 202.558594 503 202.949219 C 503 202.949219 502.800781 203.128906 502.578125 203.46875 C 502.578125 203.46875 502.359375 203.789062 502.320312 203.929688 L 501.941406 205.5 C 501.941406 205.5 501.910156 205.671875 501.691406 206.519531 C 501.691406 206.519531 501.480469 207.351562 501.460938 207.390625 C 501.460938 207.390625 501.398438 207.550781 501.28125 207.640625 C 501.28125 207.640625 501.148438 207.730469 501.019531 207.730469 C 501.019531 207.730469 500.871094 207.730469 500.769531 207.640625 C 500.769531 207.640625 500.671875 207.550781 500.671875 207.398438 C 500.671875 207.398438 500.671875 207.378906 500.691406 207.289062 C 500.691406 207.289062 500.710938 207.199219 500.738281 207.078125 C 500.738281 207.078125 500.769531 206.960938 500.78125 206.890625 L 501.46875 204.121094 C 501.46875 204.121094 501.601562 203.609375 501.628906 203.449219 C 501.628906 203.449219 501.671875 203.289062 501.671875 203.109375 C 501.671875 203.109375 501.671875 202.789062 501.570312 202.671875 C 501.570312 202.671875 501.46875 202.558594 501.289062 202.558594 C 501.289062 202.558594 500.988281 202.558594 500.789062 202.921875 C 500.789062 202.921875 500.589844 203.28125 500.421875 203.988281 C 500.421875 203.988281 500.371094 204.179688 500.328125 204.21875 C 500.328125 204.21875 500.300781 204.261719 500.21875 204.261719 C 500.21875 204.261719 500.070312 204.261719 500.070312 204.140625 C 500.070312 204.140625 500.070312 204.109375 500.121094 203.921875 C 500.121094 203.921875 500.160156 203.730469 500.25 203.449219 C 500.25 203.449219 500.339844 203.160156 500.441406 202.980469 C 500.441406 202.980469 500.5 202.859375 500.550781 202.769531 C 500.550781 202.769531 500.609375 202.691406 500.710938 202.558594 C 500.710938 202.558594 500.820312 202.429688 500.980469 202.359375 C 500.980469 202.359375 501.128906 202.289062 501.328125 202.289062 C 501.328125 202.289062 501.75 202.289062 502.050781 202.550781 C 502.050781 202.550781 502.351562 202.808594 502.421875 203.210938 C 502.421875 203.210938 502.570312 203 502.75 202.820312 C 502.75 202.820312 502.929688 202.628906 503.269531 202.460938 C 503.269531 202.460938 503.601562 202.289062 503.960938 202.289062 C 503.960938 202.289062 504.398438 202.289062 504.679688 202.519531 C 504.679688 202.519531 504.949219 202.75 504.949219 203.070312 Z M 504.949219 203.070312 "/>
<path fill-rule="nonzero" fill="rgb(0%, 0%, 0%)" fill-opacity="1" d="M 508.75 205.769531 C 508.75 205.769531 508.761719 205.628906 508.988281 205.628906 L 516.339844 205.628906 C 516.339844 205.628906 516.679688 205.628906 516.691406 205.761719 C 516.691406 205.761719 516.691406 205.910156 516.359375 205.898438 L 509.070312 205.898438 C 509.070312 205.898438 508.75 205.910156 508.75 205.769531 M 508.75 203.429688 C 508.75 203.429688 508.75 203.28125 509 203.289062 L 516.320312 203.289062 C 516.320312 203.289062 516.679688 203.289062 516.691406 203.429688 C 516.691406 203.429688 516.691406 203.558594 516.378906 203.558594 L 508.988281 203.558594 C 508.988281 203.558594 508.75 203.558594 508.75 203.429688 Z M 508.75 203.429688 "/>
<path fill-rule="nonzero" fill="rgb(0%, 0%, 0%)" fill-opacity="1" d="M 521.308594 200.75 L 521.308594 200.371094 C 521.308594 200.371094 522.75 200.371094 523.488281 199.609375 C 523.488281 199.609375 523.699219 199.609375 523.730469 199.648438 C 523.730469 199.648438 523.769531 199.699219 523.769531 199.921875 L 523.769531 206.640625 C 523.769531 206.640625 523.769531 207 523.941406 207.109375 C 523.941406 207.109375 524.121094 207.21875 524.890625 207.21875 L 525.269531 207.21875 L 525.269531 207.589844 C 525.269531 207.589844 524.851562 207.558594 523.320312 207.558594 C 523.320312 207.558594 521.800781 207.558594 521.390625 207.589844 L 521.390625 207.21875 L 521.769531 207.21875 C 521.769531 207.21875 522.519531 207.21875 522.699219 207.121094 C 522.699219 207.121094 522.890625 207.011719 522.890625 206.640625 L 522.890625 200.429688 C 522.890625 200.429688 522.261719 200.75 521.308594 200.75 Z M 521.308594 200.75 "/>
</svg>
