<?xml version="1.0" encoding="UTF-8" standalone="no"?>
<svg
   width="600"
   height="450"
   viewBox="0 0 600 450"
   version="1.1"
   id="svg83"
   sodipodi:docname="piscina-polar.svg"
   inkscape:version="1.4.3 (0d15f75042, 2025-12-25)"
   inkscape:export-filename="piscina-polar.png"
   inkscape:export-xdpi="96"
   inkscape:export-ydpi="96"
   xmlns:inkscape="http://www.inkscape.org/namespaces/inkscape"
   xmlns:sodipodi="http://sodipodi.sourceforge.net/DTD/sodipodi-0.dtd"
   xmlns:xlink="http://www.w3.org/1999/xlink"
   xmlns="http://www.w3.org/2000/svg"
   xmlns:svg="http://www.w3.org/2000/svg">
  <sodipodi:namedview
     id="namedview83"
     pagecolor="#ffffff"
     bordercolor="#000000"
     borderopacity="0.25"
     inkscape:showpageshadow="2"
     inkscape:pageopacity="0.0"
     inkscape:pagecheckerboard="0"
     inkscape:deskcolor="#d1d1d1"
     inkscape:zoom="1.4666667"
     inkscape:cx="299.65909"
     inkscape:cy="225"
     inkscape:window-width="1025"
     inkscape:window-height="1381"
     inkscape:window-x="0"
     inkscape:window-y="0"
     inkscape:window-maximized="0"
     inkscape:current-layer="svg83" />
  <defs
     id="defs31">
    <g
       id="g30">
      <g
         id="glyph-0-0-00cccd60">
        <path
           d="M 7.09375 -4.78125 C 7.09375 -1.515625 5.953125 0.203125 3.84375 0.203125 C 1.71875 0.203125 0.609375 -1.515625 0.609375 -4.859375 C 0.609375 -8.1875 1.703125 -9.921875 3.84375 -9.921875 C 6 -9.921875 7.09375 -8.21875 7.09375 -4.78125 Z M 5.84375 -4.890625 C 5.84375 -7.546875 5.1875 -8.828125 3.84375 -8.828125 C 2.515625 -8.828125 1.859375 -7.5625 1.859375 -4.84375 C 1.859375 -2.125 2.515625 -0.8125 3.828125 -0.8125 C 5.1875 -0.8125 5.84375 -2.078125 5.84375 -4.890625 Z M 5.84375 -4.890625 "
           id="path1" />
      </g>
      <g
         id="glyph-0-1-00cccd60">
        <path
           d="M 7.15625 -7.015625 C 7.15625 -5.796875 6.4375 -4.765625 5.046875 -4.015625 C 5.046875 -4.015625 3.65625 -3.265625 3.65625 -3.265625 C 2.4375 -2.546875 1.984375 -2.03125 1.859375 -1.21875 C 1.859375 -1.21875 7.078125 -1.21875 7.078125 -1.21875 C 7.078125 -1.21875 7.078125 0 7.078125 0 C 7.078125 0 0.46875 0 0.46875 0 C 0.59375 -2.1875 1.1875 -3.125 3.265625 -4.296875 C 3.265625 -4.296875 4.546875 -5.03125 4.546875 -5.03125 C 5.4375 -5.53125 5.890625 -6.203125 5.890625 -6.984375 C 5.890625 -8.046875 5.046875 -8.84375 3.9375 -8.84375 C 2.71875 -8.84375 2.03125 -8.140625 1.9375 -6.484375 C 1.9375 -6.484375 0.703125 -6.484375 0.703125 -6.484375 C 0.765625 -8.890625 1.953125 -9.921875 3.96875 -9.921875 C 5.859375 -9.921875 7.15625 -8.6875 7.15625 -7.015625 Z M 7.15625 -7.015625 "
           id="path2" />
      </g>
      <g
         id="glyph-0-2-00cccd60">
        <path
           d="M 7.28125 -2.375 C 7.28125 -2.375 5.8125 -2.375 5.8125 -2.375 C 5.8125 -2.375 5.8125 0 5.8125 0 C 5.8125 0 4.578125 0 4.578125 0 C 4.578125 0 4.578125 -2.375 4.578125 -2.375 C 4.578125 -2.375 0.390625 -2.375 0.390625 -2.375 C 0.390625 -2.375 0.390625 -3.6875 0.390625 -3.6875 C 0.390625 -3.6875 4.90625 -9.921875 4.90625 -9.921875 C 4.90625 -9.921875 5.8125 -9.921875 5.8125 -9.921875 C 5.8125 -9.921875 5.8125 -3.484375 5.8125 -3.484375 C 5.8125 -3.484375 7.28125 -3.484375 7.28125 -3.484375 C 7.28125 -3.484375 7.28125 -2.375 7.28125 -2.375 Z M 4.578125 -3.484375 C 4.578125 -3.484375 4.578125 -7.828125 4.578125 -7.828125 C 4.578125 -7.828125 1.46875 -3.484375 1.46875 -3.484375 C 1.46875 -3.484375 4.578125 -3.484375 4.578125 -3.484375 Z M 4.578125 -3.484375 "
           id="path3" />
      </g>
      <g
         id="glyph-0-3-00cccd60">
        <path
           d="M 7.1875 -3.078125 C 7.1875 -1.140625 5.828125 0.203125 3.9375 0.203125 C 1.671875 0.203125 0.609375 -1.421875 0.609375 -4.515625 C 0.609375 -7.984375 1.84375 -9.921875 4.15625 -9.921875 C 5.671875 -9.921875 6.734375 -8.953125 6.96875 -7.34375 C 6.96875 -7.34375 5.734375 -7.34375 5.734375 -7.34375 C 5.546875 -8.28125 4.9375 -8.828125 4.078125 -8.828125 C 2.65625 -8.828125 1.875 -7.484375 1.859375 -5.0625 C 2.390625 -5.796875 3.15625 -6.171875 4.140625 -6.171875 C 5.921875 -6.171875 7.1875 -4.921875 7.1875 -3.078125 Z M 5.921875 -2.984375 C 5.921875 -4.3125 5.1875 -5.078125 3.984375 -5.078125 C 2.765625 -5.078125 1.9375 -4.28125 1.9375 -3.046875 C 1.9375 -1.78125 2.796875 -0.875 3.953125 -0.875 C 5.078125 -0.875 5.921875 -1.734375 5.921875 -2.984375 Z M 5.921875 -2.984375 "
           id="path4" />
      </g>
      <g
         id="glyph-0-4-00cccd60">
        <path
           d="M 7.1875 -2.796875 C 7.1875 -1 5.8125 0.203125 3.84375 0.203125 C 1.890625 0.203125 0.515625 -1 0.515625 -2.8125 C 0.515625 -3.90625 1.078125 -4.671875 2.21875 -5.21875 C 1.203125 -5.859375 0.875 -6.359375 0.875 -7.28125 C 0.875 -8.828125 2.09375 -9.921875 3.84375 -9.921875 C 5.609375 -9.921875 6.828125 -8.828125 6.828125 -7.28125 C 6.828125 -6.34375 6.5 -5.84375 5.46875 -5.21875 C 6.625 -4.671875 7.1875 -3.90625 7.1875 -2.796875 Z M 5.578125 -7.25 C 5.578125 -8.21875 4.90625 -8.828125 3.84375 -8.828125 C 2.8125 -8.828125 2.125 -8.21875 2.125 -7.265625 C 2.125 -6.328125 2.8125 -5.71875 3.84375 -5.71875 C 4.890625 -5.71875 5.578125 -6.328125 5.578125 -7.25 Z M 5.921875 -2.78125 C 5.921875 -3.953125 5.078125 -4.671875 3.84375 -4.671875 C 2.625 -4.671875 1.78125 -3.953125 1.78125 -2.78125 C 1.78125 -1.625 2.625 -0.875 3.828125 -0.875 C 5.078125 -0.875 5.921875 -1.609375 5.921875 -2.78125 Z M 5.921875 -2.78125 "
           id="path5" />
      </g>
      <g
         id="glyph-1-0-00cccd60">
        <path
           d="M 6.4375 -4.484375 C 6.4375 -5.59375 6.375 -6.71875 5.875 -7.75 C 5.234375 -9.09375 4.09375 -9.328125 3.5 -9.328125 C 2.65625 -9.328125 1.640625 -8.953125 1.0625 -7.65625 C 0.609375 -6.6875 0.546875 -5.59375 0.546875 -4.484375 C 0.546875 -3.4375 0.609375 -2.171875 1.171875 -1.109375 C 1.78125 0.03125 2.796875 0.3125 3.484375 0.3125 C 4.234375 0.3125 5.3125 0.015625 5.921875 -1.3125 C 6.375 -2.28125 6.4375 -3.375 6.4375 -4.484375 Z M 5.28125 -4.640625 C 5.28125 -3.59375 5.28125 -2.640625 5.125 -1.75 C 4.90625 -0.421875 4.109375 0 3.484375 0 C 2.9375 0 2.109375 -0.34375 1.859375 -1.6875 C 1.703125 -2.53125 1.703125 -3.828125 1.703125 -4.640625 C 1.703125 -5.546875 1.703125 -6.46875 1.8125 -7.21875 C 2.09375 -8.890625 3.140625 -9.015625 3.484375 -9.015625 C 3.953125 -9.015625 4.875 -8.765625 5.140625 -7.375 C 5.28125 -6.59375 5.28125 -5.53125 5.28125 -4.640625 Z M 5.28125 -4.640625 "
           id="path6" />
      </g>
      <g
         id="glyph-1-1-00cccd60">
        <path
           d="M 7.9375 -5.703125 C 7.9375 -6.03125 7.640625 -6.03125 7.375 -6.03125 L 2.6875 -6.03125 C 2.375 -6.03125 1.84375 -6.03125 1.234375 -5.375 C 0.734375 -4.828125 0.375 -4.1875 0.375 -4.109375 C 0.375 -4.109375 0.375 -3.96875 0.546875 -3.96875 C 0.65625 -3.96875 0.6875 -4.03125 0.765625 -4.140625 C 1.453125 -5.21875 2.265625 -5.21875 2.546875 -5.21875 L 3.34375 -5.21875 C 2.890625 -3.53125 2.140625 -1.828125 1.546875 -0.5625 C 1.4375 -0.34375 1.4375 -0.328125 1.4375 -0.21875 C 1.4375 0.046875 1.671875 0.15625 1.84375 0.15625 C 2.265625 0.15625 2.375 -0.234375 2.546875 -0.75 C 2.75 -1.40625 2.75 -1.421875 2.921875 -2.125 L 3.703125 -5.21875 L 5.296875 -5.21875 C 4.828125 -3.15625 4.703125 -2.546875 4.703125 -1.609375 C 4.703125 -1.40625 4.703125 -1.015625 4.8125 -0.546875 C 4.953125 0.0625 5.109375 0.15625 5.3125 0.15625 C 5.59375 0.15625 5.890625 -0.09375 5.890625 -0.375 C 5.890625 -0.46875 5.890625 -0.484375 5.8125 -0.6875 C 5.40625 -1.6875 5.40625 -2.609375 5.40625 -3 C 5.40625 -3.734375 5.5 -4.5 5.65625 -5.21875 L 7.25 -5.21875 C 7.4375 -5.21875 7.9375 -5.21875 7.9375 -5.703125 Z M 7.9375 -5.703125 "
           id="path7" />
      </g>
      <g
         id="glyph-1-2-00cccd60">
        <path
           d="M 6.390625 -2.390625 C 6.390625 -3.546875 5.515625 -4.640625 4.0625 -4.921875 C 5.203125 -5.3125 6.015625 -6.28125 6.015625 -7.390625 C 6.015625 -8.546875 4.78125 -9.328125 3.4375 -9.328125 C 2.03125 -9.328125 0.96875 -8.484375 0.96875 -7.421875 C 0.96875 -6.953125 1.28125 -6.6875 1.6875 -6.6875 C 2.109375 -6.6875 2.390625 -7 2.390625 -7.40625 C 2.390625 -8.109375 1.734375 -8.109375 1.53125 -8.109375 C 1.953125 -8.796875 2.890625 -8.96875 3.390625 -8.96875 C 3.96875 -8.96875 4.734375 -8.671875 4.734375 -7.40625 C 4.734375 -7.234375 4.703125 -6.421875 4.34375 -5.8125 C 3.921875 -5.140625 3.4375 -5.09375 3.09375 -5.078125 C 2.984375 -5.0625 2.640625 -5.046875 2.546875 -5.046875 C 2.4375 -5.03125 2.34375 -5.015625 2.34375 -4.875 C 2.34375 -4.71875 2.4375 -4.71875 2.671875 -4.71875 L 3.296875 -4.71875 C 4.4375 -4.71875 4.953125 -3.765625 4.953125 -2.390625 C 4.953125 -0.484375 3.984375 -0.078125 3.375 -0.078125 C 2.765625 -0.078125 1.71875 -0.328125 1.234375 -1.140625 C 1.71875 -1.078125 2.15625 -1.390625 2.15625 -1.921875 C 2.15625 -2.421875 1.78125 -2.703125 1.375 -2.703125 C 1.03125 -2.703125 0.59375 -2.5 0.59375 -1.890625 C 0.59375 -0.609375 1.890625 0.3125 3.421875 0.3125 C 5.125 0.3125 6.390625 -0.96875 6.390625 -2.390625 Z M 6.390625 -2.390625 "
           id="path8" />
      </g>
      <g
         id="glyph-1-3-00cccd60">
        <path
           d="M 6.28125 -2.4375 L 5.9375 -2.4375 C 5.859375 -2.015625 5.765625 -1.40625 5.625 -1.1875 C 5.53125 -1.078125 4.609375 -1.078125 4.296875 -1.078125 L 1.78125 -1.078125 L 3.265625 -2.515625 C 5.453125 -4.453125 6.28125 -5.203125 6.28125 -6.609375 C 6.28125 -8.203125 5.03125 -9.328125 3.3125 -9.328125 C 1.734375 -9.328125 0.703125 -8.03125 0.703125 -6.796875 C 0.703125 -6 1.40625 -6 1.4375 -6 C 1.6875 -6 2.171875 -6.171875 2.171875 -6.75 C 2.171875 -7.109375 1.921875 -7.46875 1.421875 -7.46875 C 1.3125 -7.46875 1.28125 -7.46875 1.25 -7.46875 C 1.5625 -8.375 2.328125 -8.890625 3.140625 -8.890625 C 4.40625 -8.890625 5.015625 -7.75 5.015625 -6.609375 C 5.015625 -5.484375 4.3125 -4.375 3.546875 -3.515625 L 0.859375 -0.515625 C 0.703125 -0.359375 0.703125 -0.34375 0.703125 0 L 5.890625 0 Z M 6.28125 -2.4375 "
           id="path9" />
      </g>
      <g
         id="glyph-2-0-00cccd60">
        <path
           d="M 6.28125 -2.4375 L 5.9375 -2.4375 C 5.859375 -2.015625 5.765625 -1.40625 5.625 -1.1875 C 5.53125 -1.078125 4.609375 -1.078125 4.296875 -1.078125 L 1.78125 -1.078125 L 3.265625 -2.515625 C 5.453125 -4.453125 6.28125 -5.203125 6.28125 -6.609375 C 6.28125 -8.203125 5.03125 -9.328125 3.3125 -9.328125 C 1.734375 -9.328125 0.703125 -8.03125 0.703125 -6.796875 C 0.703125 -6 1.40625 -6 1.4375 -6 C 1.6875 -6 2.171875 -6.171875 2.171875 -6.75 C 2.171875 -7.109375 1.921875 -7.46875 1.421875 -7.46875 C 1.3125 -7.46875 1.28125 -7.46875 1.25 -7.46875 C 1.5625 -8.375 2.328125 -8.890625 3.140625 -8.890625 C 4.40625 -8.890625 5.015625 -7.75 5.015625 -6.609375 C 5.015625 -5.484375 4.3125 -4.375 3.546875 -3.515625 L 0.859375 -0.515625 C 0.703125 -0.359375 0.703125 -0.34375 0.703125 0 L 5.890625 0 Z M 6.28125 -2.4375 "
           id="path10" />
      </g>
      <g
         id="glyph-3-0-00cccd60">
        <path
           d="M 7.9375 -5.703125 C 7.9375 -6.03125 7.640625 -6.03125 7.375 -6.03125 L 2.6875 -6.03125 C 2.375 -6.03125 1.84375 -6.03125 1.234375 -5.375 C 0.734375 -4.828125 0.375 -4.1875 0.375 -4.109375 C 0.375 -4.109375 0.375 -3.96875 0.546875 -3.96875 C 0.65625 -3.96875 0.6875 -4.03125 0.765625 -4.140625 C 1.453125 -5.21875 2.265625 -5.21875 2.546875 -5.21875 L 3.34375 -5.21875 C 2.890625 -3.53125 2.140625 -1.828125 1.546875 -0.5625 C 1.4375 -0.34375 1.4375 -0.328125 1.4375 -0.21875 C 1.4375 0.046875 1.671875 0.15625 1.84375 0.15625 C 2.265625 0.15625 2.375 -0.234375 2.546875 -0.75 C 2.75 -1.40625 2.75 -1.421875 2.921875 -2.125 L 3.703125 -5.21875 L 5.296875 -5.21875 C 4.828125 -3.15625 4.703125 -2.546875 4.703125 -1.609375 C 4.703125 -1.40625 4.703125 -1.015625 4.8125 -0.546875 C 4.953125 0.0625 5.109375 0.15625 5.3125 0.15625 C 5.59375 0.15625 5.890625 -0.09375 5.890625 -0.375 C 5.890625 -0.46875 5.890625 -0.484375 5.8125 -0.6875 C 5.40625 -1.6875 5.40625 -2.609375 5.40625 -3 C 5.40625 -3.734375 5.5 -4.5 5.65625 -5.21875 L 7.25 -5.21875 C 7.4375 -5.21875 7.9375 -5.21875 7.9375 -5.703125 Z M 7.9375 -5.703125 "
           id="path11" />
      </g>
      <g
         id="glyph-4-0-00cccd60">
        <path
           d="M 11.234375 -8.953125 C 11.234375 -10.703125 9.453125 -12.296875 6.984375 -12.296875 L 0.625 -12.296875 L 0.625 -11.734375 L 1.0625 -11.734375 C 2.453125 -11.734375 2.484375 -11.53125 2.484375 -10.890625 L 2.484375 -1.40625 C 2.484375 -0.75 2.453125 -0.5625 1.0625 -0.5625 L 0.625 -0.5625 L 0.625 0 C 1.265625 -0.046875 2.59375 -0.046875 3.28125 -0.046875 C 3.953125 -0.046875 5.3125 -0.046875 5.9375 0 L 5.9375 -0.5625 L 5.515625 -0.5625 C 4.125 -0.5625 4.09375 -0.75 4.09375 -1.40625 L 4.09375 -5.6875 L 7.125 -5.6875 C 9.28125 -5.6875 11.234375 -7.140625 11.234375 -8.953125 Z M 9.375 -8.953125 C 9.375 -8.09375 9.375 -6.15625 6.515625 -6.15625 L 4.03125 -6.15625 L 4.03125 -11.015625 C 4.03125 -11.609375 4.0625 -11.734375 4.90625 -11.734375 L 6.515625 -11.734375 C 9.375 -11.734375 9.375 -9.828125 9.375 -8.953125 Z M 9.375 -8.953125 "
           id="path12" />
      </g>
      <g
         id="glyph-4-1-00cccd60">
        <path
           d="M 4.453125 0 L 4.453125 -0.5625 C 3.265625 -0.5625 3.1875 -0.640625 3.1875 -1.34375 L 3.1875 -7.953125 L 0.671875 -7.765625 L 0.671875 -7.203125 C 1.84375 -7.203125 2 -7.09375 2 -6.203125 L 2 -1.375 C 2 -0.5625 1.796875 -0.5625 0.59375 -0.5625 L 0.59375 0 L 2.578125 -0.046875 C 3.203125 -0.046875 3.828125 -0.015625 4.453125 0 Z M 3.453125 -10.875 C 3.453125 -11.359375 3.046875 -11.828125 2.5 -11.828125 C 1.890625 -11.828125 1.53125 -11.328125 1.53125 -10.875 C 1.53125 -10.390625 1.9375 -9.921875 2.484375 -9.921875 C 3.09375 -9.921875 3.453125 -10.421875 3.453125 -10.875 Z M 3.453125 -10.875 "
           id="path13" />
      </g>
      <g
         id="glyph-4-2-00cccd60">
        <path
           d="M 6.484375 -2.296875 C 6.484375 -3.265625 5.9375 -3.796875 5.71875 -4.015625 C 5.125 -4.59375 4.421875 -4.734375 3.671875 -4.875 C 2.65625 -5.078125 1.453125 -5.3125 1.453125 -6.359375 C 1.453125 -6.984375 1.921875 -7.71875 3.46875 -7.71875 C 5.453125 -7.71875 5.546875 -6.109375 5.578125 -5.546875 C 5.59375 -5.375 5.796875 -5.375 5.796875 -5.375 C 6.03125 -5.375 6.03125 -5.46875 6.03125 -5.8125 L 6.03125 -7.625 C 6.03125 -7.9375 6.03125 -8.0625 5.828125 -8.0625 C 5.734375 -8.0625 5.703125 -8.0625 5.46875 -7.84375 C 5.421875 -7.78125 5.234375 -7.609375 5.171875 -7.5625 C 4.484375 -8.0625 3.75 -8.0625 3.46875 -8.0625 C 1.28125 -8.0625 0.59375 -6.859375 0.59375 -5.84375 C 0.59375 -5.21875 0.875 -4.71875 1.375 -4.3125 C 1.9375 -3.859375 2.453125 -3.75 3.75 -3.484375 C 4.140625 -3.421875 5.609375 -3.125 5.609375 -1.84375 C 5.609375 -0.921875 4.984375 -0.203125 3.578125 -0.203125 C 2.0625 -0.203125 1.421875 -1.21875 1.078125 -2.75 C 1.03125 -2.984375 1.015625 -3.0625 0.828125 -3.0625 C 0.59375 -3.0625 0.59375 -2.9375 0.59375 -2.609375 L 0.59375 -0.234375 C 0.59375 0.078125 0.59375 0.203125 0.796875 0.203125 C 0.875 0.203125 0.90625 0.1875 1.234375 -0.15625 C 1.28125 -0.203125 1.28125 -0.234375 1.609375 -0.578125 C 2.390625 0.1875 3.203125 0.203125 3.578125 0.203125 C 5.65625 0.203125 6.484375 -1.015625 6.484375 -2.296875 Z M 6.484375 -2.296875 "
           id="path14" />
      </g>
      <g
         id="glyph-4-3-00cccd60">
        <path
           d="M 7.46875 -2.140625 C 7.46875 -2.328125 7.296875 -2.328125 7.234375 -2.328125 C 7.078125 -2.328125 7.03125 -2.25 7 -2.140625 C 6.484375 -0.46875 5.3125 -0.25 4.640625 -0.25 C 3.6875 -0.25 2.109375 -1.03125 2.109375 -3.921875 C 2.109375 -6.859375 3.578125 -7.609375 4.53125 -7.609375 C 4.703125 -7.609375 5.828125 -7.59375 6.46875 -6.953125 C 5.71875 -6.890625 5.609375 -6.359375 5.609375 -6.125 C 5.609375 -5.65625 5.9375 -5.296875 6.4375 -5.296875 C 6.90625 -5.296875 7.265625 -5.59375 7.265625 -6.140625 C 7.265625 -7.359375 5.90625 -8.0625 4.515625 -8.0625 C 2.265625 -8.0625 0.609375 -6.125 0.609375 -3.890625 C 0.609375 -1.578125 2.390625 0.203125 4.484375 0.203125 C 6.890625 0.203125 7.46875 -1.96875 7.46875 -2.140625 Z M 7.46875 -2.140625 "
           id="path15" />
      </g>
      <g
         id="glyph-4-4-00cccd60">
        <path
           d="M 9.625 0 L 9.625 -0.5625 C 8.6875 -0.5625 8.25 -0.5625 8.21875 -1.09375 L 8.21875 -4.53125 C 8.21875 -6.078125 8.21875 -6.640625 7.671875 -7.296875 C 7.421875 -7.59375 6.828125 -7.953125 5.78125 -7.953125 C 4.46875 -7.953125 3.625 -7.1875 3.109375 -6.0625 L 3.109375 -7.953125 L 0.578125 -7.765625 L 0.578125 -7.203125 C 1.84375 -7.203125 1.984375 -7.078125 1.984375 -6.1875 L 1.984375 -1.375 C 1.984375 -0.5625 1.78125 -0.5625 0.578125 -0.5625 L 0.578125 0 L 2.609375 -0.046875 L 4.625 0 L 4.625 -0.5625 C 3.421875 -0.5625 3.21875 -0.5625 3.21875 -1.375 L 3.21875 -4.6875 C 3.21875 -6.546875 4.5 -7.5625 5.65625 -7.5625 C 6.78125 -7.5625 6.984375 -6.59375 6.984375 -5.5625 L 6.984375 -1.375 C 6.984375 -0.5625 6.78125 -0.5625 5.578125 -0.5625 L 5.578125 0 L 7.609375 -0.046875 Z M 9.625 0 "
           id="path16" />
      </g>
      <g
         id="glyph-4-5-00cccd60">
        <path
           d="M 8.6875 -1.609375 L 8.6875 -2.609375 L 8.25 -2.609375 L 8.25 -1.609375 C 8.25 -0.5625 7.796875 -0.453125 7.59375 -0.453125 C 7 -0.453125 6.9375 -1.265625 6.9375 -1.34375 L 6.9375 -4.953125 C 6.9375 -5.703125 6.9375 -6.40625 6.28125 -7.078125 C 5.578125 -7.78125 4.6875 -8.0625 3.8125 -8.0625 C 2.34375 -8.0625 1.09375 -7.21875 1.09375 -6.03125 C 1.09375 -5.484375 1.453125 -5.1875 1.921875 -5.1875 C 2.4375 -5.1875 2.75 -5.546875 2.75 -6.015625 C 2.75 -6.234375 2.65625 -6.828125 1.84375 -6.84375 C 2.328125 -7.46875 3.203125 -7.671875 3.78125 -7.671875 C 4.65625 -7.671875 5.6875 -6.96875 5.6875 -5.359375 L 5.6875 -4.703125 C 4.765625 -4.640625 3.515625 -4.59375 2.375 -4.046875 C 1.03125 -3.4375 0.578125 -2.5 0.578125 -1.703125 C 0.578125 -0.25 2.328125 0.203125 3.453125 0.203125 C 4.640625 0.203125 5.46875 -0.515625 5.8125 -1.375 C 5.890625 -0.640625 6.375 0.109375 7.21875 0.109375 C 7.59375 0.109375 8.6875 -0.140625 8.6875 -1.609375 Z M 5.6875 -2.515625 C 5.6875 -0.8125 4.390625 -0.203125 3.578125 -0.203125 C 2.703125 -0.203125 1.96875 -0.828125 1.96875 -1.734375 C 1.96875 -2.71875 2.71875 -4.21875 5.6875 -4.3125 Z M 5.6875 -2.515625 "
           id="path17" />
      </g>
      <g
         id="glyph-4-6-00cccd60">
        <path
           d="M 9.375 -3.890625 C 9.375 -6.171875 7.625 -7.953125 5.609375 -7.953125 C 4.21875 -7.953125 3.453125 -7.15625 3.09375 -6.765625 L 3.09375 -7.953125 L 0.5 -7.765625 L 0.5 -7.203125 C 1.78125 -7.203125 1.90625 -7.09375 1.90625 -6.296875 L 1.90625 2.125 C 1.90625 2.9375 1.703125 2.9375 0.5 2.9375 L 0.5 3.484375 L 2.515625 3.4375 L 4.546875 3.484375 L 4.546875 2.9375 C 3.34375 2.9375 3.15625 2.9375 3.15625 2.125 L 3.15625 -1.0625 C 3.234375 -0.78125 4 0.203125 5.359375 0.203125 C 7.5 0.203125 9.375 -1.5625 9.375 -3.890625 Z M 7.890625 -3.890625 C 7.890625 -1.703125 6.625 -0.203125 5.296875 -0.203125 C 4.578125 -0.203125 3.890625 -0.5625 3.40625 -1.296875 C 3.15625 -1.671875 3.15625 -1.6875 3.15625 -2.046875 L 3.15625 -6.0625 C 3.671875 -6.984375 4.546875 -7.5 5.46875 -7.5 C 6.78125 -7.5 7.890625 -5.921875 7.890625 -3.890625 Z M 7.890625 -3.890625 "
           id="path18" />
      </g>
      <g
         id="glyph-4-7-00cccd60">
        <path
           d="M 8.484375 -3.859375 C 8.484375 -6.15625 6.671875 -8.0625 4.5 -8.0625 C 2.25 -8.0625 0.5 -6.109375 0.5 -3.859375 C 0.5 -1.53125 2.375 0.203125 4.484375 0.203125 C 6.65625 0.203125 8.484375 -1.5625 8.484375 -3.859375 Z M 6.984375 -4 C 6.984375 -3.34375 6.984375 -2.375 6.59375 -1.578125 C 6.1875 -0.78125 5.40625 -0.25 4.5 -0.25 C 3.71875 -0.25 2.9375 -0.625 2.453125 -1.453125 C 2 -2.25 2 -3.34375 2 -4 C 2 -4.703125 2 -5.671875 2.4375 -6.46875 C 2.921875 -7.296875 3.765625 -7.671875 4.484375 -7.671875 C 5.28125 -7.671875 6.046875 -7.265625 6.515625 -6.5 C 6.984375 -5.71875 6.984375 -4.6875 6.984375 -4 Z M 6.984375 -4 "
           id="path19" />
      </g>
      <g
         id="glyph-4-8-00cccd60">
        <path
           d="M 4.59375 0 L 4.59375 -0.5625 C 3.390625 -0.5625 3.1875 -0.5625 3.1875 -1.375 L 3.1875 -12.484375 L 0.59375 -12.296875 L 0.59375 -11.734375 C 1.859375 -11.734375 2 -11.609375 2 -10.734375 L 2 -1.375 C 2 -0.5625 1.796875 -0.5625 0.59375 -0.5625 L 0.59375 0 L 2.59375 -0.046875 Z M 4.59375 0 "
           id="path20" />
      </g>
      <g
         id="glyph-4-9-00cccd60">
        <path
           d="M 6.546875 -6.859375 C 6.546875 -7.4375 6 -7.953125 5.21875 -7.953125 C 3.90625 -7.953125 3.265625 -6.75 3 -5.96875 L 3 -7.953125 L 0.5 -7.765625 L 0.5 -7.203125 C 1.765625 -7.203125 1.90625 -7.078125 1.90625 -6.1875 L 1.90625 -1.375 C 1.90625 -0.5625 1.703125 -0.5625 0.5 -0.5625 L 0.5 0 L 2.5625 -0.046875 C 3.28125 -0.046875 4.125 -0.046875 4.84375 0 L 4.84375 -0.5625 L 4.46875 -0.5625 C 3.125 -0.5625 3.09375 -0.75 3.09375 -1.40625 L 3.09375 -4.171875 C 3.09375 -5.953125 3.859375 -7.5625 5.21875 -7.5625 C 5.34375 -7.5625 5.375 -7.5625 5.421875 -7.546875 C 5.359375 -7.53125 5 -7.3125 5 -6.84375 C 5 -6.34375 5.375 -6.0625 5.78125 -6.0625 C 6.109375 -6.0625 6.546875 -6.28125 6.546875 -6.859375 Z M 6.546875 -6.859375 "
           id="path21" />
      </g>
      <g
         id="glyph-4-10-00cccd60" />
      <g
         id="glyph-4-11-00cccd60">
        <path
           d="M 13 -6.25 C 13 -6.4375 12.828125 -6.609375 12.640625 -6.609375 L 1.375 -6.609375 C 1.171875 -6.609375 1.015625 -6.4375 1.015625 -6.25 C 1.015625 -6.046875 1.171875 -5.890625 1.375 -5.890625 L 12.640625 -5.890625 C 12.828125 -5.890625 13 -6.046875 13 -6.25 Z M 13 -2.75 C 13 -2.953125 12.828125 -3.109375 12.640625 -3.109375 L 1.375 -3.109375 C 1.171875 -3.109375 1.015625 -2.953125 1.015625 -2.75 C 1.015625 -2.5625 1.171875 -2.390625 1.375 -2.390625 L 12.640625 -2.390625 C 12.828125 -2.390625 13 -2.5625 13 -2.75 Z M 13 -2.75 "
           id="path22" />
      </g>
      <g
         id="glyph-4-12-00cccd60">
        <path
           d="M 8.21875 -3.03125 C 8.21875 -3.671875 8.03125 -4.484375 7.34375 -5.234375 C 7 -5.609375 6.71875 -5.796875 5.5625 -6.515625 C 6.859375 -7.1875 7.734375 -8.125 7.734375 -9.3125 C 7.734375 -10.96875 6.140625 -11.984375 4.5 -11.984375 C 2.703125 -11.984375 1.234375 -10.65625 1.234375 -8.984375 C 1.234375 -8.65625 1.28125 -7.84375 2.03125 -7 C 2.234375 -6.78125 2.890625 -6.34375 3.34375 -6.03125 C 2.296875 -5.515625 0.75 -4.5 0.75 -2.71875 C 0.75 -0.8125 2.59375 0.390625 4.484375 0.390625 C 6.515625 0.390625 8.21875 -1.09375 8.21875 -3.03125 Z M 6.953125 -9.3125 C 6.953125 -8.28125 6.25 -7.421875 5.171875 -6.78125 L 2.9375 -8.21875 C 2.109375 -8.765625 2.03125 -9.375 2.03125 -9.6875 C 2.03125 -10.78125 3.203125 -11.53125 4.484375 -11.53125 C 5.796875 -11.53125 6.953125 -10.609375 6.953125 -9.3125 Z M 7.328125 -2.375 C 7.328125 -1.046875 5.96875 -0.109375 4.5 -0.109375 C 2.953125 -0.109375 1.65625 -1.21875 1.65625 -2.71875 C 1.65625 -3.765625 2.234375 -4.90625 3.765625 -5.765625 L 5.96875 -4.359375 C 6.484375 -4.015625 7.328125 -3.46875 7.328125 -2.375 Z M 7.328125 -2.375 "
           id="path23" />
      </g>
      <g
         id="glyph-4-13-00cccd60">
        <path
           d="M 5.96875 4.28125 C 5.96875 4.234375 5.9375 4.171875 5.90625 4.140625 C 4.03125 2.734375 2.796875 -0.859375 2.796875 -3.75 L 2.796875 -5.25 C 2.796875 -8.140625 4.03125 -11.734375 5.90625 -13.140625 C 5.9375 -13.171875 5.96875 -13.234375 5.96875 -13.28125 C 5.96875 -13.375 5.890625 -13.46875 5.796875 -13.46875 C 5.765625 -13.46875 5.71875 -13.453125 5.6875 -13.421875 C 3.703125 -11.9375 1.8125 -8.328125 1.8125 -5.25 L 1.8125 -3.75 C 1.8125 -0.671875 3.703125 2.9375 5.6875 4.421875 C 5.71875 4.453125 5.765625 4.46875 5.796875 4.46875 C 5.890625 4.46875 5.96875 4.375 5.96875 4.28125 Z M 5.96875 4.28125 "
           id="path24" />
      </g>
      <g
         id="glyph-4-14-00cccd60">
        <path
           d="M 8.1875 -9 C 8.1875 -10.1875 7.859375 -12.6875 6.03125 -12.6875 C 3.53125 -12.6875 0.75 -7.609375 0.75 -3.484375 C 0.75 -1.796875 1.28125 0.203125 2.921875 0.203125 C 5.453125 0.203125 8.1875 -4.96875 8.1875 -9 Z M 7 -10.109375 C 7 -9.234375 6.859375 -8.3125 6.421875 -6.53125 L 2.65625 -6.53125 C 2.96875 -7.6875 3.328125 -9.125 4.046875 -10.40625 C 4.53125 -11.28125 5.203125 -12.296875 6.015625 -12.296875 C 6.890625 -12.296875 7 -11.140625 7 -10.109375 Z M 6.265625 -5.953125 C 6.0625 -5.125 5.6875 -3.59375 5 -2.296875 C 4.375 -1.078125 3.6875 -0.203125 2.921875 -0.203125 C 2.328125 -0.203125 1.9375 -0.71875 1.9375 -2.390625 C 1.9375 -3.15625 2.046875 -4.1875 2.515625 -5.953125 Z M 6.265625 -5.953125 "
           id="path25" />
      </g>
      <g
         id="glyph-4-15-00cccd60">
        <path
           d="M 8.015625 -13.140625 C 8.015625 -13.34375 7.84375 -13.5 7.65625 -13.5 C 7.484375 -13.5 7.359375 -13.40625 7.3125 -13.265625 L 1.03125 4.015625 C 1.015625 4.046875 1.015625 4.109375 1.015625 4.140625 C 1.015625 4.34375 1.171875 4.5 1.375 4.5 C 1.53125 4.5 1.65625 4.40625 1.703125 4.265625 L 7.984375 -13.015625 C 8.015625 -13.046875 8.015625 -13.109375 8.015625 -13.140625 Z M 8.015625 -13.140625 "
           id="path26" />
      </g>
      <g
         id="glyph-4-16-00cccd60">
        <path
           d="M 8.078125 -3.125 L 7.625 -3.125 C 7.546875 -2.59375 7.421875 -1.796875 7.234375 -1.53125 C 7.109375 -1.390625 5.921875 -1.390625 5.53125 -1.390625 L 2.28125 -1.390625 L 4.1875 -3.234375 C 7 -5.71875 8.078125 -6.703125 8.078125 -8.5 C 8.078125 -10.546875 6.46875 -11.984375 4.265625 -11.984375 C 2.234375 -11.984375 0.90625 -10.328125 0.90625 -8.734375 C 0.90625 -7.71875 1.796875 -7.71875 1.859375 -7.71875 C 2.15625 -7.71875 2.796875 -7.9375 2.796875 -8.671875 C 2.796875 -9.140625 2.46875 -9.609375 1.84375 -9.609375 C 1.6875 -9.609375 1.65625 -9.609375 1.609375 -9.59375 C 2.015625 -10.765625 2.984375 -11.4375 4.03125 -11.4375 C 5.671875 -11.4375 6.4375 -9.96875 6.4375 -8.5 C 6.4375 -7.0625 5.546875 -5.640625 4.546875 -4.515625 L 1.09375 -0.671875 C 0.90625 -0.46875 0.90625 -0.4375 0.90625 0 L 7.578125 0 Z M 8.078125 -3.125 "
           id="path27" />
      </g>
      <g
         id="glyph-4-17-00cccd60">
        <path
           d="M 5.1875 -3.75 L 5.1875 -5.25 C 5.1875 -8.328125 3.296875 -11.9375 1.3125 -13.421875 C 1.28125 -13.453125 1.234375 -13.46875 1.203125 -13.46875 C 1.109375 -13.46875 1.03125 -13.375 1.03125 -13.28125 C 1.03125 -13.234375 1.0625 -13.171875 1.09375 -13.140625 C 2.96875 -11.734375 4.21875 -8.140625 4.21875 -5.25 L 4.21875 -3.75 C 4.21875 -0.859375 2.96875 2.734375 1.09375 4.140625 C 1.0625 4.171875 1.03125 4.234375 1.03125 4.28125 C 1.03125 4.375 1.109375 4.46875 1.203125 4.46875 C 1.234375 4.46875 1.28125 4.453125 1.3125 4.421875 C 3.296875 2.9375 5.1875 -0.671875 5.1875 -3.75 Z M 5.1875 -3.75 "
           id="path28" />
      </g>
      <g
         id="glyph-5-0-00cccd60" />
      <g
         id="glyph-6-0-00cccd60">
        <path
           d="M 8.796875 -6.828125 C 8.796875 -7.765625 7.625 -7.953125 7.03125 -7.953125 C 5.796875 -7.953125 5.140625 -7.0625 4.859375 -6.65625 C 4.65625 -7.609375 3.953125 -7.953125 3.359375 -7.953125 C 2.71875 -7.953125 2.359375 -7.546875 2.0625 -7 C 1.734375 -6.28125 1.5 -5.1875 1.5 -5.1875 C 1.5 -5 1.671875 -5 1.765625 -5 C 2 -5 2.015625 -5.015625 2.109375 -5.421875 C 2.4375 -6.671875 2.765625 -7.5625 3.328125 -7.5625 C 3.796875 -7.5625 3.796875 -7.03125 3.796875 -6.84375 C 3.796875 -6.546875 3.75 -6.203125 3.671875 -5.921875 L 2.328125 -0.515625 C 2.28125 -0.40625 2.265625 -0.328125 2.265625 -0.265625 C 2.265625 -0.078125 2.40625 0.203125 2.765625 0.203125 C 3.3125 0.203125 3.4375 -0.328125 3.46875 -0.46875 L 4.640625 -5.1875 C 4.65625 -5.234375 5.46875 -7.5625 7.015625 -7.5625 C 7.109375 -7.5625 7.609375 -7.5625 7.96875 -7.3125 C 7.34375 -7.109375 7.296875 -6.53125 7.296875 -6.4375 C 7.296875 -6.203125 7.453125 -5.875 7.921875 -5.875 C 8.25 -5.875 8.796875 -6.125 8.796875 -6.828125 Z M 8.796875 -6.828125 "
           id="path29" />
      </g>
      <g
         id="glyph-7-0-00cccd60">
        <path
           d="M 4.84375 -1.875 L 4.578125 -1.875 C 4.53125 -1.5625 4.453125 -1.078125 4.34375 -0.921875 C 4.265625 -0.828125 3.546875 -0.828125 3.3125 -0.828125 L 1.375 -0.828125 L 2.515625 -1.9375 C 4.203125 -3.4375 4.84375 -4.015625 4.84375 -5.09375 C 4.84375 -6.328125 3.875 -7.1875 2.5625 -7.1875 C 1.34375 -7.1875 0.546875 -6.203125 0.546875 -5.234375 C 0.546875 -4.625 1.078125 -4.625 1.109375 -4.625 C 1.296875 -4.625 1.671875 -4.765625 1.671875 -5.203125 C 1.671875 -5.484375 1.484375 -5.765625 1.09375 -5.765625 C 1.015625 -5.765625 1 -5.765625 0.953125 -5.75 C 1.203125 -6.453125 1.796875 -6.859375 2.421875 -6.859375 C 3.40625 -6.859375 3.859375 -5.984375 3.859375 -5.09375 C 3.859375 -4.234375 3.328125 -3.375 2.734375 -2.703125 L 0.65625 -0.40625 C 0.546875 -0.28125 0.546875 -0.265625 0.546875 0 L 4.546875 0 Z M 4.84375 -1.875 "
           id="path30" />
      </g>
    </g>
    <clipPath
       id="clip-0-00cccd60">
      <path
         clip-rule="nonzero"
         d="M 16 48 L 584 48 L 584 434 L 16 434 Z M 16 48 "
         id="path31" />
    </clipPath>
  </defs>
  <path
     fill="none"
     stroke-width="1"
     stroke-linecap="butt"
     stroke-linejoin="miter"
     stroke="rgb(50%, 50%, 50%)"
     stroke-opacity="1"
     stroke-miterlimit="2"
     d="M 300 241 Z M 300 241 "
     id="path32" />
  <path
     fill="none"
     stroke-width="1"
     stroke-linecap="butt"
     stroke-linejoin="miter"
     stroke="rgb(50%, 50%, 50%)"
     stroke-opacity="1"
     stroke-miterlimit="2"
     d="M 336.992188 241 L 336.902344 238.390625 L 336.625 235.792969 L 336.167969 233.222656 L 335.527344 230.691406 L 334.710938 228.210938 L 333.722656 225.792969 L 332.566406 223.453125 L 331.25 221.199219 L 329.773438 219.046875 L 328.152344 217 L 326.386719 215.074219 L 324.492188 213.277344 L 322.476562 211.617188 L 320.347656 210.105469 L 318.117188 208.746094 L 315.796875 207.550781 L 313.398438 206.519531 L 310.933594 205.660156 L 308.414062 204.976562 L 305.851562 204.472656 L 303.261719 204.148438 L 300.652344 204.011719 L 298.042969 204.058594 L 295.441406 204.289062 L 292.863281 204.703125 L 290.320312 205.296875 L 287.824219 206.066406 L 285.390625 207.011719 L 283.03125 208.128906 L 280.753906 209.40625 L 278.574219 210.84375 L 276.5 212.429688 L 274.542969 214.160156 L 272.714844 216.019531 L 271.019531 218.007812 L 269.46875 220.109375 L 268.070312 222.316406 L 266.832031 224.613281 L 265.761719 226.992188 L 264.859375 229.445312 L 264.128906 231.953125 L 263.582031 234.503906 L 263.214844 237.089844 L 263.03125 239.695312 L 263.03125 242.304688 L 263.214844 244.910156 L 263.582031 247.496094 L 264.128906 250.046875 L 264.859375 252.554688 L 265.761719 255.007812 L 266.832031 257.386719 L 268.070312 259.683594 L 269.46875 261.890625 L 271.019531 263.992188 L 272.714844 265.980469 L 274.542969 267.839844 L 276.5 269.570312 L 278.574219 271.15625 L 280.753906 272.59375 L 283.03125 273.871094 L 285.390625 274.988281 L 287.824219 275.933594 L 290.320312 276.703125 L 292.863281 277.296875 L 295.441406 277.710938 L 298.042969 277.941406 L 300.652344 277.988281 L 303.261719 277.851562 L 305.851562 277.527344 L 308.414062 277.023438 L 310.933594 276.339844 L 313.398438 275.480469 L 315.796875 274.449219 L 318.117188 273.253906 L 320.347656 271.894531 L 322.476562 270.382812 L 324.492188 268.722656 L 326.386719 266.925781 L 328.152344 265 L 329.773438 262.953125 L 331.25 260.800781 L 332.566406 258.546875 L 333.722656 256.207031 L 334.710938 253.789062 L 335.527344 251.308594 L 336.167969 248.777344 L 336.625 246.207031 L 336.902344 243.609375 Z M 336.992188 241 "
     id="path33" />
  <path
     fill="none"
     stroke-width="1"
     stroke-linecap="butt"
     stroke-linejoin="miter"
     stroke="rgb(50%, 50%, 50%)"
     stroke-opacity="1"
     stroke-miterlimit="2"
     d="M 373.988281 241 L 373.804688 235.78125 L 373.25 230.589844 L 372.335938 225.445312 L 371.058594 220.382812 L 369.425781 215.421875 L 367.449219 210.589844 L 365.136719 205.90625 L 362.496094 201.398438 L 359.546875 197.089844 L 356.300781 193 L 352.777344 189.148438 L 348.988281 185.554688 L 344.953125 182.234375 L 340.695312 179.210938 L 336.238281 176.496094 L 331.597656 174.097656 L 326.800781 172.035156 L 321.867188 170.316406 L 316.828125 168.953125 L 311.703125 167.945312 L 306.519531 167.300781 L 301.304688 167.023438 L 296.085938 167.117188 L 290.882812 167.578125 L 285.726562 168.402344 L 280.640625 169.589844 L 275.652344 171.132812 L 270.785156 173.027344 L 266.0625 175.253906 L 261.507812 177.8125 L 257.148438 180.6875 L 253 183.859375 L 249.085938 187.316406 L 245.425781 191.042969 L 242.039062 195.015625 L 238.9375 199.21875 L 236.144531 203.628906 L 233.667969 208.226562 L 231.519531 212.988281 L 229.714844 217.886719 L 228.261719 222.902344 L 227.164062 228.007812 L 226.425781 233.179688 L 226.058594 238.390625 L 226.058594 243.609375 L 226.425781 248.820312 L 227.164062 253.992188 L 228.261719 259.097656 L 229.714844 264.113281 L 231.519531 269.011719 L 233.667969 273.773438 L 236.144531 278.371094 L 238.9375 282.78125 L 242.039062 286.984375 L 245.425781 290.957031 L 249.085938 294.683594 L 253 298.140625 L 257.148438 301.3125 L 261.507812 304.1875 L 266.0625 306.746094 L 270.785156 308.972656 L 275.652344 310.867188 L 280.640625 312.410156 L 285.726562 313.597656 L 290.882812 314.421875 L 296.085938 314.882812 L 301.304688 314.976562 L 306.519531 314.699219 L 311.703125 314.054688 L 316.828125 313.046875 L 321.867188 311.683594 L 326.800781 309.964844 L 331.597656 307.902344 L 336.238281 305.503906 L 340.695312 302.789062 L 344.953125 299.765625 L 348.988281 296.445312 L 352.777344 292.851562 L 356.300781 289 L 359.546875 284.910156 L 362.496094 280.601562 L 365.136719 276.09375 L 367.449219 271.410156 L 369.425781 266.578125 L 371.058594 261.617188 L 372.335938 256.554688 L 373.25 251.410156 L 373.804688 246.21875 Z M 373.988281 241 "
     id="path34" />
  <path
     fill="none"
     stroke-width="1"
     stroke-linecap="butt"
     stroke-linejoin="miter"
     stroke="rgb(50%, 50%, 50%)"
     stroke-opacity="1"
     stroke-miterlimit="2"
     d="M 410.980469 241 L 410.703125 233.171875 L 409.875 225.382812 L 408.5 217.671875 L 406.585938 210.074219 L 404.136719 202.632812 L 401.171875 195.382812 L 397.703125 188.359375 L 393.746094 181.601562 L 389.324219 175.136719 L 384.453125 169 L 379.164062 163.21875 L 373.480469 157.828125 L 367.429688 152.855469 L 361.046875 148.316406 L 354.355469 144.242188 L 347.394531 140.648438 L 340.199219 137.554688 L 332.800781 134.976562 L 325.242188 132.925781 L 317.554688 131.417969 L 309.78125 130.449219 L 301.957031 130.035156 L 294.125 130.175781 L 286.324219 130.863281 L 278.589844 132.105469 L 270.960938 133.886719 L 263.476562 136.199219 L 256.175781 139.039062 L 249.09375 142.382812 L 242.261719 146.21875 L 235.722656 150.527344 L 229.5 155.289062 L 223.628906 160.476562 L 218.140625 166.0625 L 213.058594 172.023438 L 208.410156 178.328125 L 204.214844 184.945312 L 200.5 191.839844 L 197.28125 198.980469 L 194.574219 206.332031 L 192.390625 213.855469 L 190.742188 221.515625 L 189.640625 229.269531 L 189.089844 237.082031 L 189.089844 244.917969 L 189.640625 252.730469 L 190.742188 260.484375 L 192.390625 268.144531 L 194.574219 275.667969 L 197.28125 283.019531 L 200.5 290.160156 L 204.214844 297.054688 L 208.410156 303.671875 L 213.058594 309.976562 L 218.140625 315.9375 L 223.628906 321.523438 L 229.5 326.710938 L 235.722656 331.472656 L 242.261719 335.78125 L 249.09375 339.617188 L 256.175781 342.960938 L 263.476562 345.800781 L 270.960938 348.113281 L 278.589844 349.894531 L 286.324219 351.136719 L 294.125 351.824219 L 301.957031 351.964844 L 309.78125 351.550781 L 317.554688 350.582031 L 325.242188 349.074219 L 332.800781 347.023438 L 340.199219 344.445312 L 347.394531 341.351562 L 354.355469 337.757812 L 361.046875 333.683594 L 367.429688 329.144531 L 373.480469 324.171875 L 379.164062 318.78125 L 384.453125 313 L 389.324219 306.863281 L 393.746094 300.398438 L 397.703125 293.640625 L 401.171875 286.617188 L 404.136719 279.367188 L 406.585938 271.925781 L 408.5 264.328125 L 409.875 256.617188 L 410.703125 248.828125 Z M 410.980469 241 "
     id="path35" />
  <path
     fill="none"
     stroke-width="1"
     stroke-linecap="butt"
     stroke-linejoin="miter"
     stroke="rgb(50%, 50%, 50%)"
     stroke-opacity="1"
     stroke-miterlimit="2"
     d="M 447.972656 241 L 447.605469 230.5625 L 446.5 220.175781 L 444.667969 209.894531 L 442.113281 199.765625 L 438.851562 189.84375 L 434.898438 180.179688 L 430.269531 170.8125 L 424.996094 161.800781 L 419.097656 153.179688 L 412.605469 144.996094 L 405.554688 137.292969 L 397.976562 130.105469 L 389.910156 123.472656 L 381.394531 117.421875 L 372.472656 111.988281 L 363.195312 107.199219 L 353.597656 103.074219 L 343.734375 99.636719 L 333.65625 96.902344 L 323.40625 94.886719 L 313.042969 93.601562 L 302.613281 93.046875 L 292.167969 93.234375 L 281.765625 94.152344 L 271.453125 95.804688 L 261.28125 98.179688 L 251.304688 101.269531 L 241.566406 105.050781 L 232.125 109.511719 L 223.019531 114.625 L 214.296875 120.371094 L 206 126.71875 L 198.171875 133.632812 L 190.851562 141.082031 L 184.078125 149.03125 L 177.878906 157.4375 L 172.289062 166.261719 L 167.332031 175.453125 L 163.039062 184.976562 L 159.429688 194.777344 L 156.519531 204.808594 L 154.324219 215.019531 L 152.855469 225.359375 L 152.117188 235.777344 L 152.117188 246.222656 L 152.855469 256.640625 L 154.324219 266.980469 L 156.519531 277.191406 L 159.429688 287.222656 L 163.039062 297.023438 L 167.332031 306.546875 L 172.289062 315.738281 L 177.878906 324.5625 L 184.078125 332.96875 L 190.851562 340.917969 L 198.171875 348.367188 L 206 355.28125 L 214.296875 361.628906 L 223.019531 367.375 L 232.125 372.488281 L 241.566406 376.949219 L 251.304688 380.730469 L 261.28125 383.820312 L 271.453125 386.195312 L 281.765625 387.847656 L 292.167969 388.765625 L 302.613281 388.953125 L 313.042969 388.398438 L 323.40625 387.113281 L 333.65625 385.097656 L 343.734375 382.363281 L 353.597656 378.925781 L 363.195312 374.800781 L 372.472656 370.011719 L 381.394531 364.578125 L 389.910156 358.527344 L 397.976562 351.894531 L 405.554688 344.707031 L 412.605469 337.003906 L 419.097656 328.820312 L 424.996094 320.199219 L 430.269531 311.1875 L 434.898438 301.820312 L 438.851562 292.15625 L 442.113281 282.234375 L 444.667969 272.105469 L 446.5 261.824219 L 447.605469 251.4375 Z M 447.972656 241 "
     id="path36" />
  <path
     fill="none"
     stroke-width="1"
     stroke-linecap="butt"
     stroke-linejoin="miter"
     stroke="rgb(50%, 50%, 50%)"
     stroke-opacity="1"
     stroke-miterlimit="1.154701"
     d="M 300 241 L 455.335938 241 "
     id="path37" />
  <path
     fill="none"
     stroke-width="1"
     stroke-linecap="butt"
     stroke-linejoin="miter"
     stroke="rgb(50%, 50%, 50%)"
     stroke-opacity="1"
     stroke-miterlimit="1.154701"
     d="M 300 241 L 300 85.664062 "
     id="path38" />
  <path
     fill="none"
     stroke-width="1"
     stroke-linecap="butt"
     stroke-linejoin="miter"
     stroke="rgb(50%, 50%, 50%)"
     stroke-opacity="1"
     stroke-miterlimit="1.154701"
     d="M 300 241 L 144.664062 241 "
     id="path39" />
  <path
     fill="none"
     stroke-width="1"
     stroke-linecap="butt"
     stroke-linejoin="miter"
     stroke="rgb(50%, 50%, 50%)"
     stroke-opacity="1"
     stroke-miterlimit="1.154701"
     d="M 300 241 L 300 396.335938 "
     id="path40" />
  <path
     fill="none"
     stroke-width="1.5"
     stroke-linecap="butt"
     stroke-linejoin="miter"
     stroke="rgb(6.7%, 52.899998%, 87.099999%)"
     stroke-opacity="1"
     stroke-miterlimit="2"
     d="M 300 241 L 300.148438 240.992188 L 300.589844 240.925781 L 301.3125 240.746094 L 302.296875 240.40625 L 303.507812 239.847656 L 304.921875 239.03125 L 306.484375 237.914062 L 308.15625 236.460938 L 309.878906 234.648438 L 311.601562 232.457031 L 313.261719 229.875 L 314.792969 226.894531 L 316.140625 223.527344 L 317.234375 219.785156 L 318.023438 215.691406 L 318.441406 211.277344 L 318.441406 206.582031 L 317.96875 201.65625 L 316.980469 196.550781 L 315.445312 191.328125 L 313.332031 186.050781 L 310.617188 180.789062 L 307.292969 175.617188 L 303.351562 170.613281 L 298.808594 165.847656 L 293.671875 161.402344 L 287.972656 157.34375 L 281.742188 153.75 L 275.03125 150.683594 L 267.886719 148.214844 L 260.371094 146.390625 L 252.554688 145.269531 L 244.507812 144.886719 L 236.316406 145.28125 L 228.058594 146.46875 L 219.820312 148.46875 L 211.691406 151.28125 L 203.765625 154.902344 L 196.128906 159.3125 L 188.863281 164.488281 L 182.054688 170.386719 L 175.785156 176.964844 L 170.125 184.160156 L 165.140625 191.914062 L 160.894531 200.15625 L 157.433594 208.800781 L 154.800781 217.765625 L 153.027344 226.964844 L 152.136719 236.304688 L 152.136719 245.695312 L 153.027344 255.035156 L 154.800781 264.234375 L 157.433594 273.199219 L 160.894531 281.84375 L 165.140625 290.085938 L 170.125 297.839844 L 175.785156 305.035156 L 182.054688 311.613281 L 188.863281 317.511719 L 196.128906 322.6875 L 203.765625 327.097656 L 211.691406 330.71875 L 219.820312 333.53125 L 228.058594 335.53125 L 236.316406 336.71875 L 244.507812 337.113281 L 252.554688 336.730469 L 260.371094 335.609375 L 267.886719 333.785156 L 275.03125 331.316406 L 281.742188 328.25 L 287.972656 324.65625 L 293.671875 320.597656 L 298.808594 316.152344 L 303.351562 311.386719 L 307.292969 306.382812 L 310.617188 301.210938 L 313.332031 295.949219 L 315.445312 290.671875 L 316.980469 285.449219 L 317.96875 280.34375 L 318.441406 275.417969 L 318.441406 270.722656 L 318.023438 266.308594 L 317.234375 262.214844 L 316.140625 258.472656 L 314.792969 255.105469 L 313.261719 252.125 L 311.601562 249.542969 L 309.878906 247.351562 L 308.15625 245.539062 L 306.484375 244.085938 L 304.921875 242.96875 L 303.507812 242.152344 L 302.296875 241.59375 L 301.3125 241.253906 L 300.589844 241.074219 L 300.148438 241.007812 Z M 300 241 "
     id="path41" />
  <path
     fill-rule="nonzero"
     fill="rgb(6.7%, 52.899998%, 87.099999%)"
     fill-opacity="0.25"
     d="M 300 241 L 300.148438 240.992188 L 300.589844 240.925781 L 301.3125 240.746094 L 302.296875 240.40625 L 303.507812 239.847656 L 304.921875 239.03125 L 306.484375 237.914062 L 308.15625 236.460938 L 309.878906 234.648438 L 311.601562 232.457031 L 313.261719 229.875 L 314.792969 226.894531 L 316.140625 223.527344 L 317.234375 219.785156 L 318.023438 215.691406 L 318.441406 211.277344 L 318.441406 206.582031 L 317.96875 201.65625 L 316.980469 196.550781 L 315.445312 191.328125 L 313.332031 186.050781 L 310.617188 180.789062 L 307.292969 175.617188 L 303.351562 170.613281 L 298.808594 165.847656 L 293.671875 161.402344 L 287.972656 157.34375 L 281.742188 153.75 L 275.03125 150.683594 L 267.886719 148.214844 L 260.371094 146.390625 L 252.554688 145.269531 L 244.507812 144.886719 L 236.316406 145.28125 L 228.058594 146.46875 L 219.820312 148.46875 L 211.691406 151.28125 L 203.765625 154.902344 L 196.128906 159.3125 L 188.863281 164.488281 L 182.054688 170.386719 L 175.785156 176.964844 L 170.125 184.160156 L 165.140625 191.914062 L 160.894531 200.15625 L 157.433594 208.800781 L 154.800781 217.765625 L 153.027344 226.964844 L 152.136719 236.304688 L 152.136719 245.695312 L 153.027344 255.035156 L 154.800781 264.234375 L 157.433594 273.199219 L 160.894531 281.84375 L 165.140625 290.085938 L 170.125 297.839844 L 175.785156 305.035156 L 182.054688 311.613281 L 188.863281 317.511719 L 196.128906 322.6875 L 203.765625 327.097656 L 211.691406 330.71875 L 219.820312 333.53125 L 228.058594 335.53125 L 236.316406 336.71875 L 244.507812 337.113281 L 252.554688 336.730469 L 260.371094 335.609375 L 267.886719 333.785156 L 275.03125 331.316406 L 281.742188 328.25 L 287.972656 324.65625 L 293.671875 320.597656 L 298.808594 316.152344 L 303.351562 311.386719 L 307.292969 306.382812 L 310.617188 301.210938 L 313.332031 295.949219 L 315.445312 290.671875 L 316.980469 285.449219 L 317.96875 280.34375 L 318.441406 275.417969 L 318.441406 270.722656 L 318.023438 266.308594 L 317.234375 262.214844 L 316.140625 258.472656 L 314.792969 255.105469 L 313.261719 252.125 L 311.601562 249.542969 L 309.878906 247.351562 L 308.15625 245.539062 L 306.484375 244.085938 L 304.921875 242.96875 L 303.507812 242.152344 L 302.296875 241.59375 L 301.3125 241.253906 L 300.589844 241.074219 L 300.148438 241.007812 Z M 300 241 "
     id="path42" />
  <path
     fill="none"
     stroke-width="0.525"
     stroke-linecap="butt"
     stroke-linejoin="miter"
     stroke="rgb(50%, 50%, 50%)"
     stroke-opacity="1"
     stroke-miterlimit="1.154701"
     d="M 294.496094 66.609375 L 305.074219 66.609375 "
     id="path43" />
  <path
     fill="none"
     stroke-width="0.525"
     stroke-linecap="butt"
     stroke-linejoin="miter"
     stroke="rgb(50%, 50%, 50%)"
     stroke-opacity="1"
     stroke-miterlimit="1.154701"
     d="M 291 414.941406 L 308.367188 414.941406 "
     id="path44" />
  <path
     fill="none"
     stroke-width="2"
     stroke-linecap="butt"
     stroke-linejoin="miter"
     stroke="rgb(50%, 50%, 50%)"
     stroke-opacity="1"
     stroke-miterlimit="2"
     d="M 455.335938 241 L 454.945312 230.042969 L 453.789062 219.140625 L 451.863281 208.347656 L 449.179688 197.714844 L 445.757812 187.300781 L 441.605469 177.152344 L 436.75 167.324219 L 431.210938 157.859375 L 425.019531 148.8125 L 418.207031 140.222656 L 410.804688 132.136719 L 402.847656 124.589844 L 394.378906 117.625 L 385.441406 111.277344 L 376.078125 105.574219 L 366.335938 100.542969 L 356.261719 96.214844 L 345.910156 92.605469 L 335.328125 89.738281 L 324.570312 87.621094 L 313.691406 86.269531 L 302.742188 85.691406 L 291.777344 85.882812 L 280.859375 86.851562 L 270.03125 88.585938 L 259.355469 91.078125 L 248.882812 94.316406 L 238.660156 98.289062 L 228.746094 102.972656 L 219.1875 108.339844 L 210.03125 114.371094 L 201.324219 121.035156 L 193.109375 128.292969 L 185.425781 136.113281 L 178.3125 144.457031 L 171.804688 153.28125 L 165.9375 162.542969 L 160.734375 172.195312 L 156.230469 182.191406 L 152.4375 192.476562 L 149.382812 203.007812 L 147.078125 213.726562 L 145.535156 224.582031 L 144.761719 235.519531 L 144.761719 246.480469 L 145.535156 257.417969 L 147.078125 268.273438 L 149.382812 278.992188 L 152.4375 289.523438 L 156.230469 299.808594 L 160.734375 309.804688 L 165.9375 319.457031 L 171.804688 328.71875 L 178.3125 337.542969 L 185.425781 345.886719 L 193.109375 353.707031 L 201.324219 360.964844 L 210.03125 367.628906 L 219.1875 373.660156 L 228.746094 379.027344 L 238.660156 383.710938 L 248.882812 387.683594 L 259.355469 390.921875 L 270.03125 393.414062 L 280.859375 395.148438 L 291.777344 396.117188 L 302.742188 396.308594 L 313.691406 395.730469 L 324.570312 394.378906 L 335.328125 392.261719 L 345.910156 389.394531 L 356.261719 385.785156 L 366.335938 381.457031 L 376.078125 376.425781 L 385.441406 370.722656 L 394.378906 364.375 L 402.847656 357.410156 L 410.804688 349.863281 L 418.207031 341.777344 L 425.019531 333.1875 L 431.210938 324.140625 L 436.75 314.675781 L 441.605469 304.847656 L 445.757812 294.699219 L 449.179688 284.285156 L 451.863281 273.652344 L 453.789062 262.859375 L 454.945312 251.957031 Z M 455.335938 241 "
     id="path46" />
  <g
     fill="rgb(50%, 50%, 50%)"
     fill-opacity="1"
     id="g46">
    <use
       xlink:href="#glyph-0-0-00cccd60"
       x="296.107995"
       y="258.258004"
       id="use46" />
  </g>
  <g
     fill="rgb(50%, 50%, 50%)"
     fill-opacity="1"
     id="g47">
    <use
       xlink:href="#glyph-0-1-00cccd60"
       x="333.101585"
       y="258.258004"
       id="use47" />
  </g>
  <g
     fill="rgb(50%, 50%, 50%)"
     fill-opacity="1"
     id="g48">
    <use
       xlink:href="#glyph-0-2-00cccd60"
       x="370.095176"
       y="258.258004"
       id="use48" />
  </g>
  <g
     fill="rgb(50%, 50%, 50%)"
     fill-opacity="1"
     id="g49">
    <use
       xlink:href="#glyph-0-3-00cccd60"
       x="407.088767"
       y="258.258004"
       id="use49" />
  </g>
  <g
     fill="rgb(50%, 50%, 50%)"
     fill-opacity="1"
     id="g50">
    <use
       xlink:href="#glyph-0-4-00cccd60"
       x="444.082388"
       y="258.258004"
       id="use50" />
  </g>
  <g
     fill="rgb(50%, 50%, 50%)"
     fill-opacity="1"
     id="g51">
    <use
       xlink:href="#glyph-1-0-00cccd60"
       x="459.333976"
       y="245.284005"
       id="use51" />
  </g>
  <g
     fill="rgb(50%, 50%, 50%)"
     fill-opacity="1"
     id="g52">
    <use
       xlink:href="#glyph-1-1-00cccd60"
       x="296.006495"
       y="63.438024"
       id="use52" />
  </g>
  <g
     fill="rgb(50%, 50%, 50%)"
     fill-opacity="1"
     id="g53">
    <use
       xlink:href="#glyph-2-0-00cccd60"
       x="296.993495"
       y="78.950025"
       id="use53" />
  </g>
  <g
     fill="rgb(50%, 50%, 50%)"
     fill-opacity="1"
     id="g54">
    <use
       xlink:href="#glyph-3-0-00cccd60"
       x="132.685999"
       y="245.28402"
       id="use54" />
  </g>
  <g
     fill="rgb(50%, 50%, 50%)"
     fill-opacity="1"
     id="g55">
    <use
       xlink:href="#glyph-1-2-00cccd60"
       x="292.509995"
       y="411.618001"
       id="use55" />
  </g>
  <g
     fill="rgb(50%, 50%, 50%)"
     fill-opacity="1"
     id="g56">
    <use
       xlink:href="#glyph-1-1-00cccd60"
       x="299.509995"
       y="411.618001"
       id="use56" />
  </g>
  <g
     fill="rgb(50%, 50%, 50%)"
     fill-opacity="1"
     id="g57">
    <use
       xlink:href="#glyph-1-3-00cccd60"
       x="296.891995"
       y="427.284001"
       id="use57" />
  </g>
  <path
     fill="none"
     stroke-width="0.525"
     stroke-linecap="butt"
     stroke-linejoin="miter"
     stroke="rgb(50%, 50%, 50%)"
     stroke-opacity="1"
     stroke-miterlimit="1.154701"
     d="M 294.496094 66.609375 L 305.074219 66.609375 "
     id="path57" />
  <path
     fill="none"
     stroke-width="0.525"
     stroke-linecap="butt"
     stroke-linejoin="miter"
     stroke="rgb(50%, 50%, 50%)"
     stroke-opacity="1"
     stroke-miterlimit="1.154701"
     d="M 291 414.941406 L 308.367188 414.941406 "
     id="path58" />
  <g
     fill="rgb(50%, 50%, 50%)"
     fill-opacity="1"
     id="g58">
    <use
       xlink:href="#glyph-4-0-00cccd60"
       x="192.936009"
       y="52.166006"
       id="use58" />
  </g>
  <g
     fill="rgb(50%, 50%, 50%)"
     fill-opacity="1"
     id="g59">
    <use
       xlink:href="#glyph-4-1-00cccd60"
       x="205.194005"
       y="52.166006"
       id="use59" />
  </g>
  <g
     fill="rgb(50%, 50%, 50%)"
     fill-opacity="1"
     id="g60">
    <use
       xlink:href="#glyph-4-2-00cccd60"
       x="210.198011"
       y="52.166006"
       id="use60" />
  </g>
  <g
     fill="rgb(50%, 50%, 50%)"
     fill-opacity="1"
     id="g61">
    <use
       xlink:href="#glyph-4-3-00cccd60"
       x="217.290006"
       y="52.166006"
       id="use61" />
  </g>
  <g
     fill="rgb(50%, 50%, 50%)"
     fill-opacity="1"
     id="g62">
    <use
       xlink:href="#glyph-4-1-00cccd60"
       x="225.282011"
       y="52.166006"
       id="use62" />
  </g>
  <g
     fill="rgb(50%, 50%, 50%)"
     fill-opacity="1"
     id="g63">
    <use
       xlink:href="#glyph-4-4-00cccd60"
       x="230.286009"
       y="52.166006"
       id="use63" />
  </g>
  <g
     fill="rgb(50%, 50%, 50%)"
     fill-opacity="1"
     id="g64">
    <use
       xlink:href="#glyph-4-5-00cccd60"
       x="240.294012"
       y="52.166006"
       id="use64" />
  </g>
  <g
     fill="rgb(50%, 50%, 50%)"
     fill-opacity="1"
     id="g65">
    <use
       xlink:href="#glyph-5-0-00cccd60"
       x="249.294009"
       y="52.166006"
       id="use65" />
  </g>
  <g
     fill="rgb(50%, 50%, 50%)"
     fill-opacity="1"
     id="g66">
    <use
       xlink:href="#glyph-4-6-00cccd60"
       x="255.270007"
       y="52.166006"
       id="use66" />
  </g>
  <g
     fill="rgb(50%, 50%, 50%)"
     fill-opacity="1"
     id="g67">
    <use
       xlink:href="#glyph-4-7-00cccd60"
       x="265.278014"
       y="52.166006"
       id="use67" />
  </g>
  <g
     fill="rgb(50%, 50%, 50%)"
     fill-opacity="1"
     id="g68">
    <use
       xlink:href="#glyph-4-8-00cccd60"
       x="274.278014"
       y="52.166006"
       id="use68" />
  </g>
  <g
     fill="rgb(50%, 50%, 50%)"
     fill-opacity="1"
     id="g69">
    <use
       xlink:href="#glyph-4-5-00cccd60"
       x="279.282012"
       y="52.166006"
       id="use69" />
  </g>
  <g
     fill="rgb(50%, 50%, 50%)"
     fill-opacity="1"
     id="g70">
    <use
       xlink:href="#glyph-4-9-00cccd60"
       x="288.282012"
       y="52.166006"
       id="use70" />
  </g>
  <g
     fill="rgb(50%, 50%, 50%)"
     fill-opacity="1"
     id="g71">
    <use
       xlink:href="#glyph-4-10-00cccd60"
       x="295.338012"
       y="52.166006"
       id="use71" />
  </g>
  <g
     fill="rgb(50%, 50%, 50%)"
     fill-opacity="1"
     id="g72">
    <use
       xlink:href="#glyph-6-0-00cccd60"
       x="301.31401"
       y="52.166006"
       id="use72" />
  </g>
  <g
     fill="rgb(50%, 50%, 50%)"
     fill-opacity="1"
     id="g73">
    <use
       xlink:href="#glyph-4-11-00cccd60"
       x="312.510017"
       y="52.166006"
       id="use73" />
  </g>
  <g
     fill="rgb(50%, 50%, 50%)"
     fill-opacity="1"
     id="g74">
    <use
       xlink:href="#glyph-4-12-00cccd60"
       x="330.114006"
       y="52.166006"
       id="use74" />
  </g>
  <g
     fill="rgb(50%, 50%, 50%)"
     fill-opacity="1"
     id="g75">
    <use
       xlink:href="#glyph-4-2-00cccd60"
       x="339.114022"
       y="52.166006"
       id="use75" />
  </g>
  <g
     fill="rgb(50%, 50%, 50%)"
     fill-opacity="1"
     id="g76">
    <use
       xlink:href="#glyph-4-1-00cccd60"
       x="346.206002"
       y="52.166006"
       id="use76" />
  </g>
  <g
     fill="rgb(50%, 50%, 50%)"
     fill-opacity="1"
     id="g77">
    <use
       xlink:href="#glyph-4-4-00cccd60"
       x="351.210015"
       y="52.166006"
       id="use77" />
  </g>
  <g
     fill="rgb(50%, 50%, 50%)"
     fill-opacity="1"
     id="g78">
    <use
       xlink:href="#glyph-4-13-00cccd60"
       x="361.218011"
       y="52.166006"
       id="use78" />
  </g>
  <g
     fill="rgb(50%, 50%, 50%)"
     fill-opacity="1"
     id="g79">
    <use
       xlink:href="#glyph-4-14-00cccd60"
       x="368.22001"
       y="52.166006"
       id="use79" />
  </g>
  <g
     fill="rgb(50%, 50%, 50%)"
     fill-opacity="1"
     id="g80">
    <use
       xlink:href="#glyph-4-15-00cccd60"
       x="376.662012"
       y="52.166006"
       id="use80" />
  </g>
  <g
     fill="rgb(50%, 50%, 50%)"
     fill-opacity="1"
     id="g81">
    <use
       xlink:href="#glyph-4-16-00cccd60"
       x="385.662012"
       y="52.166006"
       id="use81" />
  </g>
  <g
     fill="rgb(50%, 50%, 50%)"
     fill-opacity="1"
     id="g82">
    <use
       xlink:href="#glyph-4-17-00cccd60"
       x="394.662012"
       y="52.166006"
       id="use82" />
  </g>
  <g
     fill="rgb(50%, 50%, 50%)"
     fill-opacity="1"
     id="g83">
    <use
       xlink:href="#glyph-7-0-00cccd60"
       x="401.664011"
       y="44.408006"
       id="use83" />
  </g>
</svg>
